<?xml version="1.0" encoding="UTF-8" standalone="no"?>
<svg
   version="1.1"
   viewBox="0 0 6000.0001 495.09699"
   id="svg86"
   sodipodi:docname="best-mockup-equal-line-widths.svg"
   width="6000"
   height="495.09698"
   inkscape:version="1.4.4 (dcaf3e7, 2026-05-05)"
   xmlns:inkscape="http://www.inkscape.org/namespaces/inkscape"
   xmlns:sodipodi="http://sodipodi.sourceforge.net/DTD/sodipodi-0.dtd"
   xmlns="http://www.w3.org/2000/svg"
   xmlns:svg="http://www.w3.org/2000/svg">
  <defs
     id="defs86" />
  <sodipodi:namedview
     id="namedview86"
     pagecolor="#ffffff"
     bordercolor="#000000"
     borderopacity="0.25"
     inkscape:showpageshadow="2"
     inkscape:pageopacity="0.0"
     inkscape:pagecheckerboard="true"
     inkscape:deskcolor="#d1d1d1"
     inkscape:zoom="128"
     inkscape:cx="6006.0547"
     inkscape:cy="2.5898437"
     inkscape:window-width="2560"
     inkscape:window-height="1494"
     inkscape:window-x="1069"
     inkscape:window-y="1429"
     inkscape:window-maximized="1"
     inkscape:current-layer="svg86" />
  <path
     style="fill:#ffffff"
     d="M 1536.0005,413.14653 1537.4147,0 1.5039081,0.00107097 0.08885016,493.61493 H 715.23897 l 48.43681,-80.52179 z"
     id="path88"
     sodipodi:nodetypes="ccccccc" />
  <g
     stroke-width="2"
     fill="none"
     stroke-linecap="butt"
     id="g46"
     transform="translate(4.6176198e-4,-202.44331)">
    <path
       stroke="#ffe880"
       vector-effect="non-scaling-stroke"
       d="m 1536,479.89 -748.52,-0.52 a 1.24,1.24 0 0 0 -1.09,0.65 q -1.86,3.5 -3.84,6.78 -42.84,70.95 -43.61,72.15 -0.68,1.08 -1.59,3.4 a 1.4,1.36 -4.2 0 1 -0.61,0.69 l -0.43,0.23"
       id="path1" />
    <path
       stroke="#84a2c9"
       vector-effect="non-scaling-stroke"
       d="M 736.31,563.27 0,562.93"
       id="path2" />
    <path
       stroke="#84a2c9"
       vector-effect="non-scaling-stroke"
       d="m 471.32,414.18 2.72,8.53 a 1.43,1.42 81 0 0 1.35,0.99 h 21.4 a 0.85,0.85 0 0 0 0.85,-0.85 v -77.13 a 0.46,0.45 0 0 0 -0.46,-0.45 h -41.95 a 0.61,0.61 0 0 0 -0.61,0.61 v 21.71 a 0.58,0.57 90 0 0 0.57,0.58 h 6.76 a 0.5,0.49 0 0 1 0.5,0.49 q 0.03,5.81 -0.08,21.9 c -0.03,4.27 -1.88,8.99 -6.64,9.72 -4.9,0.76 -7.53,-2.55 -7.8,-6.98 -0.63,-10.4 -0.17,-19.61 -0.18,-30.67 q -0.07,-43.86 0.09,-53.1 c 0.08,-4.77 2.87,-8.76 8.11,-7.9 q 4.94,0.8 5.63,6.42 0.48,3.89 0.33,21.94 a 0.57,0.57 0 0 0 0.57,0.58 h 34.33 a 0.65,0.64 -88.6 0 0 0.64,-0.62 c 0.59,-13.06 0.98,-26.61 -5.94,-38.01 -9.79,-16.15 -35.41,-18.32 -52.12,-14.07 q -16.46,4.18 -23.31,17.68 c -3.61,7.13 -4.53,14.63 -4.53,22.95 q -0.02,63.42 -0.03,67.5 c -0.01,18.53 6.33,34.75 25.98,39.21 12.71,2.89 25.62,0.18 32.86,-11.16 a 0.54,0.53 -37.3 0 1 0.96,0.13"
       id="path3" />
    <path
       stroke="#84a2c9"
       vector-effect="non-scaling-stroke"
       d="m 1020.24,351.2 q -0.05,29.03 -0.11,33.55 c -0.33,27.42 15.05,41.68 42.18,41.73 27.13,0.05 42.56,-14.15 42.33,-41.57 q -0.04,-4.52 0.02,-33.55 0.05,-29.04 0.11,-33.56 c 0.33,-27.42 -15.05,-41.68 -42.18,-41.73 -27.13,-0.05 -42.56,14.15 -42.33,41.57 q 0.04,4.52 -0.02,33.56"
       id="path4" />
    <path
       stroke="#84a2c9"
       vector-effect="non-scaling-stroke"
       d="m 135.7,359.84 c 6.78,-0.42 12.59,1.42 12.72,9.42 q 0.39,22.82 0.19,40.49 -0.06,6.2 1.77,13.34 a 0.79,0.78 82.9 0 0 0.76,0.6 h 33.92 a 0.5,0.5 0 0 0 0.47,-0.66 q -2,-5.95 -2.04,-13.05 -0.11,-21.28 -0.19,-35.72 c -0.05,-10.93 -3.25,-20.29 -14.77,-23.76 q -1.07,-0.32 -4.01,-1.07 a 0.44,0.44 0 0 1 0.05,-0.87 q 15.68,-2.13 17.94,-17.8 1.32,-9.2 0.51,-21.82 c -0.54,-8.33 -2.99,-15.55 -8.25,-21.17 -7.42,-7.92 -21.29,-9.43 -31.52,-9.47 q -21.6,-0.07 -43.3,0.07 a 0.62,0.62 0 0 0 -0.61,0.62 v 144.37 a 0.36,0.36 0 0 0 0.36,0.36 h 34.51 a 0.79,0.78 -90 0 0 0.78,-0.79 v -62.34 a 0.76,0.75 -2 0 1 0.71,-0.75"
       id="path5" />
    <path
       stroke="#84a2c9"
       vector-effect="non-scaling-stroke"
       d="m 267.52,278.89 a 0.62,0.62 0 0 0 -0.61,-0.53 h -49.93 a 0.62,0.62 0 0 0 -0.62,0.53 l -20.41,144.12 a 0.62,0.62 0 0 0 0.61,0.71 h 34.82 a 0.62,0.62 0 0 0 0.61,-0.56 l 2.35,-24.29 a 0.62,0.62 0 0 1 0.61,-0.56 h 15.58 a 0.62,0.62 0 0 1 0.61,0.55 l 2.82,24.29 a 0.62,0.62 0 0 0 0.61,0.55 h 34.6 a 0.62,0.62 0 0 0 0.61,-0.71 l -22.26,-144.1"
       id="path6" />
    <path
       stroke="#84a2c9"
       vector-effect="non-scaling-stroke"
       d="m 336.42,347.16 23.28,75.77 a 1.1,1.09 81.3 0 0 1.04,0.77 h 33.21 a 0.59,0.59 0 0 0 0.59,-0.59 V 278.94 a 0.6,0.6 0 0 0 -0.6,-0.6 H 363.1 a 0.51,0.5 90 0 0 -0.5,0.51 v 71.5 a 0.23,0.22 36.7 0 1 -0.44,0.06 l -22.81,-71.63 a 0.66,0.65 80.7 0 0 -0.62,-0.45 H 304.7 a 0.74,0.73 90 0 0 -0.73,0.74 v 143.97 a 0.67,0.66 90 0 0 0.66,0.67 h 30.54 a 0.77,0.77 0 0 0 0.77,-0.77 v -75.71 a 0.25,0.24 36.6 0 1 0.48,-0.07"
       id="path7" />
    <path
       stroke="#84a2c9"
       vector-effect="non-scaling-stroke"
       d="m 515.65,279.03 v 144.36 a 0.29,0.29 0 0 0 0.29,0.29 h 65.73 a 0.61,0.61 0 0 0 0.61,-0.61 v -26.84 a 0.54,0.53 0.6 0 0 -0.53,-0.53 q -10.58,-0.04 -25.5,0.07 -3.16,0.02 -4.1,-0.38 a 0.84,0.82 -79 0 1 -0.51,-0.77 v -33.89 a 0.25,0.24 -90 0 1 0.24,-0.25 h 23.25 a 0.59,0.59 0 0 0 0.59,-0.59 v -24.83 a 0.49,0.49 0 0 0 -0.49,-0.49 h -22.39 a 1.21,1.21 0 0 1 -1.21,-1.21 v -26.6 a 0.54,0.54 0 0 1 0.54,-0.54 h 28.7 a 0.67,0.67 0 0 0 0.67,-0.67 v -26.74 a 0.47,0.46 0 0 0 -0.47,-0.46 h -64.74 a 0.68,0.68 0 0 0 -0.68,0.68"
       id="path8" />
    <path
       stroke="#84a2c9"
       vector-effect="non-scaling-stroke"
       d="m 633.67,359.84 c 6.77,-0.41 12.57,1.44 12.69,9.43 q 0.37,22.79 0.15,40.45 -0.06,6.19 1.76,13.32 a 0.79,0.78 82.9 0 0 0.76,0.6 l 33.88,0.04 a 0.5,0.5 0 0 0 0.47,-0.66 q -1.99,-5.95 -2.02,-13.04 -0.09,-21.26 -0.16,-35.68 c -0.04,-10.92 -3.23,-20.28 -14.73,-23.75 q -1.07,-0.32 -4,-1.08 a 0.44,0.44 0 0 1 0.05,-0.87 q 15.66,-2.11 17.93,-17.76 1.33,-9.19 0.53,-21.8 c -0.53,-8.32 -2.97,-15.53 -8.22,-21.15 -7.4,-7.92 -21.26,-9.44 -31.47,-9.49 q -21.58,-0.09 -43.26,0.03 a 0.62,0.62 0 0 0 -0.61,0.61 l -0.14,144.22 a 0.36,0.36 0 0 0 0.36,0.36 l 34.48,0.04 a 0.79,0.78 -89.9 0 0 0.78,-0.79 l 0.06,-62.28 a 0.76,0.75 -2 0 1 0.71,-0.75"
       id="path9" />
    <path
       stroke="#84a2c9"
       vector-effect="non-scaling-stroke"
       d="m 824.65,423.41 q -1.12,-10.37 -2.45,-17.62 c -1.13,-6.15 -1.97,-15.94 -3.33,-23.44 -2.24,-12.28 -3.76,-26.41 -5.78,-39.18 q -5.87,-37.1 -9.79,-64.48 a 0.42,0.41 86 0 0 -0.41,-0.36 l -50.66,0.01 a 0.28,0.27 3.4 0 0 -0.28,0.24 l -20.48,144.57 a 0.52,0.51 4.3 0 0 0.51,0.59 h 34.92 a 0.85,0.85 0 0 0 0.85,-0.77 l 2.32,-24.06 a 0.74,0.74 0 0 1 0.74,-0.67 h 15.54 a 0.45,0.45 0 0 1 0.45,0.39 l 2.85,24.59 a 0.56,0.56 0 0 0 0.56,0.5 h 34.16 a 0.28,0.27 -3.6 0 0 0.28,-0.31"
       id="path10" />
    <path
       stroke="#84a2c9"
       vector-effect="non-scaling-stroke"
       d="m 877.96,426.33 c 11.68,0 24.46,-2.56 32.76,-11.09 7.6,-7.81 9.56,-18.11 9.56,-28.49 q -0.03,-58.79 0.02,-108.04 a 0.38,0.38 0 0 0 -0.38,-0.38 h -35.14 a 0.4,0.39 90 0 0 -0.39,0.4 q -0.08,82.9 -0.03,105.77 0,3.45 -0.2,9.23 c -0.13,3.75 -2.28,6.71 -6.2,6.71 -3.91,0 -6.06,-2.96 -6.19,-6.72 q -0.2,-5.77 -0.2,-9.22 0.05,-22.87 -0.01,-105.77 a 0.4,0.39 -90 0 0 -0.39,-0.4 l -35.14,-0.01 a 0.38,0.38 0 0 0 -0.38,0.38 q 0.04,49.25 0,108.04 c 0,10.38 1.96,20.68 9.56,28.5 8.29,8.53 21.08,11.09 32.75,11.09"
       id="path11" />
    <path
       stroke="#84a2c9"
       vector-effect="non-scaling-stroke"
       d="m 972.03,423.65 q 8.67,0.01 17.66,0.11 a 0.58,0.57 0.3 0 0 0.59,-0.57 V 306.63 a 0.32,0.32 0 0 1 0.32,-0.32 h 21.08 a 0.51,0.51 0 0 0 0.51,-0.51 v -27.07 a 0.3,0.29 0.4 0 0 -0.3,-0.29 q -19.14,-0.09 -39.68,-0.12 -20.55,-0.02 -39.69,0.02 a 0.3,0.29 -0.3 0 0 -0.3,0.29 l -0.07,27.07 a 0.51,0.51 0 0 0 0.51,0.51 l 21.08,0.06 a 0.32,0.32 0 0 1 0.32,0.32 l -0.28,116.56 a 0.58,0.57 -0.2 0 0 0.58,0.57 q 9,-0.08 17.67,-0.07"
       id="path12" />
    <path
       stroke="#ffe880"
       vector-effect="non-scaling-stroke"
       d="m 288.94,493.02 q 0.16,7.68 0.84,9.69 c 2.96,8.74 13.63,9.62 21.22,7.8 q 9.33,-2.24 9.53,-11.73 c 0.13,-6.25 -0.54,-11.57 -5.46,-15.35 q -5.64,-4.35 -11.58,-8.55 a 2.76,2.63 89.1 0 1 -0.68,-0.69 c -1.29,-1.88 -2.3,-6.32 0.08,-7.82 q 1.33,-0.84 2.92,0.04 a 2.07,2.06 -75.4 0 1 1.05,1.8 v 4.64 a 1.1,1.1 0 0 0 1.1,1.1 h 10.72 a 1,0.99 -87.8 0 0 0.99,-0.92 q 0.96,-13.08 -10.07,-15.77 c -2.95,-0.72 -8.39,-0.55 -11.2,0.34 -8.57,2.72 -9.52,8.65 -9.23,16.44 0.31,8.19 8.22,12.28 14.5,16.38 q 4.54,2.97 4.02,8.79 c -0.35,3.93 -5.65,4.11 -5.94,-0.11 q -0.23,-3.43 -0.12,-5.94 a 0.91,0.9 -88.8 0 0 -0.9,-0.95 h -11 a 0.79,0.79 0 0 0 -0.79,0.81"
       id="path13" />
    <path
       stroke="#ffe880"
       vector-effect="non-scaling-stroke"
       d="m 99.32,458.25 v 51.25 a 0.97,0.97 0 0 0 1.02,0.97 q 8.92,-0.43 15.56,-0.26 c 9.18,0.25 16.68,-1.43 16.4,-11.86 -0.19,-7.19 0.37,-14.68 -7.96,-15.44 a 0.4,0.4 0 0 1 -0.11,-0.77 c 3.65,-1.43 6.38,-2.24 6.86,-6.9 q 0.31,-3.08 0.04,-7.21 c -0.5,-7.5 -7.28,-10 -13.88,-10.15 q -3.83,-0.08 -17.63,0.06 a 0.31,0.31 0 0 0 -0.3,0.31"
       id="path14" />
    <path
       stroke="#ffe880"
       vector-effect="non-scaling-stroke"
       d="m 158.4,511.22 c 7.65,0 14.96,-2.85 15.88,-11.48 q 0.53,-4.98 0.49,-6.5 -0.53,-22.16 -0.02,-34.81 a 0.57,0.57 0 0 0 -0.57,-0.59 H 162 a 0.85,0.85 0 0 0 -0.85,0.85 v 40.54 a 2.15,2.12 -34.5 0 1 -0.15,0.79 q -0.81,2 -2.59,2 -1.79,0 -2.59,-2 a 2.15,2.12 34.6 0 1 -0.16,-0.79 l 0.06,-40.54 a 0.85,0.85 0 0 0 -0.85,-0.86 l -12.18,-0.01 a 0.57,0.57 0 0 0 -0.57,0.59 q 0.49,12.65 -0.07,34.81 -0.04,1.52 0.48,6.5 c 0.91,8.63 8.22,11.49 15.87,11.5"
       id="path15" />
    <path
       stroke="#ffe880"
       vector-effect="non-scaling-stroke"
       d="m 199.59,510.32 q 5.05,0 5.46,-0.01 a 0.95,0.95 0 0 0 0.92,-0.95 v -17.97 a 5.73,5.57 54.7 0 1 0.27,-1.73 l 9.96,-31.3 a 0.34,0.34 0 0 0 -0.32,-0.44 h -12.05 a 0.5,0.5 0 0 0 -0.49,0.42 q -0.45,2.78 -3.56,17.22 -0.06,0.29 -0.2,0.29 -0.14,0 -0.21,-0.29 -3.11,-14.44 -3.56,-17.22 a 0.5,0.5 0 0 0 -0.49,-0.42 l -12.05,0.01 a 0.34,0.34 0 0 0 -0.32,0.44 l 9.98,31.29 a 5.73,5.57 -54.7 0 1 0.27,1.73 l 0.01,17.97 a 0.95,0.95 0 0 0 0.92,0.95 q 0.41,0.01 5.46,0.01"
       id="path16" />
    <path
       stroke="#ffe880"
       vector-effect="non-scaling-stroke"
       d="m 343.94,478.35 a 0.72,0.72 0 0 1 -0.72,-0.72 v -9.17 a 0.72,0.72 0 0 1 0.72,-0.72 h 9.46 a 0.72,0.72 0 0 0 0.72,-0.72 v -8.43 a 0.72,0.72 0 0 0 -0.72,-0.72 h -22.48 a 0.72,0.72 0 0 0 -0.72,0.72 v 50.94 a 0.72,0.72 0 0 0 0.72,0.72 h 23.12 a 0.72,0.72 0 0 0 0.72,-0.72 v -8.76 a 0.72,0.72 0 0 0 -0.72,-0.72 h -9.94 a 0.72,0.72 0 0 1 -0.72,-0.72 v -10.31 a 0.72,0.72 0 0 1 0.72,-0.72 h 8.19 a 0.72,0.72 0 0 0 0.72,-0.72 v -8.51 a 0.72,0.72 0 0 0 -0.72,-0.72 h -8.35"
       id="path17" />
    <path
       stroke="#ffe880"
       vector-effect="non-scaling-stroke"
       d="m 395.73,509.51 a 0.73,0.73 0 0 0 0.73,0.73 h 20.94 a 0.73,0.73 0 0 0 0.73,-0.73 v -8.65 a 0.73,0.73 0 0 0 -0.73,-0.73 h -7.82 a 0.73,0.73 0 0 1 -0.73,-0.73 v -40.77 a 0.73,0.73 0 0 0 -0.73,-0.73 h -11.66 a 0.73,0.73 0 0 0 -0.73,0.73 v 50.88"
       id="path18" />
    <path
       stroke="#ffe880"
       vector-effect="non-scaling-stroke"
       d="m 514.6,483.75 a 0.33,0.33 0 0 1 0.03,-0.65 c 6.35,-0.68 7.01,-7.03 7.09,-12.37 0.15,-10.17 -6.91,-12.64 -15.48,-12.91 q -1.39,-0.05 -15.38,0.14 a 0.66,0.66 0 0 0 -0.65,0.66 v 51 a 0.82,0.82 0 0 0 0.82,0.82 h 11.41 a 0.81,0.8 90 0 0 0.8,-0.81 v -21.16 a 1.77,1.76 15.7 0 1 2.69,-1.5 l 0.87,0.53 a 4.29,4.27 -74.4 0 1 2.05,3.66 v 17.49 a 1.73,1.73 0 0 0 1.73,1.73 h 11.26 a 0.64,0.63 84.1 0 0 0.62,-0.77 c -0.3,-1.46 -0.66,-3.1 -0.62,-4.77 q 0.18,-6.81 -0.7,-14 -0.72,-5.84 -6.54,-7.09"
       id="path19" />
    <path
       stroke="#ffe880"
       vector-effect="non-scaling-stroke"
       d="m 545.27,499.66 v -10.4 a 1.05,1.05 0 0 1 1.05,-1.05 h 8.2 a 0.4,0.4 0 0 0 0.4,-0.4 v -8.92 a 0.49,0.49 0 0 0 -0.49,-0.49 h -8.18 a 0.97,0.97 0 0 1 -0.97,-0.97 v -8.81 a 0.91,0.91 0 0 1 0.91,-0.91 h 9.14 a 0.73,0.73 0 0 0 0.73,-0.73 v -8.49 a 0.6,0.6 0 0 0 -0.6,-0.6 h -23.11 a 0.63,0.63 0 0 0 -0.63,0.63 c -0.01,10.01 0.38,22.25 -0.17,34.32 q -0.22,4.71 0.05,8.36 0.42,5.83 0.3,8.37 a 0.68,0.67 1.6 0 0 0.68,0.71 h 23.68 a 0.57,0.57 0 0 0 0.57,-0.57 v -8.63 a 0.92,0.92 0 0 0 -0.92,-0.92 h -10.14 a 0.5,0.5 0 0 1 -0.5,-0.5"
       id="path20" />
    <path
       stroke="#ffe880"
       vector-effect="non-scaling-stroke"
       d="m 566.58,510.18 h 12.16 a 0.55,0.54 90 0 0 0.54,-0.55 v -18.85 a 0.67,0.66 3.1 0 1 0.74,-0.66 c 7.97,0.92 16.79,-1.24 17.09,-10.99 q 0.06,-1.85 -0.01,-10.01 c -0.06,-7.94 -7.02,-11.08 -14,-11.23 q -7.07,-0.15 -16.96,0.05 a 0.16,0.15 -2 0 0 -0.15,0.15 v 51.5 a 0.59,0.59 0 0 0 0.59,0.59"
       id="path21" />
    <path
       stroke="#ffe880"
       vector-effect="non-scaling-stroke"
       d="m 620.81,457.95 q -7.83,0.05 -8.35,0.01 a 0.65,0.65 0 0 0 -0.69,0.55 l -8.29,50.89 a 0.9,0.9 0 0 0 0.89,1.04 h 11.43 a 1.13,1.12 -87.2 0 0 1.12,-1.02 l 0.8,-8.34 a 0.86,0.86 0 0 1 0.89,-0.78 q 0.45,0.02 2.49,0.01 2.05,-0.02 2.5,-0.04 a 0.86,0.86 0 0 1 0.9,0.76 l 0.91,8.33 a 1.13,1.12 86.4 0 0 1.14,1 l 11.43,-0.15 a 0.9,0.9 0 0 0 0.87,-1.06 l -9,-50.77 a 0.65,0.65 0 0 0 -0.7,-0.54 q -0.52,0.05 -8.34,0.11"
       id="path22" />
    <path
       stroke="#ffe880"
       vector-effect="non-scaling-stroke"
       d="m 660.38,458.75 a 0.87,0.87 0 0 0 -0.87,-0.87 h -11.62 a 0.87,0.87 0 0 0 -0.87,0.87 v 50.64 a 0.87,0.87 0 0 0 0.87,0.87 h 11.62 a 0.87,0.87 0 0 0 0.87,-0.87 v -50.64"
       id="path23" />
    <path
       stroke="#ffe880"
       vector-effect="non-scaling-stroke"
       d="m 696.14,483.89 a 0.56,0.55 -41.9 0 1 0.06,-1.1 c 6.63,-0.47 6.74,-6.71 6.77,-12.79 0.05,-8.29 -4.53,-11.25 -11.93,-11.9 -6.26,-0.56 -13.57,-0.11 -19.11,-0.15 a 0.55,0.55 0 0 0 -0.56,0.58 q 0.46,9.44 -0.32,18.12 c -0.73,8.01 -0.18,15.19 0.26,22.85 q 0.32,5.72 -0.15,9.77 a 0.91,0.91 0 0 0 0.9,1.02 h 11.82 a 0.57,0.56 0 0 0 0.57,-0.56 v -21.49 a 1.6,1.6 0 0 1 2.08,-1.53 l 1.24,0.39 a 3.59,3.58 -78.7 0 1 2.48,3.73 q -0.85,9.94 0.41,18.62 a 1.08,1.07 -4 0 0 1.07,0.92 h 11.62 a 0.6,0.59 -9.1 0 0 0.57,-0.78 q -0.6,-1.85 -0.73,-3.58 -0.35,-4.56 -0.44,-14.01 -0.07,-6.92 -6.61,-8.11"
       id="path24" />
    <path
       stroke="#ffe880"
       vector-effect="non-scaling-stroke"
       d="m 386.76,509.36 0.05,-8.33 A 0.82,0.82 0 0 0 386,500.21 l -7.62,-0.15 a 0.91,0.9 1 0 1 -0.88,-0.91 l 0.11,-40.46 a 0.76,0.76 0 0 0 -0.77,-0.75 l -11.8,0.18 a 0.6,0.6 0 0 0 -0.6,0.59 l 0.06,51.06 a 0.42,0.42 0 0 0 0.42,0.4 l 20.96,0.05 a 0.88,0.87 0 0 0 0.88,-0.86"
       id="path25" />
    <path
       stroke="#ffe880"
       vector-effect="non-scaling-stroke"
       d="m 260.94,485.37 a 8.68,8.68 0 0 0 -8.68,-8.68 8.68,8.68 0 0 0 -8.68,8.68 8.68,8.68 0 0 0 8.68,8.68 8.68,8.68 0 0 0 8.68,-8.68"
       id="path26" />
    <path
       stroke="#ffe880"
       vector-effect="non-scaling-stroke"
       d="m 462.22,485.34 a 8.74,8.74 0 0 0 -8.74,-8.74 8.74,8.74 0 0 0 -8.74,8.74 8.74,8.74 0 0 0 8.74,8.74 8.74,8.74 0 0 0 8.74,-8.74"
       id="path27" />
    <path
       stroke="#84a2c9"
       vector-effect="non-scaling-stroke"
       d="m 1055.84,351.01 q -0.02,31.35 0.02,40.49 c 0.02,4.28 1.23,9.03 6.49,9.04 5.27,0 6.48,-4.75 6.5,-9.04 q 0.05,-9.13 0.06,-40.48 0.02,-31.36 -0.02,-40.49 c -0.02,-4.29 -1.22,-9.04 -6.49,-9.04 -5.26,-0.01 -6.47,4.75 -6.5,9.03 q -0.05,9.14 -0.06,40.49"
       id="path28" />
    <path
       stroke="#84a2c9"
       vector-effect="non-scaling-stroke"
       d="m 134.99,304.17 0.16,31.38 a 0.68,0.68 0 0 0 0.69,0.67 l 4.36,-0.02 a 8.79,8.6 89.7 0 0 8.55,-8.84 l -0.08,-15.16 a 8.79,8.6 89.7 0 0 -8.65,-8.74 l -4.36,0.02 a 0.68,0.68 0 0 0 -0.67,0.69"
       id="path29" />
    <path
       stroke="#84a2c9"
       vector-effect="non-scaling-stroke"
       d="m 242.64,373.17 q 3.02,0 5.99,-0.09 a 0.53,0.53 0 0 0 0.51,-0.59 q -3.33,-33.36 -6.25,-63.01 -0.12,-1.22 -0.44,-1.22 -0.28,0.01 -0.4,1.22 -2.76,29.67 -5.91,63.05 a 0.53,0.53 0 0 0 0.52,0.58 q 2.97,0.07 5.98,0.06"
       id="path30" />
    <path
       stroke="#84a2c9"
       vector-effect="non-scaling-stroke"
       d="m 632.67,303.97 0.22,32.1 a 0.26,0.26 0 0 0 0.26,0.26 l 4.55,-0.04 a 8.99,8.83 -0.4 0 0 8.93,-8.89 l -0.1,-14.96 a 8.99,8.83 -0.4 0 0 -9.05,-8.77 l -4.55,0.04 a 0.26,0.26 0 0 0 -0.26,0.26"
       id="path31" />
    <path
       stroke="#84a2c9"
       vector-effect="non-scaling-stroke"
       d="m 778.39,373.2 q 3.04,0 6.03,-0.09 a 0.54,0.53 86.4 0 0 0.52,-0.59 q -3.31,-33.62 -6.22,-63.5 -0.12,-1.22 -0.44,-1.22 -0.29,0 -0.4,1.22 -2.82,29.89 -6.03,63.52 a 0.54,0.53 -86.5 0 0 0.51,0.59 q 2.99,0.07 6.03,0.07"
       id="path32" />
    <path
       stroke="#ffe880"
       vector-effect="non-scaling-stroke"
       d="m 112.87,467.22 0.02,11.36 a 0.5,0.5 0 0 0 0.5,0.5 h 1.41 a 3.67,3.35 -0.1 0 0 3.66,-3.35 v -5.66 a 3.67,3.35 -0.1 0 0 -3.68,-3.35 h -1.41 a 0.5,0.5 0 0 0 -0.5,0.5"
       id="path33" />
    <path
       stroke="#ffe880"
       vector-effect="non-scaling-stroke"
       d="m 112.77,486.96 0.24,13.76 a 0.32,0.32 0 0 0 0.33,0.31 l 1.75,-0.03 a 3.75,3.56 -1 0 0 3.68,-3.62 l -0.12,-7.28 a 3.75,3.56 -1 0 0 -3.82,-3.49 l -1.75,0.03 a 0.32,0.32 0 0 0 -0.31,0.32"
       id="path34" />
    <path
       stroke="#ffe880"
       vector-effect="non-scaling-stroke"
       d="m 503.15,467.29 0.27,11.1 a 0.69,0.69 0 0 0 0.7,0.67 l 1.59,-0.04 a 3.79,3.58 88.6 0 0 3.49,-3.87 l -0.12,-4.9 a 3.79,3.58 88.6 0 0 -3.67,-3.7 l -1.59,0.04 a 0.69,0.69 0 0 0 -0.67,0.7"
       id="path35" />
    <path
       stroke="#ffe880"
       vector-effect="non-scaling-stroke"
       d="m 579.12,467.41 0.12,13.45 a 0.67,0.67 0 0 0 0.67,0.67 l 2.03,-0.02 a 3.06,3.04 -0.5 0 0 3.04,-3.07 l -0.08,-8.71 a 3.06,3.04 -0.5 0 0 -3.08,-3.02 l -2.03,0.02 a 0.67,0.67 0 0 0 -0.67,0.68"
       id="path36" />
    <path
       stroke="#ffe880"
       vector-effect="non-scaling-stroke"
       d="m 620.76,470.11 a 0.3,0.3 0 0 0 -0.32,0.27 l -1.96,20.38 a 0.87,0.87 0 0 0 0.97,0.95 l 2.74,-0.31 a 1.05,1.04 84 0 0 0.91,-1.13 l -1.86,-19.99 a 0.14,0.14 0 0 0 -0.13,-0.13 l -0.35,-0.04"
       id="path37" />
    <path
       stroke="#ffe880"
       vector-effect="non-scaling-stroke"
       d="m 684.48,467.31 0.26,11.24 a 0.49,0.49 0 0 0 0.5,0.48 l 1.19,-0.03 a 3.78,3.16 -1.3 0 0 3.71,-3.24 l -0.14,-5.9 a 3.78,3.16 -1.3 0 0 -3.85,-3.07 l -1.19,0.02 a 0.49,0.49 0 0 0 -0.48,0.5"
       id="path38" />
    <path
       stroke="#ffe880"
       vector-effect="non-scaling-stroke"
       d="m 1536,525.96 -717.45,-0.29 a 1.42,1.41 15.4 0 0 -1.21,0.68 l -20.81,34.72"
       id="path39" />
    <path
       stroke="#848b4a"
       vector-effect="non-scaling-stroke"
       d="m 796.53,561.07 -32.84,54.52"
       id="path40" />
    <path
       stroke="#ffe880"
       vector-effect="non-scaling-stroke"
       d="m 763.69,615.59 -48.06,80.12 a 1.7,1.69 15.2 0 1 -1.46,0.83 L 0,696.5"
       id="path41" />
    <path
       stroke="#ffe880"
       vector-effect="non-scaling-stroke"
       d="m 0,650.67 682.92,0.03 a 1.35,1.33 15.4 0 0 1.15,-0.64 l 20.18,-33.1 a 0.32,0.28 57.2 0 0 0.03,-0.2 l -0.07,-0.41"
       id="path42" />
    <path
       stroke="#848b4a"
       vector-effect="non-scaling-stroke"
       d="m 704.21,616.35 q 0.69,-0.39 0.8,-0.58 15.51,-26.1 31.25,-52.05 0.04,-0.07 0.05,-0.45"
       id="path43" />
    <path
       stroke="#84a2c9"
       vector-effect="non-scaling-stroke"
       d="M 1536,561.09 796.53,561.07"
       id="path44" />
    <path
       stroke="#84a2c9"
       vector-effect="non-scaling-stroke"
       d="M 1536,615.59 H 763.69"
       id="path45" />
    <path
       stroke="#84a2c9"
       vector-effect="non-scaling-stroke"
       d="M 704.21,616.35 0,616.33"
       id="path46" />
  </g>
  <path
     fill="#ffffff"
     d="m 6000.8829,0.00587706 -4.8033,277.44081294 -5208.59534,-0.52 c -0.45508,2.4e-4 -0.87347,0.24973 -1.09,0.65 -1.24,2.33333 -2.52,4.59333 -3.84,6.78 -28.56,47.3 -43.09667,71.35 -43.61,72.15 -0.45333,0.72 -0.98333,1.85333 -1.59,3.4 -0.11632,0.29076 -0.33165,0.53433 -0.61,0.69 l -0.43,0.23 L 0.00426176,360.30991 0.09418074,0.00197706 C 2000.3571,0.00327706 -17605.518,-1452.5089 6000.8829,0.00587706 Z M 471.32046,211.73669 l 2.72,8.53 c 0.19036,0.5889 0.73522,0.98846 1.35,0.99 h 21.4 c 0.46944,0 0.85,-0.38056 0.85,-0.85 v -77.13 c 0,-0.24853 -0.20595,-0.45 -0.46,-0.45 h -41.95 c -0.33689,0 -0.61,0.27311 -0.61,0.61 v 21.71 c 0,0.32033 0.2552,0.58 0.57,0.58 h 6.76 c 0.27614,0 0.5,0.21938 0.5,0.49 0.02,3.87333 -0.007,11.17333 -0.08,21.9 -0.03,4.27 -1.88,8.99 -6.64,9.72 -4.9,0.76 -7.53,-2.55 -7.8,-6.98 -0.63,-10.4 -0.17,-19.61 -0.18,-30.67 -0.0467,-29.24 -0.0167,-46.94 0.09,-53.1 0.08,-4.77 2.87,-8.760002 8.11,-7.900002 3.29333,0.53333 5.17,2.673332 5.63,6.420002 0.32,2.59333 0.43,9.90667 0.33,21.94 -0.006,0.3187 0.25125,0.58005 0.57,0.58 h 34.33 c 0.34206,1.2e-4 0.62396,-0.27297 0.64,-0.62 0.59,-13.06 0.98,-26.61 -5.94,-38.010002 -9.79,-16.15 -35.41,-18.32 -52.12,-14.07 -10.97333,2.78667 -18.74333,8.68 -23.31,17.68 -3.61,7.130002 -4.53,14.630002 -4.53,22.950002 -0.0133,42.28 -0.0233,64.78 -0.03,67.5 -0.01,18.53 6.33,34.75 25.98,39.21 12.71,2.89 25.62,0.18 32.86,-11.16 0.25338,-0.3801 0.83205,-0.30174 0.96,0.13 z m 548.92004,-62.98 c -0.033,19.35333 -0.07,30.53667 -0.11,33.55 -0.33,27.42 15.05,41.68 42.18,41.73 27.13,0.05 39.0245,-14.15 38.7945,-41.57 -0.027,-3.01333 3.5155,-14.19667 3.5555,-33.55 0.033,-19.36 0.07,-30.54667 0.11,-33.56 0.33,-27.420002 -15.05,-41.680002 -42.18,-41.730002 -27.13,-0.05 -42.56,14.15 -42.33,41.570002 0.027,3.01333 0.02,14.2 -0.02,33.56 z m -884.54004,8.64 c 6.78,-0.42 12.59,1.42 12.72,9.42 0.26,15.21333 0.32333,28.71 0.19,40.49 -0.04,4.13333 0.55,8.58 1.77,13.34 0.0874,0.35277 0.40104,0.60041 0.76,0.6 h 33.92 c 0.34055,-0.002 0.57899,-0.33735 0.47,-0.66 -1.33333,-3.96667 -2.01333,-8.31667 -2.04,-13.05 -0.0733,-14.18667 -0.13667,-26.09333 -0.19,-35.72 -0.05,-10.93 -3.25,-20.29 -14.77,-23.76 -0.71333,-0.21333 -2.05,-0.57 -4.01,-1.07 -0.50011,-0.0998 -0.45826,-0.82812 0.05,-0.87 10.45333,-1.42 16.43333,-7.35333 17.94,-17.8 0.88,-6.13333 1.05,-13.40667 0.51,-21.82 -0.54,-8.330002 -2.99,-15.550002 -8.25,-21.170002 -7.42,-7.92 -21.29,-9.43 -31.52,-9.47 -14.4,-0.0467 -28.83333,-0.0233 -43.299998,0.07 -0.338505,0.005 -0.610044,0.28145 -0.61,0.62 V 220.91669 c 0,0.19882 0.161177,0.36 0.36,0.36 h 34.509998 c 0.43078,0 0.78,-0.35369 0.78,-0.79 v -62.34 c -5.2e-4,-0.39544 0.31017,-0.72363 0.71,-0.75 z m 131.82,-80.950002 c -0.0445,-0.30311 -0.30365,-0.5283 -0.61,-0.53 h -49.93 c -0.31014,-0.003 -0.57499,0.22312 -0.62,0.53 l -20.41,144.120002 c -0.0547,0.37287 0.23314,0.70791 0.61,0.71 h 34.82 c 0.31646,-0.004 0.57939,-0.245 0.61,-0.56 l 2.35,-24.29 c 0.0306,-0.31499 0.29354,-0.55638 0.61,-0.56 h 15.58 c 0.31302,0.003 0.57467,0.23896 0.61,0.55 l 2.82,24.29 c 0.0353,0.31104 0.29698,0.54695 0.61,0.55 h 34.6 c 0.37686,-0.002 0.66471,-0.33713 0.61,-0.71 z m 68.9,68.270002 23.28,75.77 c 0.14379,0.45749 0.56461,0.76906 1.04,0.77 h 33.21 c 0.32585,0 0.59,-0.26415 0.59,-0.59 V 76.496688 c 0,-0.33137 -0.26863,-0.6 -0.6,-0.6 h -30.84 c -0.27614,0 -0.5,0.22833 -0.5,0.51 v 71.500002 c 0.005,0.2537 -0.35443,0.30268 -0.44,0.06 l -22.81,-71.630002 c -0.0903,-0.2693 -0.34005,-0.45058 -0.62,-0.45 h -34.03 c -0.40317,0 -0.73,0.33131 -0.73,0.74 V 220.59669 c 0,0.37003 0.29549,0.67 0.66,0.67 h 30.54 c 0.42526,0 0.77,-0.34474 0.77,-0.77 v -75.71 c -0.0134,-0.28282 0.38927,-0.34153 0.48,-0.07 z m 179.23,-68.130002 V 220.94669 c 0,0.16016 0.12984,0.29 0.29,0.29 h 65.73 c 0.33689,0 0.61,-0.27311 0.61,-0.61 v -26.84 c -6e-5,-0.28884 -0.23576,-0.52454 -0.53,-0.53 -7.05333,-0.0267 -15.55333,-0.003 -25.5,0.07 -2.10667,0.0133 -3.47333,-0.11333 -4.1,-0.38 -0.30779,-0.1259 -0.50918,-0.42997 -0.51,-0.77 v -33.89 c 0,-0.13807 0.10745,-0.25 0.24,-0.25 h 23.25 c 0.32585,0 0.59,-0.26415 0.59,-0.59 v -24.83 c 0,-0.27062 -0.21938,-0.49 -0.49,-0.49 h -22.39 c -0.66826,0 -1.21,-0.54173 -1.21,-1.21 v -26.6 c 0,-0.29823 0.24177,-0.54 0.54,-0.54 h 28.7 c 0.37003,0 0.67,-0.29997 0.67,-0.67 V 76.366688 c 0,-0.25405 -0.21043,-0.46 -0.47,-0.46 h -64.74 c -0.37555,0 -0.68,0.30445 -0.68,0.68 z m 118.02,80.810002 c 6.77,-0.41 12.57,1.44 12.69,9.43 0.24667,15.19333 0.29667,28.67667 0.15,40.45 -0.04,4.12667 0.54667,8.56667 1.76,13.32 0.0874,0.35277 0.40104,0.60041 0.76,0.6 l 33.88,0.04 c 0.34055,-0.002 0.57899,-0.33735 0.47,-0.66 -1.32667,-3.96667 -2,-8.31333 -2.02,-13.04 -0.06,-14.17333 -0.11333,-26.06667 -0.16,-35.68 -0.04,-10.92 -3.23,-20.28 -14.73,-23.75 -0.71333,-0.21333 -2.04667,-0.57333 -4,-1.08 -0.50011,-0.0998 -0.45826,-0.82812 0.05,-0.87 10.44,-1.40667 16.41667,-7.32667 17.93,-17.76 0.88667,-6.12667 1.06333,-13.39333 0.53,-21.8 -0.53,-8.320002 -2.97,-15.530002 -8.22,-21.150002 -7.4,-7.92 -21.26,-9.44 -31.47,-9.49 -14.38667,-0.06 -28.80667,-0.05 -43.26,0.03 -0.33465,0.005 -0.60464,0.27535 -0.61,0.61 l -0.14,144.220002 c 0,0.19882 0.16118,0.36 0.36,0.36 l 34.48,0.04 c 0.43077,-2e-5 0.77998,-0.35371 0.78,-0.79 l 0.06,-62.28 c -5.2e-4,-0.39544 0.31017,-0.72363 0.71,-0.75 z m 190.98,63.57 c -0.74667,-6.91333 -1.56333,-12.78667 -2.45,-17.62 -1.13,-6.15 -1.97,-15.94 -3.33,-23.44 -2.24,-12.28 -3.76,-26.41 -5.78,-39.18 -3.91333,-24.73333 -7.17667,-46.226672 -9.79,-64.480002 -0.0299,-0.20779 -0.20503,-0.36152 -0.41,-0.36 l -50.66,0.01 c -0.14366,-10e-4 -0.26464,0.10229 -0.28,0.24 l -20.48,144.570002 c -0.0489,0.30766 0.19246,0.58685 0.51,0.59 h 34.92 c 0.4399,0.002 0.8086,-0.33205 0.85,-0.77 l 2.32,-24.06 c 0.0362,-0.38113 0.35716,-0.67172 0.74,-0.67 h 15.54 c 0.22687,-0.002 0.41976,0.16515 0.45,0.39 l 2.85,24.59 c 0.0308,0.28564 0.27271,0.50165 0.56,0.5 h 34.16 c 0.17178,9.8e-4 0.30465,-0.14612 0.28,-0.31 z m 53.31,2.92 c 11.68,0 24.46,-2.56 32.76,-11.09 7.6,-7.81 9.56,-18.11 9.56,-28.49 -0.02,-39.19333 -0.0133,-75.20667 0.02,-108.040002 0,-0.20987 -0.17013,-0.38 -0.38,-0.38 h -35.14 c -0.21539,0 -0.39,0.17909 -0.39,0.4 -0.0533,55.266672 -0.0633,90.523332 -0.03,105.770002 0,2.3 -0.0667,5.37667 -0.2,9.23 -0.13,3.75 -2.28,6.71 -6.2,6.71 -3.91,0 -6.06,-2.96 -6.19,-6.72 -0.13333,-3.84667 -0.2,-6.92 -0.2,-9.22 0.0333,-15.24667 0.03,-50.50333 -0.01,-105.770002 0,-0.22091 -0.17461,-0.4 -0.39,-0.4 l -35.14,-0.01 c -0.20987,0 -0.38,0.17013 -0.38,0.38 0.0267,32.833332 0.0267,68.846672 0,108.040002 0,10.38 1.96,20.68 9.56,28.5 8.29,8.53 21.08,11.09 32.75,11.09 z m 94.07,-2.68 c 5.78,0.007 11.66667,0.0433 17.66,0.11 0.32427,0.006 0.59011,-0.25128 0.59,-0.57 v -116.56 c 0,-0.17673 0.14327,-0.32 0.32,-0.32 h 21.08004 c 0.2817,0 0.51,-0.22833 0.51,-0.51 V 76.286688 c -1e-4,-0.16011 -0.1344,-0.28992 -0.3,-0.29 -12.76002,-0.06 -25.98671,-0.1 -39.68004,-0.12 -13.7,-0.0133 -26.93,-0.007 -39.69,0.02 -0.16564,6e-5 -0.29994,0.12988 -0.3,0.29 l -0.07,27.070002 c 0,0.28167 0.22833,0.51 0.51,0.51 l 21.08,0.06 c 0.17673,0 0.32,0.14327 0.32,0.32 l -0.28,116.56 c -4e-5,0.31483 0.25965,0.57004 0.58,0.57 6,-0.0533 11.89,-0.0767 17.67,-0.07 z m -683.09,69.37 c 0.10667,5.12 0.38667,8.35 0.84,9.69 2.96,8.74 13.63,9.62 21.22,7.8 6.22,-1.49333 9.39667,-5.40333 9.53,-11.73 0.13,-6.25 -0.54,-11.57 -5.46,-15.35 -3.76,-2.9 -7.62,-5.75 -11.58,-8.55 -0.26445,-0.18508 -0.49484,-0.41886 -0.68,-0.69 -1.29,-1.88 -2.3,-6.32 0.08,-7.82 0.88667,-0.56 1.86,-0.54667 2.92,0.04 0.64835,0.36489 1.04968,1.05288 1.05,1.8 v 4.64 c 0,0.60751 0.49249,1.1 1.1,1.1 h 10.72 c 0.517,0.001 0.94825,-0.39946 0.99,-0.92 0.64,-8.72 -2.71667,-13.97667 -10.07,-15.77 -2.95,-0.72 -8.39,-0.55 -11.2,0.34 -8.57,2.72 -9.52,8.65 -9.23,16.44 0.31,8.19 8.22,12.28 14.5,16.38 3.02667,1.98 4.36667,4.91 4.02,8.79 -0.35,3.93 -5.65,4.11 -5.94,-0.11 -0.15333,-2.28667 -0.19333,-4.26667 -0.12,-5.94 0.0228,-0.51829 -0.3869,-0.95075 -0.9,-0.95 h -11 c -0.44424,-1.4e-4 -0.80125,0.36591 -0.79,0.81 z m -189.619998,-34.77 v 51.25 c -7.39e-4,0.55587 0.464871,0.99865 1.019998,0.97 5.94667,-0.28667 11.13333,-0.37333 15.56,-0.26 9.18,0.25 16.68,-1.43 16.4,-11.86 -0.19,-7.19 0.37,-14.68 -7.96,-15.44 -0.4184,-0.0395 -0.50061,-0.61492 -0.11,-0.77 3.65,-1.43 6.38,-2.24 6.86,-6.9 0.20667,-2.05333 0.22,-4.45667 0.04,-7.21 -0.5,-7.5 -7.28,-10 -13.88,-10.15 -2.55333,-0.0533 -8.43,-0.0333 -17.629998,0.06 -0.167291,0.005 -0.300087,0.14262 -0.3,0.31 z m 59.079998,52.97 c 7.65,0 14.96,-2.85 15.88,-11.48 0.35333,-3.32 0.51667,-5.48667 0.49,-6.5 -0.35333,-14.77333 -0.36,-26.37667 -0.02,-34.81 0.0113,-0.32258 -0.24722,-0.5902 -0.57,-0.59 h -12.18 c -0.46944,0 -0.85,0.38056 -0.85,0.85 v 40.54 c 6.2e-4,0.26975 -0.0503,0.53784 -0.15,0.79 -0.54,1.33333 -1.40333,2 -2.59,2 -1.19333,0 -2.05667,-0.66667 -2.59,-2 -0.10312,-0.2515 -0.15742,-0.51961 -0.16,-0.79 l 0.06,-40.54 c 0.006,-0.47334 -0.37662,-0.86003 -0.85,-0.86 l -12.18,-0.01 c -0.32278,-2e-4 -0.58133,0.26742 -0.57,0.59 0.32667,8.43333 0.30333,20.03667 -0.07,34.81 -0.0267,1.01333 0.13333,3.18 0.48,6.5 0.91,8.63 8.22,11.49 15.87,11.5 z m 41.19,-0.9 c 3.36667,0 5.18667,-0.003 5.46,-0.01 0.51292,-0.0162 0.92026,-0.43683 0.92,-0.95 v -17.97 c 0,-0.58973 0.0911,-1.1734 0.27,-1.73 l 9.96,-31.3 c 0.0667,-0.21667 -0.0933,-0.4367 -0.32,-0.44 h -12.05 c -0.24391,0.002 -0.45098,0.17922 -0.49,0.42 -0.3,1.85333 -1.48667,7.59333 -3.56,17.22 -0.04,0.19333 -0.10667,0.29 -0.2,0.29 -0.0933,0 -0.16333,-0.0967 -0.21,-0.29 -2.07333,-9.62667 -3.26,-15.36667 -3.56,-17.22 -0.039,-0.24078 -0.24609,-0.41826 -0.49,-0.42 l -12.05,0.01 c -0.22668,0.003 -0.3867,0.22333 -0.32,0.44 l 9.98,31.29 c 0.17891,0.5566 0.27,1.14027 0.27,1.73 l 0.01,17.97 c -2.6e-4,0.51317 0.40708,0.93379 0.92,0.95 0.27333,0.007 2.09333,0.01 5.46,0.01 z m 144.35,-31.97 c -0.39765,0 -0.72,-0.32235 -0.72,-0.72 v -9.17 c 0,-0.39764 0.32235,-0.72 0.72,-0.72 h 9.46 c 0.39765,0 0.72,-0.32235 0.72,-0.72 v -8.43 c 0,-0.39764 -0.32235,-0.72 -0.72,-0.72 h -22.48 c -0.39765,0 -0.72,0.32236 -0.72,0.72 v 50.94 c 0,0.39765 0.32235,0.72 0.72,0.72 h 23.12 c 0.39765,0 0.72,-0.32235 0.72,-0.72 v -8.76 c 0,-0.39765 -0.32235,-0.72 -0.72,-0.72 h -9.94 c -0.39765,0 -0.72,-0.32235 -0.72,-0.72 v -10.31 c 0,-0.39764 0.32235,-0.72 0.72,-0.72 h 8.19 c 0.39765,0 0.72,-0.32235 0.72,-0.72 v -8.51 c 0,-0.39764 -0.32235,-0.72 -0.72,-0.72 z m 51.79,31.16 c 0,0.40317 0.32683,0.73 0.73,0.73 h 20.94 c 0.40317,0 0.73,-0.32683 0.73,-0.73 v -8.65 c 0,-0.40317 -0.32683,-0.73 -0.73,-0.73 h -7.82 c -0.40317,0 -0.73,-0.32683 -0.73,-0.73 v -40.77 c 0,-0.40317 -0.32683,-0.73 -0.73,-0.73 h -11.66 c -0.40317,0 -0.73,0.32683 -0.73,0.73 z m 118.87,-25.76 c -0.36311,-0.079 -0.33884,-0.60477 0.03,-0.65 6.35,-0.68 7.01,-7.03 7.09,-12.37 0.15,-10.17 -6.91,-12.64 -15.48,-12.91 -0.92667,-0.0333 -6.05333,0.0133 -15.38,0.14 -0.3606,0.005 -0.65004,0.29936 -0.65,0.66 v 51 c 0,0.45287 0.36713,0.82 0.82,0.82 h 11.41 c 0.44183,0 0.8,-0.36265 0.8,-0.81 v -21.16 c -0.003,-1.37601 1.5093,-2.21954 2.69,-1.5 l 0.87,0.53 c 1.27368,0.77554 2.05071,2.16282 2.05,3.66 v 17.49 c 0,0.95545 0.77455,1.73 1.73,1.73 h 11.26 c 0.40178,0.004 0.70297,-0.3705 0.62,-0.77 -0.3,-1.46 -0.66,-3.1 -0.62,-4.77 0.12,-4.54 -0.11333,-9.20667 -0.7,-14 -0.48,-3.89333 -2.66,-6.25667 -6.54,-7.09 z m 30.67,15.91 v -10.4 c 0,-0.5799 0.4701,-1.05 1.05,-1.05 h 8.2 c 0.22091,0 0.4,-0.17909 0.4,-0.4 v -8.92 c 0,-0.27062 -0.21938,-0.49 -0.49,-0.49 h -8.18 c -0.53572,0 -0.97,-0.43428 -0.97,-0.97 v -8.81 c 0,-0.50258 0.40742,-0.91 0.91,-0.91 h 9.14 c 0.40317,0 0.73,-0.32683 0.73,-0.73 v -8.49 c 0,-0.33137 -0.26863,-0.6 -0.6,-0.6 h -23.11 c -0.34794,0 -0.63,0.28206 -0.63,0.63 -0.01,10.01 0.38,22.25 -0.17,34.32 -0.14667,3.14 -0.13,5.92667 0.05,8.36 0.28,3.88667 0.38,6.67667 0.3,8.37 -0.0231,0.38532 0.28824,0.71035 0.68,0.71 h 23.68 c 0.3148,0 0.57,-0.2552 0.57,-0.57 v -8.63 c 0,-0.5081 -0.4119,-0.92 -0.92,-0.92 h -10.14 c -0.27614,0 -0.5,-0.22386 -0.5,-0.5 z m 21.31,10.52 h 12.16 c 0.29823,0 0.54,-0.24624 0.54,-0.55 v -18.85 c -0.003,-0.39373 0.34253,-0.7018 0.74,-0.66 7.97,0.92 16.79,-1.24 17.09,-10.99 0.04,-1.23333 0.0367,-4.57 -0.01,-10.01 -0.06,-7.94 -7.02,-11.08 -14,-11.23 -4.71333,-0.1 -10.36667,-0.0833 -16.96,0.05 -0.0842,0.005 -0.1498,0.0709 -0.15,0.15 v 51.5 c 0,0.32585 0.26415,0.59 0.59,0.59 z m 54.23,-52.23 c -5.22,0.0333 -8.00333,0.0367 -8.35,0.01 -0.33827,-0.0248 -0.63872,0.21472 -0.69,0.55 l -8.29,50.89 c -0.0861,0.54654 0.33673,1.04059 0.89,1.04 h 11.43 c 0.57804,0.002 1.06325,-0.43958 1.12,-1.02 l 0.8,-8.34 c 0.0422,-0.45523 0.43317,-0.7979 0.89,-0.78 0.3,0.0133 1.13,0.0167 2.49,0.01 1.36667,-0.0133 2.2,-0.0267 2.5,-0.04 0.45364,-0.0241 0.84782,0.30872 0.9,0.76 l 0.91,8.33 c 0.0671,0.58018 0.56127,1.01369 1.14,1 l 11.43,-0.15 c 0.55473,-0.01 0.96872,-0.51404 0.87,-1.06 l -9,-50.77 c -0.0562,-0.3354 -0.36133,-0.57083 -0.7,-0.54 -0.34667,0.0333 -3.12667,0.07 -8.34,0.11 z m 39.57,0.8 c 0,-0.48049 -0.38951,-0.87 -0.87,-0.87 h -11.62 c -0.48049,0 -0.87,0.38951 -0.87,0.87 v 50.64 c 0,0.48049 0.38951,0.87 0.87,0.87 h 11.62 c 0.48049,0 0.87,-0.38951 0.87,-0.87 z m 35.76,25.14 c -0.64537,-0.10322 -0.59404,-1.0442 0.06,-1.1 6.63,-0.47 6.74,-6.71 6.77,-12.79 0.05,-8.29 -4.53,-11.25 -11.93,-11.9 -6.26,-0.56 -13.57,-0.11 -19.11,-0.15 -0.31981,-0.006 -0.57751,0.26061 -0.56,0.58 0.30667,6.29333 0.2,12.33333 -0.32,18.12 -0.73,8.01 -0.18,15.19 0.26,22.85 0.21333,3.81333 0.16333,7.07 -0.15,9.77 -0.0659,0.54088 0.35513,1.01801 0.9,1.02 h 11.82 c 0.3148,0 0.57,-0.25072 0.57,-0.56 v -21.49 c -0.002,-1.08218 1.04766,-1.85466 2.08,-1.53 l 1.24,0.39 c 1.59563,0.50792 2.62575,2.05726 2.48,3.73 -0.56667,6.62667 -0.43,12.83333 0.41,18.62 0.0748,0.52845 0.53134,0.92095 1.07,0.92 h 11.62 c 0.40989,-0.001 0.69973,-0.39801 0.57,-0.78 -0.4,-1.23333 -0.64333,-2.42667 -0.73,-3.58 -0.23333,-3.04 -0.38,-7.71 -0.44,-14.01 -0.0467,-4.61333 -2.25,-7.31667 -6.61,-8.11 z m -309.38,25.47 0.05,-8.33 c 3e-5,-0.449 -0.36104,-0.81452 -0.81,-0.82 l -7.62,-0.15 c -0.49464,-0.0163 -0.88558,-0.42056 -0.88,-0.91 l 0.11,-40.46 c -0.005,-0.41975 -0.35025,-0.75556 -0.77,-0.75 l -11.8,0.18 c -0.3275,-4e-5 -0.59454,0.26254 -0.6,0.59 l 0.06,51.06 c 0.0107,0.22411 0.19563,0.40025 0.42,0.4 l 20.96,0.05 c 0.48209,3e-5 0.87446,-0.38342 0.88,-0.86 z m -125.82,-23.99 c 0,-4.79383 -3.88617,-8.68 -8.68,-8.68 -4.79383,0 -8.68,3.88617 -8.68,8.68 0,4.79383 3.88617,8.68 8.68,8.68 4.79383,0 8.68,-3.88617 8.68,-8.68 z m 201.28,-0.03 c 0,-4.82697 -3.91303,-8.74 -8.74,-8.74 -4.82697,0 -8.74,3.91303 -8.74,8.74 0,4.82697 3.91303,8.74 8.74,8.74 4.82697,0 8.74,-3.91303 8.74,-8.74 z"
     id="path47"
     sodipodi:nodetypes="cccccccccccccccsssssssssccccccccccccccccccccccscccsccccccccccccccccccccssssccccccccccccccccccccccssssssccccssssssccssssscccccsssssssssssssssscccccccsccccccccccccccccccccccccccccccccccccscccsscccsccsccccsssccsssscccccccccccsccccccccccsscccccccccccccccccccccccccccccssccscccccccccsccsccccccscccccccccsssssssssssssssssssssssssssssssssssssssccccccssssccccsscccccsssssssssssssssscccccssssssssscccccccsscccccccccccccccccccsssssssssccccccccccsscsccccccccccccccccccccccssssssssss" />
  <path
     fill="#094593"
     d="m 471.32046,211.73669 c -0.12795,-0.43174 -0.70662,-0.5101 -0.96,-0.13 -7.24,11.34 -20.15,14.05 -32.86,11.16 -19.65,-4.46 -25.99,-20.68 -25.98,-39.21 0.007,-2.72 0.0167,-25.22 0.03,-67.5 0,-8.32 0.92,-15.82 4.53,-22.950002 4.56667,-9 12.33667,-14.89334 23.31,-17.68 16.71,-4.25 42.33,-2.08 52.12,14.07 6.92,11.400002 6.53,24.950002 5.94,38.010002 -0.016,0.34703 -0.29793,0.62012 -0.64,0.62 h -34.33 c -0.31875,5e-5 -0.57559,-0.2613 -0.57,-0.58 0.1,-12.03333 -0.01,-19.34667 -0.33,-21.94 -0.46,-3.74667 -2.33666,-5.886672 -5.63,-6.420002 -5.24,-0.86 -8.03,3.130002 -8.11,7.900002 -0.10666,6.16 -0.13666,23.86 -0.09,53.1 0.01,11.06 -0.45,20.27 0.18,30.67 0.27,4.43 2.9,7.74 7.8,6.98 4.76,-0.73 6.61,-5.45 6.64,-9.72 0.0733,-10.72667 0.1,-18.02667 0.08,-21.9 0,-0.27062 -0.22385,-0.49 -0.5,-0.49 h -6.76 c -0.3148,0 -0.57,-0.25967 -0.57,-0.58 v -21.71 c 0,-0.33689 0.27311,-0.61 0.61,-0.61 h 41.95 c 0.25405,0 0.46,0.20147 0.46,0.45 v 77.13 c 0,0.46944 -0.38055,0.85 -0.85,0.85 h -21.4 c -0.61478,-0.002 -1.15964,-0.4011 -1.35,-0.99 z"
     id="path48"
     sodipodi:nodetypes="ccccccccccccccccccccsssssssssccc" />
  <path
     fill="#094593"
     d="m 1062.5905,73.626688 c 27.13,0.05 42.51,14.31 42.18,41.730002 -0.04,3.01333 -0.077,14.2 -0.11,33.56 -0.04,19.35333 -0.047,30.53667 -0.02,33.55 0.23,27.42 -15.2,41.62 -42.33,41.57 -27.13,-0.05 -42.51,-14.31 -42.18,-41.73 0.04,-3.01333 0.077,-14.19667 0.11,-33.55 0.04,-19.36 0.047,-30.54667 0.02,-33.56 -0.23,-27.420002 15.2,-41.620002 42.33,-41.570002 z m -6.75,74.940002 c -0.013,20.9 -0.01,34.39667 0.02,40.49 0.02,4.28 1.23,9.03 6.49,9.04 5.27,0 6.48,-4.75 6.5,-9.04 0.033,-6.08667 0.053,-19.58 0.06,-40.48 0.013,-20.90667 0.01,-34.40333 -0.02,-40.49 -0.02,-4.29 -1.22,-9.040002 -6.49,-9.040002 -5.26,-0.01 -6.47,4.750002 -6.5,9.030002 -0.033,6.09333 -0.053,19.59 -0.06,40.49 z"
     id="path49"
     sodipodi:nodetypes="scccscccsccccccccc" />
  <path
     fill="#094593"
     d="m 134.99046,158.14669 v 62.34 c 0,0.43631 -0.34921,0.79 -0.78,0.79 H 99.700462 c -0.198823,0 -0.36,-0.16118 -0.36,-0.36 V 76.546688 c -4.4e-5,-0.33855 0.271495,-0.61454 0.61,-0.62 14.466668,-0.0933 28.899998,-0.11667 43.299998,-0.07 10.23,0.04 24.1,1.55 31.52,9.47 5.26,5.62 7.71,12.84 8.25,21.170002 0.54,8.41333 0.37,15.68667 -0.51,21.82 -1.50666,10.44667 -7.48666,16.38 -17.94,17.8 -0.50825,0.0419 -0.55011,0.77016 -0.05,0.87 1.96,0.5 3.29667,0.85667 4.01,1.07 11.52,3.47 14.72,12.83 14.77,23.76 0.0533,9.62667 0.11667,21.53333 0.19,35.72 0.0267,4.73333 0.70667,9.08333 2.04,13.05 0.10899,0.32265 -0.12944,0.65748 -0.47,0.66 h -33.92 c -0.35896,4.1e-4 -0.67263,-0.24723 -0.76,-0.6 -1.22,-4.76 -1.81,-9.20667 -1.77,-13.34 0.13334,-11.78 0.07,-25.27667 -0.19,-40.49 -0.13,-8 -5.94,-9.84 -12.72,-9.42 -0.39983,0.0264 -0.71051,0.35456 -0.71,0.75 z m 0,-56.42 0.16,31.38 c 0.005,0.37557 0.31443,0.67556 0.69,0.67 l 4.36,-0.02 c 4.75003,-0.027 8.57819,-3.98503 8.55,-8.84 l -0.08,-15.16 c -0.028,-4.85426 -3.90066,-8.76719 -8.65,-8.74 l -4.36,0.02 c -0.37557,0.005 -0.67556,0.31443 -0.67,0.69 z"
     id="path50"
     sodipodi:nodetypes="csssscccccccccccccccccccccccccccc" />
  <path
     fill="#094593"
     d="m 267.52046,76.446688 22.26,144.100002 c 0.0547,0.37287 -0.23314,0.70792 -0.61,0.71 h -34.6 c -0.31302,-0.003 -0.57467,-0.23896 -0.61,-0.55 l -2.82,-24.29 c -0.0353,-0.31104 -0.29697,-0.54695 -0.61,-0.55 h -15.58 c -0.31645,0.004 -0.57939,0.24501 -0.61,0.56 l -2.35,24.29 c -0.0306,0.315 -0.29354,0.55638 -0.61,0.56 h -34.82 c -0.37686,-0.002 -0.66471,-0.33713 -0.61,-0.71 l 20.41,-144.120002 c 0.045,-0.30688 0.30986,-0.53329 0.62,-0.53 h 49.93 c 0.30635,0.002 0.56554,0.22689 0.61,0.53 z m -24.88,94.280002 c 2.01334,0 4.01,-0.03 5.99,-0.09 0.30983,-0.01 0.54525,-0.28203 0.51,-0.59 -2.22,-22.24 -4.30333,-43.24333 -6.25,-63.01 -0.08,-0.81333 -0.22666,-1.22 -0.44,-1.22 -0.18666,0.007 -0.32,0.41333 -0.4,1.22 -1.84,19.78 -3.81,40.79667 -5.91,63.05 -0.0292,0.30807 0.21059,0.57555 0.52,0.58 1.98,0.0467 3.97334,0.0667 5.98,0.06 z"
     id="path51"
     sodipodi:nodetypes="cccccccccccccccccccccccccc" />
  <path
     fill="#094593"
     d="m 336.42046,144.71669 c -0.0907,-0.27153 -0.49335,-0.21282 -0.48,0.07 v 75.71 c 0,0.42526 -0.34474,0.77 -0.77,0.77 h -30.54 c -0.3645,0 -0.66,-0.29997 -0.66,-0.67 V 76.626688 c 0,-0.40869 0.32684,-0.74 0.73,-0.74 h 34.03 c 0.27995,-5.8e-4 0.52971,0.1807 0.62,0.45 l 22.81,71.630002 c 0.0856,0.24268 0.44474,0.1937 0.44,-0.06 V 76.406688 c 0,-0.28167 0.22386,-0.51 0.5,-0.51 h 30.84 c 0.33137,0 0.6,0.26863 0.6,0.6 V 220.66669 c 0,0.32585 -0.26415,0.59 -0.59,0.59 h -33.21 c -0.47539,-9.4e-4 -0.89621,-0.31251 -1.04,-0.77 z"
     id="path52"
     sodipodi:nodetypes="ccssssssccccssssssccc" />
  <path
     fill="#094593"
     d="m 516.33046,75.906688 h 64.74 c 0.25958,0 0.47,0.20595 0.47,0.46 v 26.740002 c 0,0.37003 -0.29997,0.67 -0.67,0.67 h -28.7 c -0.29823,0 -0.54,0.24177 -0.54,0.54 v 26.6 c 0,0.66827 0.54174,1.21 1.21,1.21 h 22.39 c 0.27062,0 0.49,0.21938 0.49,0.49 v 24.83 c 0,0.32585 -0.26415,0.59 -0.59,0.59 h -23.25 c -0.13254,0 -0.24,0.11193 -0.24,0.25 v 33.89 c 8.2e-4,0.34003 0.20222,0.6441 0.51,0.77 0.62667,0.26667 1.99334,0.39333 4.1,0.38 9.94667,-0.0733 18.44667,-0.0967 25.5,-0.07 0.29424,0.005 0.52994,0.24116 0.53,0.53 v 26.84 c 0,0.33689 -0.2731,0.61 -0.61,0.61 h -65.73 c -0.16016,0 -0.29,-0.12984 -0.29,-0.29 V 76.586688 c 0,-0.37556 0.30445,-0.68 0.68,-0.68 z"
     id="path53"
     sodipodi:nodetypes="ssssssssssssssscccccssssss" />
  <path
     fill="#094593"
     d="m 633.67046,157.39669 c -0.39983,0.0264 -0.71051,0.35456 -0.71,0.75 l -0.06,62.28 c -2e-5,0.43629 -0.34923,0.78998 -0.78,0.79 l -34.48,-0.04 c -0.19882,0 -0.36,-0.16118 -0.36,-0.36 l 0.14,-144.220002 c 0.005,-0.33465 0.27535,-0.60465 0.61,-0.61 14.45334,-0.08 28.87334,-0.09 43.26,-0.03 10.21,0.05 24.07,1.57 31.47,9.49 5.25,5.62 7.69,12.83 8.22,21.150002 0.53334,8.40667 0.35667,15.67333 -0.53,21.8 -1.51333,10.43333 -7.49,16.35333 -17.93,17.76 -0.50825,0.0419 -0.55011,0.77016 -0.05,0.87 1.95334,0.50667 3.28667,0.86667 4,1.08 11.5,3.47 14.69,12.83 14.73,23.75 0.0467,9.61333 0.1,21.50667 0.16,35.68 0.02,4.72667 0.69334,9.07333 2.02,13.04 0.10899,0.32265 -0.12944,0.65748 -0.47,0.66 l -33.88,-0.04 c -0.35896,4.1e-4 -0.67263,-0.24723 -0.76,-0.6 -1.21333,-4.75333 -1.8,-9.19333 -1.76,-13.32 0.14667,-11.77333 0.0967,-25.25667 -0.15,-40.45 -0.12,-7.99 -5.92,-9.84 -12.69,-9.43 z m -1,-55.87 0.22,32.1 c 0,0.14359 0.11641,0.26 0.26,0.26 l 4.55,-0.04 c 4.96463,-0.0337 8.96261,-4.01372 8.93,-8.89 l -0.1,-14.96 c -0.0324,-4.87717 -4.08446,-8.80388 -9.05,-8.77 l -4.55,0.04 c -0.14359,0 -0.26,0.11641 -0.26,0.26 z"
     id="path54"
     sodipodi:nodetypes="ccccccccccccccccscccccccccccscccc" />
  <path
     fill="#094593"
     d="m 824.65046,220.96669 c 0.0247,0.16388 -0.10822,0.31098 -0.28,0.31 h -34.16 c -0.28728,0.002 -0.52922,-0.21436 -0.56,-0.5 l -2.85,-24.59 c -0.0302,-0.22485 -0.22313,-0.39202 -0.45,-0.39 h -15.54 c -0.38284,-0.002 -0.70378,0.28887 -0.74,0.67 l -2.32,24.06 c -0.0414,0.43795 -0.4101,0.77195 -0.85,0.77 h -34.92 c -0.31754,-0.003 -0.55887,-0.28234 -0.51,-0.59 l 20.48,-144.570002 c 0.0154,-0.13771 0.13634,-0.24141 0.28,-0.24 l 50.66,-0.01 c 0.20498,-0.002 0.38007,0.15221 0.41,0.36 2.61334,18.25333 5.87667,39.746672 9.79,64.480002 2.02,12.77 3.54,26.9 5.78,39.18 1.36,7.5 2.2,17.29 3.33,23.44 0.88667,4.83333 1.70334,10.70667 2.45,17.62 z m -46.26,-50.21 c 2.02667,0 4.03667,-0.03 6.03,-0.09 0.30957,-0.004 0.54944,-0.27596 0.52,-0.59 -2.20666,-22.41333 -4.28,-43.58 -6.22,-63.5 -0.08,-0.81333 -0.22666,-1.22 -0.44,-1.22 -0.19333,0 -0.32666,0.40667 -0.4,1.22 -1.88,19.92667 -3.89,41.1 -6.03,63.52 -0.0292,0.31009 0.20446,0.58036 0.51,0.59 1.99334,0.0467 4.00334,0.07 6.03,0.07 z"
     id="path55"
     sodipodi:nodetypes="ccccccccccccccccccccscccscccs" />
  <path
     fill="#094593"
     d="m 877.96046,197.99669 c 3.92,0 6.07,-2.96 6.2,-6.71 0.13334,-3.85333 0.2,-6.93 0.2,-9.23 -0.0333,-15.24667 -0.0233,-50.50333 0.03,-105.770002 0,-0.22092 0.17461,-0.4 0.39,-0.4 h 35.14 c 0.20987,0 0.38,0.17013 0.38,0.38 -0.0333,32.833332 -0.04,68.846672 -0.02,108.040002 0,10.38 -1.96,20.68 -9.56,28.49 -8.3,8.53 -21.08,11.09 -32.76,11.09 -11.67,0 -24.46,-2.56 -32.75,-11.09 -7.6,-7.82 -9.56,-18.12 -9.56,-28.5 0.0267,-39.19333 0.0267,-75.20667 0,-108.040002 0,-0.20987 0.17014,-0.38 0.38,-0.38 l 35.14,0.01 c 0.21539,0 0.39,0.17908 0.39,0.4 0.04,55.266672 0.0433,90.523332 0.01,105.770002 0,2.3 0.0667,5.37333 0.2,9.22 0.13,3.76 2.28,6.72 6.19,6.72 z"
     id="path56"
     sodipodi:nodetypes="scccsscccsscccccccs" />
  <path
     fill="#094593"
     d="m 972.21046,75.876688 c 13.69334,0.02 26.92002,0.06 39.68004,0.12 0.1656,7e-5 0.2999,0.12989 0.3,0.29 v 27.070002 c 0,0.28167 -0.2283,0.51 -0.51,0.51 h -21.08004 c -0.17673,0 -0.32,0.14327 -0.32,0.32 v 116.56 c 1.1e-4,0.31872 -0.26573,0.57555 -0.59,0.57 -5.99333,-0.0667 -11.88,-0.10333 -17.66,-0.11 -5.78,-0.007 -11.67,0.0167 -17.67,0.07 -0.32035,4e-5 -0.58004,-0.25517 -0.58,-0.57 l 0.28,-116.56 c 0,-0.17673 -0.14327,-0.32 -0.32,-0.32 l -21.08,-0.06 c -0.28166,0 -0.51,-0.22833 -0.51,-0.51 l 0.07,-27.070002 c 6e-5,-0.16013 0.13436,-0.28995 0.3,-0.29 12.76,-0.0267 25.99,-0.0333 39.69,-0.02 z"
     id="path57"
     sodipodi:nodetypes="cccssssccsccccccccc" />
  <path
     fill="#ffffff"
     d="m 1062.4005,99.046688 c 5.27,0 6.47,4.750002 6.49,9.040002 0.027,6.08667 0.033,19.58333 0.02,40.49 -0.01,20.9 -0.027,34.39333 -0.06,40.48 -0.02,4.29 -1.23,9.04 -6.5,9.04 -5.26,-0.01 -6.47,-4.76 -6.49,-9.04 -0.027,-6.09333 -0.033,-19.59 -0.02,-40.49 0.01,-20.9 0.027,-34.39667 0.06,-40.49 0.03,-4.28 1.24,-9.040002 6.5,-9.030002 z"
     id="path58"
     sodipodi:nodetypes="ccccccccc" />
  <path
     fill="#ffffff"
     d="m 134.99046,101.72669 c -0.006,-0.37557 0.29443,-0.68452 0.67,-0.69 l 4.36,-0.02 c 4.74934,-0.0272 8.62198,3.88574 8.65,8.74 l 0.08,15.16 c 0.0282,4.85497 -3.79997,8.81297 -8.55,8.84 l -4.36,0.02 c -0.37557,0.006 -0.68451,-0.29443 -0.69,-0.67 z"
     id="path59"
     sodipodi:nodetypes="ccccccccc" />
  <path
     fill="#ffffff"
     d="m 632.67046,101.52669 c 0,-0.14359 0.11641,-0.26 0.26,-0.26 l 4.55,-0.04 c 4.96554,-0.0339 9.01762,3.89283 9.05,8.77 l 0.1,14.96 c 0.0326,4.87628 -3.96537,8.85634 -8.93,8.89 l -4.55,0.04 c -0.14359,0 -0.26,-0.11641 -0.26,-0.26 z"
     id="path60"
     sodipodi:nodetypes="ccccscccc" />
  <path
     fill="#ffffff"
     d="m 778.28046,105.35669 c 0.21334,0 0.36,0.40667 0.44,1.22 1.94,19.92 4.01334,41.08667 6.22,63.5 0.0294,0.31404 -0.21043,0.58619 -0.52,0.59 -1.99333,0.06 -4.00333,0.09 -6.03,0.09 -2.02666,0 -4.03666,-0.0233 -6.03,-0.07 -0.30554,-0.01 -0.53917,-0.27991 -0.51,-0.59 2.14,-22.42 4.15,-43.59333 6.03,-63.52 0.0733,-0.81333 0.20667,-1.22 0.4,-1.22 z"
     id="path61"
     sodipodi:nodetypes="scccscccs" />
  <path
     fill="#ffffff"
     d="m 242.64046,170.72669 c -2.00666,0.007 -4,-0.0133 -5.98,-0.06 -0.30941,-0.004 -0.54922,-0.27193 -0.52,-0.58 2.1,-22.25333 4.07,-43.27 5.91,-63.05 0.08,-0.80667 0.21334,-1.21333 0.4,-1.22 0.21334,0 0.36,0.40667 0.44,1.22 1.94667,19.76667 4.03,40.77 6.25,63.01 0.0353,0.30797 -0.20017,0.58031 -0.51,0.59 -1.98,0.06 -3.97666,0.09 -5.99,0.09 z"
     id="path62"
     sodipodi:nodetypes="ccccccccc" />
  <path
     fill="#ffd000"
     d="m 289.73046,289.76669 h 11 c 0.5131,-7.5e-4 0.9228,0.43171 0.9,0.95 -0.0733,1.67333 -0.0333,3.65333 0.12,5.94 0.29,4.22 5.59,4.04 5.94,0.11 0.34667,-3.88 -0.99333,-6.81 -4.02,-8.79 -6.28,-4.1 -14.19,-8.19 -14.5,-16.38 -0.29,-7.79 0.66,-13.72 9.23,-16.44 2.81,-0.89 8.25,-1.06 11.2,-0.34 7.35334,1.79333 10.71,7.05 10.07,15.77 -0.0417,0.52054 -0.47299,0.9213 -0.99,0.92 h -10.72 c -0.60751,0 -1.1,-0.49249 -1.1,-1.1 v -4.64 c -3.2e-4,-0.74712 -0.40164,-1.43511 -1.05,-1.8 -1.06,-0.58667 -2.03333,-0.6 -2.92,-0.04 -2.38,1.5 -1.37,5.94 -0.08,7.82 0.18517,0.27114 0.41555,0.50492 0.68,0.69 3.96,2.8 7.82,5.65 11.58,8.55 4.92,3.78 5.59,9.1 5.46,15.35 -0.13333,6.32666 -3.31,10.23666 -9.53,11.73 -7.59,1.82 -18.26,0.94 -21.22,-7.8 -0.45333,-1.34 -0.73333,-4.57 -0.84,-9.69 -0.0112,-0.44409 0.34577,-0.81014 0.79,-0.81 z"
     id="path63"
     sodipodi:nodetypes="cccccccccccssccccccccccc" />
  <path
     fill="#ffd000"
     d="m 99.320462,255.80669 c -8.8e-5,-0.16738 0.132709,-0.3046 0.3,-0.31 9.199998,-0.0933 15.076668,-0.11333 17.629998,-0.06 6.6,0.15 13.38,2.65 13.88,10.15 0.18,2.75333 0.16667,5.15667 -0.04,7.21 -0.48,4.66 -3.21,5.47 -6.86,6.9 -0.3906,0.15508 -0.3084,0.73049 0.11,0.77 8.33,0.76 7.77,8.25 7.96,15.44 0.28,10.43 -7.22,12.11 -16.4,11.86 -4.42666,-0.11334 -9.61333,-0.0267 -15.56,0.26 -0.555127,0.0287 -1.020737,-0.41414 -1.019998,-0.97 z m 13.549998,8.97 0.02,11.36 c 0,0.27614 0.22386,0.5 0.5,0.5 h 1.41 c 2.02253,-0.006 3.65937,-1.50382 3.66,-3.35 v -5.66 c 6.6e-4,-1.85414 -1.64875,-3.35564 -3.68,-3.35 h -1.41 c -0.27614,0 -0.5,0.22386 -0.5,0.5 z m -0.1,19.74 0.24,13.76 c 0.005,0.17677 0.15324,0.31561 0.33,0.31 l 1.75,-0.03 c 2.06584,-0.0399 3.71147,-1.65872 3.68,-3.62 l -0.12,-7.28 c -0.0366,-1.96744 -1.74759,-3.53064 -3.82,-3.49 l -1.75,0.03 c -0.17281,0.005 -0.31008,0.1471 -0.31,0.32 z"
     id="path64"
     sodipodi:nodetypes="ccccccccccccccsccccscccccccccc" />
  <path
     fill="#ffd000"
     d="m 158.41046,299.57669 c 1.18667,0 2.05,-0.66667 2.59,-2 0.0997,-0.25216 0.15063,-0.52025 0.15,-0.79 v -40.54 c 0,-0.46944 0.38056,-0.85 0.85,-0.85 h 12.18 c 0.32278,-2e-4 0.58133,0.26742 0.57,0.59 -0.34,8.43333 -0.33333,20.03667 0.02,34.81 0.0267,1.01333 -0.13666,3.18 -0.49,6.5 -0.92,8.63 -8.23,11.48 -15.88,11.48 -7.65,-0.01 -14.96,-2.87 -15.87,-11.5 -0.34666,-3.32 -0.50666,-5.48667 -0.48,-6.5 0.37334,-14.77333 0.39667,-26.37667 0.07,-34.81 -0.0113,-0.32258 0.24722,-0.5902 0.57,-0.59 l 12.18,0.01 c 0.47338,-3e-5 0.85557,0.38666 0.85,0.86 l -0.06,40.54 c 0.003,0.27039 0.0569,0.5385 0.16,0.79 0.53334,1.33333 1.39667,2 2.59,2 z"
     id="path65"
     sodipodi:nodetypes="sccsscccccccccccccs" />
  <path
     fill="#ffd000"
     d="m 199.58046,273.40669 c 0.0933,0 0.16,-0.0967 0.2,-0.29 2.07334,-9.62667 3.26,-15.36667 3.56,-17.22 0.039,-0.24078 0.24609,-0.41826 0.49,-0.42 h 12.05 c 0.22669,0.003 0.38671,0.22333 0.32,0.44 l -9.96,31.3 c -0.1789,0.5566 -0.27,1.14027 -0.27,1.73 v 17.97 c 2.6e-4,0.51317 -0.40708,0.93379 -0.92,0.95 -0.27333,0.007 -2.09333,0.01 -5.46,0.01 -3.36666,0 -5.18666,-0.003 -5.46,-0.01 -0.51292,-0.0162 -0.92025,-0.43683 -0.92,-0.95 l -0.01,-17.97 c 0,-0.58973 -0.0911,-1.1734 -0.27,-1.73 l -9.98,-31.29 c -0.0667,-0.21667 0.0933,-0.4367 0.32,-0.44 l 12.05,-0.01 c 0.24392,0.002 0.45098,0.17922 0.49,0.42 0.3,1.85333 1.48667,7.59333 3.56,17.22 0.0467,0.19333 0.11667,0.29 0.21,0.29 z"
     id="path66"
     sodipodi:nodetypes="sccccccsccscccccccccs" />
  <path
     fill="#ffd000"
     d="m 343.94046,275.90669 h 8.35 c 0.39765,0 0.72,0.32236 0.72,0.72 v 8.51 c 0,0.39765 -0.32235,0.72 -0.72,0.72 h -8.19 c -0.39764,0 -0.72,0.32236 -0.72,0.72 v 10.31 c 0,0.39764 0.32236,0.72 0.72,0.72 h 9.94 c 0.39765,0 0.72,0.32235 0.72,0.72 v 8.76 c 0,0.39764 -0.32235,0.72 -0.72,0.72 h -23.12 c -0.39764,0 -0.72,-0.32236 -0.72,-0.72 v -50.94 c 0,-0.39764 0.32236,-0.72 0.72,-0.72 h 22.48 c 0.39765,0 0.72,0.32236 0.72,0.72 v 8.43 c 0,0.39765 -0.32235,0.72 -0.72,0.72 h -9.46 c -0.39764,0 -0.72,0.32236 -0.72,0.72 v 9.17 c 0,0.39765 0.32236,0.72 0.72,0.72 z"
     id="path67"
     sodipodi:nodetypes="sssssssssssssssssssssssss" />
  <path
     fill="#ffd000"
     d="m 395.73046,307.06669 v -50.88 c 0,-0.40317 0.32684,-0.73 0.73,-0.73 h 11.66 c 0.40317,0 0.73,0.32683 0.73,0.73 v 40.77 c 0,0.40316 0.32684,0.73 0.73,0.73 h 7.82 c 0.40317,0 0.73,0.32683 0.73,0.73 v 8.65 c 0,0.40316 -0.32683,0.73 -0.73,0.73 h -20.94 c -0.40316,0 -0.73,-0.32684 -0.73,-0.73 z"
     id="path68"
     sodipodi:nodetypes="sssssssssssss" />
  <path
     fill="#ffd000"
     d="m 514.60046,281.30669 c 3.88,0.83333 6.06,3.19667 6.54,7.09 0.58667,4.79333 0.82,9.46 0.7,14 -0.04,1.67 0.32,3.31 0.62,4.77 0.083,0.39949 -0.21822,0.77356 -0.62,0.77 h -11.26 c -0.95545,0 -1.73,-0.77455 -1.73,-1.73 v -17.49 c 7.1e-4,-1.49718 -0.77632,-2.88446 -2.05,-3.66 l -0.87,-0.53 c -1.18069,-0.71954 -2.69344,0.12399 -2.69,1.5 v 21.16 c 0,0.44735 -0.35817,0.81 -0.8,0.81 h -11.41 c -0.45287,0 -0.82,-0.36713 -0.82,-0.82 v -51 c -4e-5,-0.36064 0.28941,-0.65453 0.65,-0.66 9.32667,-0.12667 14.45334,-0.17333 15.38,-0.14 8.57,0.27 15.63,2.74 15.48,12.91 -0.08,5.34 -0.74,11.69 -7.09,12.37 -0.36884,0.0452 -0.3931,0.57099 -0.03,0.65 z m -11.45,-16.46 0.27,11.1 c 0.0109,0.37716 0.32273,0.67563 0.7,0.67 l 1.59,-0.04 c 1.97565,-0.0462 3.53777,-1.77844 3.49,-3.87 l -0.12,-4.9 c -0.0519,-2.09134 -1.6945,-3.74741 -3.67,-3.7 l -1.59,0.04 c -0.37716,0.0109 -0.67562,0.32272 -0.67,0.7 z"
     id="path69"
     sodipodi:nodetypes="cccccssccccssssccccccccccccccc" />
  <path
     fill="#ffd000"
     d="m 545.27046,297.21669 c 0,0.27614 0.22386,0.5 0.5,0.5 h 10.14 c 0.50811,0 0.92,0.41189 0.92,0.92 v 8.63 c 0,0.3148 -0.25519,0.57 -0.57,0.57 h -23.68 c -0.39175,3.5e-4 -0.70306,-0.32469 -0.68,-0.71 0.08,-1.69334 -0.02,-4.48334 -0.3,-8.37 -0.18,-2.43334 -0.19666,-5.22 -0.05,-8.36 0.55,-12.07 0.16,-24.31 0.17,-34.32 0,-0.34794 0.28206,-0.63 0.63,-0.63 h 23.11 c 0.33137,0 0.6,0.26863 0.6,0.6 v 8.49 c 0,0.40317 -0.32683,0.73 -0.73,0.73 h -9.14 c -0.50258,0 -0.91,0.40742 -0.91,0.91 v 8.81 c 0,0.53572 0.43429,0.97 0.97,0.97 h 8.18 c 0.27062,0 0.49,0.21938 0.49,0.49 v 8.92 c 0,0.22091 -0.17908,0.4 -0.4,0.4 h -8.2 c -0.5799,0 -1.05,0.4701 -1.05,1.05 z"
     id="path70"
     sodipodi:nodetypes="sssssscccccssssssssssssssss" />
  <path
     fill="#ffd000"
     d="m 566.58046,307.73669 c -0.32584,0 -0.59,-0.26416 -0.59,-0.59 v -51.5 c 2e-4,-0.0791 0.0658,-0.14471 0.15,-0.15 6.59334,-0.13333 12.24667,-0.15 16.96,-0.05 6.98,0.15 13.94,3.29 14,11.23 0.0467,5.44 0.05,8.77667 0.01,10.01 -0.3,9.75 -9.12,11.91 -17.09,10.99 -0.39747,-0.0418 -0.74289,0.26627 -0.74,0.66 v 18.85 c 0,0.30375 -0.24176,0.55 -0.54,0.55 z m 12.54,-42.77 0.12,13.45 c 0,0.37003 0.29997,0.67 0.67,0.67 l 2.03,-0.02 c 1.69389,-0.0111 3.05656,-1.38723 3.04,-3.07 l -0.08,-8.71 c -0.0109,-1.67905 -1.38991,-3.0312 -3.08,-3.02 l -2.03,0.02 c -0.37397,-4e-5 -0.67558,0.30607 -0.67,0.68 z"
     id="path71"
     sodipodi:nodetypes="sscccccccsssccccccccc" />
  <path
     fill="#ffd000"
     d="m 621.10046,297.86669 c -1.36,0.007 -2.19,0.003 -2.49,-0.01 -0.45683,-0.0179 -0.84782,0.32476 -0.89,0.78 l -0.8,8.34 c -0.0568,0.58041 -0.54196,1.0223 -1.12,1.02 h -11.43 c -0.55327,5.8e-4 -0.97606,-0.49347 -0.89,-1.04 l 8.29,-50.89 c 0.0513,-0.33528 0.35173,-0.57477 0.69,-0.55 0.34667,0.0267 3.13,0.0233 8.35,-0.01 5.21334,-0.04 7.99334,-0.0767 8.34,-0.11 0.33867,-0.0308 0.64385,0.2046 0.7,0.54 l 9,50.77 c 0.0987,0.54596 -0.31526,1.05036 -0.87,1.06 l -11.43,0.15 c -0.57873,0.0137 -1.07293,-0.41983 -1.14,-1 l -0.91,-8.33 c -0.0522,-0.45128 -0.44635,-0.78414 -0.9,-0.76 -0.3,0.0133 -1.13333,0.0267 -2.5,0.04 z m -0.34,-30.2 c -0.16222,-0.0116 -0.30415,0.10814 -0.32,0.27 l -1.96,20.38 c -0.0552,0.55413 0.41715,1.01675 0.97,0.95 l 2.74,-0.31 c 0.55565,-0.0675 0.95784,-0.56691 0.91,-1.13 l -1.86,-19.99 c -0.005,-0.0697 -0.0603,-0.12518 -0.13,-0.13 z"
     id="path72"
     sodipodi:nodetypes="cccccccccccccccccccccccccccc" />
  <rect
     fill="#ffd000"
     x="647.02051"
     y="255.43669"
     width="13.36"
     height="52.380001"
     rx="0.87"
     id="rect72" />
  <path
     fill="#ffd000"
     d="m 696.14046,281.44669 c 4.36,0.79333 6.56334,3.49667 6.61,8.11 0.06,6.3 0.20667,10.97 0.44,14.01 0.0867,1.15333 0.33,2.34666 0.73,3.58 0.12973,0.38198 -0.16011,0.77861 -0.57,0.78 h -11.62 c -0.53866,9.5e-4 -0.99515,-0.39155 -1.07,-0.92 -0.84,-5.78667 -0.97666,-11.99334 -0.41,-18.62 0.14575,-1.67274 -0.88437,-3.22208 -2.48,-3.73 l -1.24,-0.39 c -1.03234,-0.32466 -2.0825,0.44782 -2.08,1.53 v 21.49 c 0,0.30928 -0.25519,0.56 -0.57,0.56 h -11.82 c -0.54487,-0.002 -0.96586,-0.47913 -0.9,-1.02 0.31334,-2.7 0.36334,-5.95667 0.15,-9.77 -0.44,-7.66 -0.99,-14.84 -0.26,-22.85 0.52,-5.78667 0.62667,-11.82667 0.32,-18.12 -0.0175,-0.31939 0.24019,-0.58629 0.56,-0.58 5.54,0.04 12.85,-0.41 19.11,0.15 7.4,0.65 11.98,3.61 11.93,11.9 -0.03,6.08 -0.14,12.32 -6.77,12.79 -0.65404,0.0558 -0.70536,0.99678 -0.06,1.1 z m -11.66,-16.58 0.26,11.24 c 0.005,0.27064 0.22936,0.48558 0.5,0.48 l 1.19,-0.03 c 2.08579,-0.0462 3.74627,-1.49627 3.71,-3.24 l -0.14,-5.9 c -0.0418,-1.74316 -1.76475,-3.11703 -3.85,-3.07 l -1.19,0.02 c -0.27064,0.005 -0.48558,0.22936 -0.48,0.5 z"
     id="path73"
     sodipodi:nodetypes="cccccccccscssccccccccccccccccccc" />
  <path
     fill="#ffd000"
     d="m 386.76046,306.91669 c -0.006,0.47657 -0.39791,0.86003 -0.88,0.86 l -20.96,-0.05 c -0.22436,2.5e-4 -0.40931,-0.17589 -0.42,-0.4 l -0.06,-51.06 c 0.005,-0.32746 0.2725,-0.59004 0.6,-0.59 l 11.8,-0.18 c 0.41975,-0.006 0.76452,0.33025 0.77,0.75 l -0.11,40.46 c -0.006,0.48944 0.38536,0.8937 0.88,0.91 l 7.62,0.15 c 0.44897,0.005 0.81004,0.371 0.81,0.82 z"
     id="path74"
     sodipodi:nodetypes="ccccccccccccc" />
  <path
     fill="#ffffff"
     d="m 112.87046,264.77669 c 0,-0.27614 0.22386,-0.5 0.5,-0.5 h 1.41 c 2.03125,-0.006 3.68066,1.49586 3.68,3.35 v 5.66 c -6.3e-4,1.84618 -1.63747,3.34438 -3.66,3.35 h -1.41 c -0.27614,0 -0.5,-0.22386 -0.5,-0.5 z"
     id="path75"
     sodipodi:nodetypes="csccccscc" />
  <path
     fill="#ffffff"
     d="m 503.15046,264.84669 c -0.006,-0.37728 0.29284,-0.6891 0.67,-0.7 l 1.59,-0.04 c 1.9755,-0.0474 3.61814,1.60866 3.67,3.7 l 0.12,4.9 c 0.0478,2.09156 -1.51435,3.82377 -3.49,3.87 l -1.59,0.04 c -0.37727,0.006 -0.6891,-0.29284 -0.7,-0.67 z"
     id="path76"
     sodipodi:nodetypes="ccccccccc" />
  <path
     fill="#ffffff"
     d="m 579.12046,264.96669 c -0.006,-0.37393 0.29603,-0.68004 0.67,-0.68 l 2.03,-0.02 c 1.69009,-0.0112 3.06911,1.34095 3.08,3.02 l 0.08,8.71 c 0.0166,1.68277 -1.34611,3.05889 -3.04,3.07 l -2.03,0.02 c -0.37003,0 -0.67,-0.29997 -0.67,-0.67 z"
     id="path77"
     sodipodi:nodetypes="ccccccccc" />
  <path
     fill="#ffffff"
     d="m 684.48046,264.86669 c -0.006,-0.27064 0.20936,-0.49453 0.48,-0.5 l 1.19,-0.02 c 2.08525,-0.047 3.80817,1.32684 3.85,3.07 l 0.14,5.9 c 0.0363,1.74373 -1.62421,3.19385 -3.71,3.24 l -1.19,0.03 c -0.27064,0.006 -0.49453,-0.20936 -0.5,-0.48 z"
     id="path78"
     sodipodi:nodetypes="ccccccccc" />
  <path
     fill="#ffffff"
     d="m 620.76046,267.66669 0.35,0.04 c 0.0697,0.005 0.12518,0.0603 0.13,0.13 l 1.86,19.99 c 0.0478,0.56309 -0.35435,1.0625 -0.91,1.13 l -2.74,0.31 c -0.55285,0.0668 -1.02522,-0.39587 -0.97,-0.95 l 1.96,-20.38 c 0.0159,-0.16186 0.15778,-0.28162 0.32,-0.27 z"
     id="path79"
     sodipodi:nodetypes="ccccccccc" />
  <circle
     fill="#ffd000"
     cx="252.26045"
     cy="282.92667"
     r="8.6800003"
     id="circle79" />
  <circle
     fill="#ffd000"
     cx="453.48047"
     cy="282.89667"
     r="8.7399998"
     id="circle80" />
  <path
     fill="#ffd000"
     d="m 1537.3263,276.91636 -0.088,46.77711 -718.68744,-0.46678 c -0.49592,5.5e-4 -0.95466,0.25835 -1.21,0.68 l -20.81,34.72 -32.84,54.52 -48.06,80.12 c -0.30424,0.51439 -2.2506,2.23881 -2.34388,1.89066 L 8.6176198e-4,495.11735 V 448.22669 L 682.92046,448.25669 c 0.47189,8.6e-4 0.90803,-0.24186 1.15,-0.64 l 20.18,-33.1 c 0.0322,-0.0582 0.0428,-0.12883 0.03,-0.2 l -0.07,-0.41 c 0.46,-0.26 0.72667,-0.45334 0.8,-0.58 10.34,-17.4 20.75667,-34.75 31.25,-52.05 0.0267,-0.0467 0.0433,-0.19667 0.05,-0.45 l 0.43,-0.23 c 0.27835,-0.15568 0.49368,-0.39925 0.61,-0.69 0.60667,-1.54667 1.13667,-2.68 1.59,-3.4 0.51334,-0.8 15.05,-24.85 43.61,-72.15 1.32,-2.18667 2.6,-4.44667 3.84,-6.78 0.21653,-0.40027 0.63492,-0.64976 1.09,-0.65 z"
     id="path80"
     sodipodi:nodetypes="ccccccccccccccccccccccccc" />
  <path
     fill="#ffffff"
     d="m 112.77046,284.51669 c -8e-5,-0.1729 0.13719,-0.3146 0.31,-0.32 l 1.75,-0.03 c 2.07241,-0.0406 3.78342,1.52256 3.82,3.49 l 0.12,7.28 c 0.0315,1.96128 -1.61416,3.58008 -3.68,3.62 l -1.75,0.03 c -0.17676,0.006 -0.32456,-0.13323 -0.33,-0.31 z"
     id="path81"
     sodipodi:nodetypes="ccccccccc" />
  <path
     fill="#ffffff"
     d="m 1537.4147,323.07475 -0.3536,35.30677 -740.53064,0.24517 20.81,-34.72 c 0.25534,-0.42165 0.71408,-0.67945 1.21,-0.68 z"
     id="path82"
     sodipodi:nodetypes="cccccc" />
  <path
     fill="#094593"
     d="m 1537.3348,358.68958 0.1668,54.45711 H 763.69046 l 32.84,-54.52 z"
     id="path83"
     sodipodi:nodetypes="ccccc" />
  <path
     fill="#094593"
     d="m 736.31046,360.82669 c -0.007,0.25333 -0.0233,0.40333 -0.05,0.45 -10.49333,17.3 -20.91,34.65 -31.25,52.05 -0.0733,0.12666 -0.34,0.32 -0.8,0.58 l -704.20999823802,-0.02 v -53.4 z"
     id="path84"
     sodipodi:nodetypes="ccccccc" />
  <path
     fill="#ffffff"
     d="m 704.21046,413.90669 0.07,0.41 c 0.0128,0.0712 0.002,0.14184 -0.03,0.2 l -20.18,33.1 c -0.24197,0.39814 -0.67811,0.64086 -1.15,0.64 l -682.91999823802,-0.03 v -34.34 z"
     id="path86"
     sodipodi:nodetypes="cccccccc" />
</svg>
