<?xml version="1.0" encoding="UTF-8" standalone="no"?>
<!DOCTYPE svg PUBLIC "-//W3C//DTD SVG 1.1//EN" "http://www.w3.org/Graphics/SVG/1.1/DTD/svg11.dtd">
<svg xmlns="http://www.w3.org/2000/svg" version="1.1" viewBox="0.00 0.00 1536.00 1024.00">
<g stroke-width="2.00" fill="none" stroke-linecap="butt">
<path stroke="#8c9953" vector-effect="non-scaling-stroke" d="
  M 1467.71 380.18
  L 1463.79 380.19"
/>
<path stroke="#8c9953" vector-effect="non-scaling-stroke" d="
  M 1329.98 380.20
  L 1324.31 380.21"
/>
<path stroke="#8c9953" vector-effect="non-scaling-stroke" d="
  M 505.95 408.06
  L 490.37 442.43"
/>
<path stroke="#8c9953" vector-effect="non-scaling-stroke" d="
  M 445.81 441.95
  L 465.44 398.05"
/>
</g>
<path fill="#1b5b93" d="
  M 317.84 310.21
  A 0.28 0.27 -25.6 0 0 317.35 310.04
  Q 313.67 314.50 308.44 315.69
  C 298.35 317.99 285.73 315.40 282.28 304.51
  Q 280.70 299.52 280.67 291.75
  Q 280.62 273.35 280.72 248.75
  C 280.74 244.53 280.80 239.77 282.19 235.97
  C 285.13 227.90 291.29 224.13 299.83 223.16
  C 305.31 222.54 310.40 222.87 315.76 223.73
  Q 318.52 224.18 320.14 224.85
  C 333.72 230.49 332.57 243.77 332.35 256.10
  A 0.84 0.84 0.0 0 1 331.51 256.93
  L 311.87 256.93
  A 0.75 0.74 -0.0 0 1 311.12 256.19
  L 311.12 242.32
  A 4.16 4.16 0.0 0 0 306.50 238.18
  L 306.14 238.22
  A 4.72 4.72 0.0 0 0 301.99 242.87
  Q 301.91 257.19 301.98 291.77
  C 301.98 296.38 301.41 299.32 305.20 301.69
  A 1.22 1.19 -32.9 0 0 306.03 301.86
  Q 307.63 301.63 309.49 300.66
  A 1.44 1.43 87.6 0 0 310.15 299.94
  Q 311.24 297.21 311.32 294.49
  Q 311.59 284.85 311.72 282.67
  A 0.68 0.67 -88.4 0 0 311.05 281.95
  L 306.59 281.95
  A 0.51 0.50 0.0 0 1 306.08 281.45
  L 306.08 268.69
  A 0.63 0.63 0.0 0 1 306.71 268.06
  L 331.73 268.06
  A 0.66 0.66 0.0 0 1 332.39 268.72
  L 332.39 314.39
  A 0.55 0.54 -0.0 0 1 331.84 314.93
  L 318.93 314.93
  A 1.09 1.09 0.0 0 1 317.84 313.84
  L 317.84 310.21
  Z"
/>
<path fill="#1b5b93" d="
  M 702.1821 296.0954
  A 20.29 20.29 0.0 0 1 681.7861 316.2788
  L 670.5263 316.2199
  A 20.29 20.29 0.0 0 1 650.3428 295.8239
  L 650.6179 243.2846
  A 20.29 20.29 0.0 0 1 671.0139 223.1012
  L 682.2737 223.1601
  A 20.29 20.29 0.0 0 1 702.4572 243.5561
  L 702.1821 296.0954
  Z
  M 680.9227 242.7921
  A 4.45 4.45 0.0 0 0 676.4649 238.3499
  L 676.3049 238.3502
  A 4.45 4.45 0.0 0 0 671.8627 242.8079
  L 671.9573 297.0079
  A 4.45 4.45 0.0 0 0 676.4151 301.4501
  L 676.5751 301.4498
  A 4.45 4.45 0.0 0 0 681.0173 296.9921
  L 680.9227 242.7921
  Z"
/>
<path fill="#1b5b93" d="
  M 95.92 314.30
  L 95.92 224.37
  A 0.36 0.36 0.0 0 1 96.28 224.01
  Q 105.98 223.89 125.27 224.00
  Q 131.25 224.03 135.21 225.28
  C 148.34 229.41 147.25 241.31 147.11 253.26
  Q 147.01 260.63 144.72 264.41
  Q 141.68 269.43 135.32 270.64
  Q 134.74 270.75 134.87 271.36
  Q 134.94 271.71 135.39 271.74
  Q 144.51 272.34 146.87 281.37
  A 1.39 1.23 41.4 0 1 146.91 281.69
  L 147.06 314.39
  A 0.53 0.53 0.0 0 1 146.53 314.92
  L 127.03 314.92
  A 0.61 0.61 0.0 0 1 126.42 314.31
  Q 126.39 294.16 126.28 286.75
  C 126.19 280.56 124.89 278.11 118.29 277.95
  A 0.54 0.54 0.0 0 0 117.73 278.49
  L 117.73 314.47
  A 0.44 0.44 0.0 0 1 117.29 314.91
  L 96.54 314.91
  A 0.62 0.61 -0.0 0 1 95.92 314.30
  Z
  M 117.62 239.78
  L 117.80 265.20
  A 0.35 0.35 0.0 0 0 118.15 265.55
  L 120.52 265.53
  A 5.85 5.78 89.6 0 0 126.26 259.64
  L 126.16 245.22
  A 5.85 5.78 89.6 0 0 120.34 239.41
  L 117.97 239.43
  A 0.35 0.35 0.0 0 0 117.62 239.78
  Z"
/>
<path fill="#1b5b93" d="
  M 191.29 314.63
  L 188.78 299.17
  A 0.33 0.33 0.0 0 0 188.46 298.89
  L 176.70 298.89
  A 0.33 0.33 0.0 0 0 176.37 299.18
  L 174.27 314.63
  A 0.33 0.33 0.0 0 1 173.94 314.92
  L 154.61 314.92
  A 0.33 0.33 0.0 0 1 154.28 314.55
  L 166.57 224.24
  A 0.33 0.33 0.0 0 1 166.90 223.95
  L 197.58 223.95
  A 0.33 0.33 0.0 0 1 197.90 224.23
  L 212.51 314.53
  A 0.33 0.33 0.0 0 1 212.18 314.91
  L 191.61 314.91
  A 0.33 0.33 0.0 0 1 191.29 314.63
  Z
  M 182.91 285.08
  Q 185.32 285.06 187.67 285.19
  A 0.33 0.32 -2.5 0 0 188.01 284.83
  C 186.26 270.58 185.14 263.40 184.13 252.83
  Q 183.04 241.52 182.71 241.52
  Q 182.38 241.52 181.40 252.84
  C 180.49 263.42 179.44 270.61 177.82 284.88
  A 0.33 0.32 1.9 0 0 178.16 285.24
  Q 180.51 285.09 182.91 285.08
  Z"
/>
<path fill="#1b5b93" d="
  M 251.20 266.34
  Q 251.59 265.57 251.62 260.06
  Q 251.66 249.46 251.67 224.55
  A 0.59 0.59 0.0 0 1 252.26 223.96
  L 270.62 223.96
  A 0.33 0.33 0.0 0 1 270.95 224.29
  L 270.95 314.46
  A 0.46 0.46 0.0 0 1 270.49 314.92
  L 252.95 314.92
  A 0.70 0.69 82.3 0 1 252.28 314.40
  Q 245.14 286.36 240.84 268.74
  Q 240.29 266.47 239.33 265.02
  A 0.20 0.20 0.0 0 0 238.97 265.13
  L 238.97 314.41
  A 0.51 0.51 0.0 0 1 238.46 314.92
  L 219.40 314.92
  A 0.28 0.28 0.0 0 1 219.12 314.64
  L 219.12 224.58
  A 0.62 0.61 90.0 0 1 219.73 223.96
  L 240.08 223.96
  A 0.72 0.72 0.0 0 1 240.78 224.52
  L 250.83 266.30
  A 0.20 0.20 0.0 0 0 251.20 266.34
  Z"
/>
<path fill="#1b5b93" d="
  M 343.63 314.62
  L 343.63 224.24
  A 0.30 0.30 0.0 0 1 343.93 223.94
  L 384.66 223.94
  A 0.30 0.30 0.0 0 1 384.96 224.24
  L 384.96 240.65
  A 0.30 0.30 0.0 0 1 384.66 240.95
  L 364.74 240.95
  A 0.30 0.30 0.0 0 0 364.44 241.25
  L 364.44 259.75
  A 0.30 0.30 0.0 0 0 364.74 260.05
  L 379.68 260.05
  A 0.30 0.30 0.0 0 1 379.98 260.35
  L 379.98 275.53
  A 0.30 0.30 0.0 0 1 379.68 275.83
  L 364.73 275.83
  A 0.30 0.30 0.0 0 0 364.43 276.13
  L 364.43 298.84
  A 0.30 0.30 0.0 0 0 364.73 299.14
  L 384.65 299.14
  A 0.30 0.30 0.0 0 1 384.95 299.44
  L 384.95 314.62
  A 0.30 0.30 0.0 0 1 384.65 314.92
  L 343.93 314.92
  A 0.30 0.30 0.0 0 1 343.63 314.62
  Z"
/>
<path fill="#1b5b93" d="
  M 433.89 270.99
  A 0.34 0.34 0.0 0 0 434.00 271.63
  C 443.08 272.59 445.62 279.99 445.61 287.89
  Q 445.59 304.49 445.95 314.30
  A 0.59 0.59 0.0 0 1 445.36 314.91
  L 425.52 314.91
  A 0.70 0.70 0.0 0 1 424.82 314.15
  Q 424.93 312.83 424.54 311.71
  A 0.61 0.51 40.3 0 1 424.51 311.53
  L 424.12 283.15
  A 4.40 4.38 -80.2 0 0 421.28 279.11
  L 417.66 277.75
  A 1.73 1.72 10.3 0 0 415.32 279.36
  L 415.32 314.35
  A 0.57 0.56 90.0 0 1 414.76 314.92
  L 394.67 314.92
  A 0.62 0.61 -90.0 0 1 394.06 314.30
  L 394.06 224.51
  A 0.51 0.51 0.0 0 1 394.57 224.00
  L 425.20 224.05
  A 9.20 8.82 51.0 0 1 427.26 224.31
  Q 427.43 224.36 430.52 224.95
  Q 442.65 227.30 444.83 239.06
  Q 446.84 249.93 444.83 259.67
  Q 444.11 263.15 441.48 266.85
  A 3.32 3.26 4.4 0 1 440.22 267.91
  L 433.89 270.99
  Z
  M 415.38 239.99
  L 415.30 264.93
  A 0.39 0.39 0.0 0 0 415.69 265.33
  L 418.32 265.33
  A 6.24 6.02 -89.8 0 0 424.36 259.12
  L 424.40 245.88
  A 6.24 6.02 -89.8 0 0 418.40 239.61
  L 415.77 239.61
  A 0.39 0.39 0.0 0 0 415.38 239.99
  Z"
/>
<path fill="#1b5b93" d="
  M 511.07 314.62
  L 508.59 299.20
  A 0.35 0.35 0.0 0 0 508.24 298.91
  L 496.47 298.91
  A 0.35 0.35 0.0 0 0 496.13 299.21
  L 493.93 314.63
  A 0.35 0.35 0.0 0 1 493.59 314.93
  L 473.82 314.93
  A 0.35 0.35 0.0 0 1 473.48 314.53
  L 486.33 224.27
  A 0.35 0.35 0.0 0 1 486.67 223.97
  L 517.62 223.97
  A 0.35 0.35 0.0 0 1 517.97 224.26
  L 532.56 314.50
  A 0.35 0.35 0.0 0 1 532.22 314.91
  L 511.42 314.91
  A 0.35 0.35 0.0 0 1 511.07 314.62
  Z
  M 502.60 285.13
  Q 506.50 285.10 507.18 285.13
  A 0.73 0.72 -7.3 0 0 507.91 284.19
  Q 507.20 281.95 507.14 280.14
  Q 507.04 276.93 506.85 276.88
  Q 506.77 276.86 503.86 254.00
  Q 502.43 242.76 502.27 242.76
  Q 502.10 242.76 500.85 254.02
  Q 498.30 276.93 498.22 276.95
  Q 498.03 277.00 497.98 280.21
  Q 497.95 282.02 497.28 284.27
  A 0.73 0.72 6.4 0 0 498.02 285.21
  Q 498.70 285.16 502.60 285.13
  Z"
/>
<path fill="#1b5b93" d="
  M 562.83 301.88
  Q 567.01 301.88 567.02 295.24
  Q 567.07 253.91 566.94 224.54
  A 0.59 0.59 0.0 0 1 567.53 223.94
  L 587.95 223.94
  A 0.32 0.32 0.0 0 1 588.27 224.26
  Q 588.36 274.44 588.32 290.00
  C 588.30 296.39 588.04 303.47 584.49 308.12
  C 579.10 315.16 571.35 316.30 562.84 316.31
  C 554.33 316.32 546.57 315.19 541.18 308.15
  C 537.62 303.51 537.35 296.43 537.32 290.04
  Q 537.25 274.48 537.25 224.30
  A 0.32 0.32 0.0 0 1 537.57 223.98
  L 557.99 223.95
  A 0.59 0.59 0.0 0 1 558.58 224.55
  Q 558.50 253.92 558.63 295.25
  Q 558.65 301.89 562.83 301.88
  Z"
/>
<path fill="#1b5b93" d="
  M 594.74 240.51
  L 594.74 224.42
  A 0.44 0.44 0.0 0 1 595.18 223.98
  L 643.96 223.98
  A 0.44 0.44 0.0 0 1 644.40 224.42
  L 644.40 240.51
  A 0.44 0.44 0.0 0 1 643.96 240.95
  L 629.55 240.95
  A 0.44 0.44 0.0 0 0 629.11 241.39
  L 629.11 314.47
  A 0.44 0.44 0.0 0 1 628.67 314.91
  L 608.49 314.91
  A 0.44 0.44 0.0 0 1 608.05 314.47
  L 608.05 241.39
  A 0.44 0.44 0.0 0 0 607.61 240.95
  L 595.18 240.95
  A 0.44 0.44 0.0 0 1 594.74 240.51
  Z"
/>
<path fill="#fcd613" d="
  M 212.50 347.25
  L 211.84 345.33
  A 1.69 1.68 80.5 0 0 210.25 344.19
  L 209.09 344.19
  A 1.18 1.18 0.0 0 0 207.98 345.77
  Q 208.81 348.10 210.62 349.13
  C 215.70 352.02 219.20 354.22 219.35 360.75
  Q 219.44 365.01 215.96 367.53
  C 213.10 369.61 206.79 369.49 203.61 367.82
  C 201.56 366.75 200.63 363.13 200.50 361.10
  A 1.51 1.51 0.0 0 1 201.90 359.49
  L 205.82 359.20
  A 1.51 1.51 0.0 0 1 207.43 360.80
  Q 207.35 362.04 209.36 363.08
  A 1.35 1.34 51.4 0 0 210.32 363.19
  Q 212.33 362.69 212.08 360.22
  Q 211.96 358.99 209.65 357.36
  Q 208.79 356.76 206.11 355.16
  Q 199.60 351.29 201.04 344.11
  Q 201.92 339.74 207.13 338.59
  Q 218.47 336.09 219.41 346.91
  A 0.82 0.81 87.4 0 1 218.60 347.80
  L 213.26 347.80
  A 0.82 0.80 80.3 0 1 212.50 347.25
  Z"
/>
<path fill="#fcd613" d="
  M 110.81 353.02
  Q 114.49 354.55 114.77 359.00
  Q 115.15 364.81 110.44 367.75
  A 3.47 3.42 -61.9 0 1 108.77 368.27
  L 95.88 368.70
  A 0.49 0.48 88.9 0 1 95.38 368.21
  L 95.38 339.59
  A 0.75 0.75 0.0 0 1 96.12 338.84
  C 102.89 338.79 107.37 338.16 111.06 339.73
  A 2.41 2.35 80.4 0 1 111.98 340.40
  C 115.14 344.06 115.61 349.79 110.78 352.41
  A 0.34 0.34 0.0 0 0 110.81 353.02
  Z
  M 102.36 344.80
  L 102.36 349.96
  A 0.64 0.64 0.0 0 0 102.99 350.60
  L 103.94 350.60
  A 3.09 3.02 0.1 0 0 107.04 347.58
  L 107.04 347.18
  A 3.09 3.02 0.1 0 0 103.96 344.16
  L 103.01 344.16
  A 0.64 0.64 0.0 0 0 102.36 344.80
  Z
  M 102.33 356.52
  L 102.41 362.10
  A 0.89 0.89 0.0 0 0 103.32 362.97
  L 104.37 362.96
  A 3.00 2.87 -0.9 0 0 107.32 360.04
  L 107.30 358.42
  A 3.00 2.87 -0.9 0 0 104.25 355.60
  L 103.20 355.62
  A 0.89 0.89 0.0 0 0 102.33 356.52
  Z"
/>
<path fill="#fcd613" d="
  M 132.08 339.52
  A 0.66 0.66 0.0 0 1 132.74 338.86
  L 139.02 338.86
  A 0.58 0.58 0.0 0 1 139.60 339.45
  L 139.11 361.65
  A 5.29 5.20 -36.0 0 1 138.87 363.08
  Q 137.26 368.23 132.33 368.80
  C 128.18 369.29 123.24 369.33 121.26 365.09
  C 120.01 362.39 120.56 357.14 120.50 353.97
  Q 120.45 350.64 120.60 339.40
  A 0.55 0.55 0.0 0 1 121.15 338.86
  L 127.40 338.86
  A 0.60 0.59 0.0 0 1 128.00 339.45
  L 128.01 361.76
  A 1.62 1.61 -4.2 0 0 129.86 363.35
  L 130.11 363.33
  A 2.14 2.14 0.0 0 0 132.08 361.20
  L 132.08 339.52
  Z"
/>
<path fill="#fcd613" d="
  M 153.89 349.09
  A 0.45 0.44 30.3 0 0 154.66 348.89
  L 156.52 340.14
  A 1.68 1.67 -84.1 0 1 158.16 338.80
  L 163.20 338.80
  A 0.97 0.96 -79.7 0 1 164.10 340.11
  L 158.06 356.13
  A 2.72 2.59 56.7 0 0 157.89 357.07
  L 157.89 368.02
  A 0.61 0.61 0.0 0 1 157.28 368.63
  L 150.64 368.63
  A 0.48 0.48 0.0 0 1 150.16 368.16
  L 150.12 358.19
  A 1.28 1.10 40.8 0 0 150.07 357.85
  L 143.85 339.75
  A 0.68 0.68 0.0 0 1 144.49 338.85
  L 150.14 338.85
  A 0.90 0.88 -11.5 0 1 150.96 339.38
  Q 152.53 342.90 153.41 348.07
  Q 153.51 348.65 153.89 349.09
  Z"
/>
<path fill="#fcd613" d="
  M 232.48 350.45
  L 238.56 350.45
  A 0.48 0.48 0.0 0 1 239.04 350.93
  L 239.04 355.68
  A 0.48 0.48 0.0 0 1 238.56 356.16
  L 232.56 356.16
  A 0.48 0.48 0.0 0 0 232.08 356.64
  L 232.08 361.60
  A 0.48 0.48 0.0 0 0 232.56 362.08
  L 239.63 362.08
  A 0.48 0.48 0.0 0 1 240.11 362.56
  L 240.11 368.16
  A 0.48 0.48 0.0 0 1 239.63 368.64
  L 225.12 368.64
  A 0.48 0.48 0.0 0 1 224.64 368.16
  L 224.64 339.25
  A 0.48 0.48 0.0 0 1 225.12 338.77
  L 239.63 338.77
  A 0.48 0.48 0.0 0 1 240.11 339.25
  L 240.11 344.06
  A 0.48 0.48 0.0 0 1 239.63 344.54
  L 232.48 344.54
  A 0.48 0.48 0.0 0 0 232.00 345.02
  L 232.00 349.97
  A 0.48 0.48 0.0 0 0 232.48 350.45
  Z"
/>
<path fill="#fcd613" d="
  M 254.06 362.12
  L 260.66 362.12
  A 0.47 0.47 0.0 0 1 261.13 362.59
  L 261.13 368.20
  A 0.47 0.47 0.0 0 1 260.66 368.67
  L 246.40 368.67
  A 0.47 0.47 0.0 0 1 245.93 368.20
  L 245.93 339.23
  A 0.47 0.47 0.0 0 1 246.40 338.76
  L 253.12 338.76
  A 0.47 0.47 0.0 0 1 253.59 339.23
  L 253.59 361.65
  A 0.47 0.47 0.0 0 0 254.06 362.12
  Z"
/>
<path fill="#fcd613" d="
  M 266.04 338.82
  L 272.71 338.84
  A 0.45 0.44 89.4 0 1 273.16 339.28
  L 273.15 361.59
  A 0.56 0.56 0.0 0 0 273.74 362.15
  L 280.14 361.92
  A 0.65 0.65 0.0 0 1 280.80 362.55
  L 280.88 367.93
  A 0.62 0.61 89.4 0 1 280.28 368.56
  L 266.23 368.67
  A 0.63 0.62 89.4 0 1 265.60 368.04
  L 265.50 339.36
  A 0.55 0.55 0.0 0 1 266.04 338.82
  Z"
/>
<path fill="#fcd613" d="
  M 328.77 357.02
  L 328.77 368.21
  A 0.45 0.45 0.0 0 1 328.32 368.66
  L 321.62 368.66
  A 0.57 0.57 0.0 0 1 321.05 368.09
  L 321.05 339.39
  A 0.61 0.61 0.0 0 1 321.66 338.78
  L 334.42 338.81
  A 0.90 0.65 -27.3 0 1 334.68 338.85
  C 340.07 340.53 340.43 345.20 339.81 350.31
  Q 339.53 352.68 336.37 355.46
  A 0.68 0.66 58.9 0 0 336.19 356.22
  L 340.55 367.43
  A 0.90 0.90 0.0 0 1 339.71 368.66
  L 333.99 368.66
  A 1.72 1.71 -6.6 0 1 332.32 367.34
  L 329.80 356.89
  A 0.52 0.52 0.0 0 0 328.77 357.02
  Z
  M 328.61 344.52
  L 328.71 351.62
  A 0.44 0.44 0.0 0 0 329.16 352.05
  L 329.33 352.05
  A 3.85 3.81 -0.8 0 0 333.12 348.19
  L 333.12 347.83
  A 3.85 3.81 -0.8 0 0 329.21 344.07
  L 329.04 344.08
  A 0.44 0.44 0.0 0 0 328.61 344.52
  Z"
/>
<path fill="#fcd613" d="
  M 353.48 344.47
  A 0.64 0.63 0.1 0 0 352.83 345.11
  L 352.88 349.91
  A 0.59 0.59 0.0 0 0 353.48 350.49
  L 359.20 350.39
  A 0.59 0.59 0.0 0 1 359.81 350.97
  L 359.92 355.72
  A 0.43 0.42 -89.9 0 1 359.49 356.15
  L 353.48 356.11
  A 0.51 0.50 0.7 0 0 352.97 356.60
  L 352.86 361.66
  A 0.45 0.45 0.0 0 0 353.32 362.12
  L 360.25 361.96
  A 0.64 0.64 0.0 0 1 360.91 362.59
  L 360.94 367.98
  A 0.60 0.60 0.0 0 1 360.34 368.59
  L 346.26 368.59
  A 0.79 0.79 0.0 0 1 345.47 367.80
  L 345.53 339.25
  A 0.44 0.44 0.0 0 1 345.97 338.81
  L 360.50 338.78
  A 0.53 0.52 1.1 0 1 361.03 339.32
  L 360.88 343.97
  A 0.67 0.67 0.0 0 1 360.20 344.61
  L 353.48 344.47
  Z"
/>
<path fill="#fcd613" d="
  M 374.09 358.82
  L 374.09 368.43
  A 0.18 0.17 -90.0 0 1 373.92 368.61
  L 366.72 368.61
  A 0.23 0.23 0.0 0 1 366.49 368.38
  L 366.49 339.42
  A 0.69 0.68 0.4 0 1 367.19 338.74
  Q 373.66 338.83 377.49 338.80
  Q 383.23 338.77 384.77 343.94
  C 386.45 349.56 386.11 355.43 379.66 357.67
  Q 378.15 358.19 374.84 358.09
  A 0.73 0.73 0.0 0 0 374.09 358.82
  Z
  M 374.06 344.70
  L 374.12 352.52
  A 0.45 0.45 0.0 0 0 374.58 352.96
  L 374.93 352.96
  A 3.24 2.83 -0.5 0 0 378.14 350.10
  L 378.12 347.04
  A 3.24 2.83 -0.5 0 0 374.85 344.24
  L 374.50 344.24
  A 0.45 0.45 0.0 0 0 374.06 344.70
  Z"
/>
<path fill="#fcd613" d="
  M 394.77 338.80
  L 403.35 338.80
  A 0.47 0.47 0.0 0 1 403.81 339.17
  L 410.09 368.10
  A 0.47 0.47 0.0 0 1 409.63 368.67
  L 402.89 368.67
  A 0.47 0.47 0.0 0 1 402.43 368.30
  L 401.13 362.29
  A 0.47 0.47 0.0 0 0 400.67 361.92
  L 396.78 361.92
  A 0.47 0.47 0.0 0 0 396.31 362.33
  L 395.51 368.27
  A 0.47 0.47 0.0 0 1 395.04 368.68
  L 388.63 368.68
  A 0.47 0.47 0.0 0 1 388.17 368.11
  L 394.31 339.17
  A 0.47 0.47 0.0 0 1 394.77 338.80
  Z
  M 398.53 349.45
  L 396.96 356.85
  A 0.49 0.48 1.6 0 0 397.51 357.43
  L 399.52 357.10
  A 0.93 0.92 81.3 0 0 400.29 356.04
  L 399.22 349.46
  A 0.35 0.35 0.0 0 0 398.53 349.45
  Z"
/>
<rect fill="#fcd613" x="414.35" y="338.82" width="7.66" height="29.80" rx="0.50"/>
<path fill="#fcd613" d="
  M 448.82 368.43
  A 0.11 0.10 -9.7 0 1 448.72 368.57
  L 440.46 368.57
  A 0.44 0.43 83.2 0 1 440.04 368.23
  L 437.49 357.65
  A 1.13 1.12 3.5 0 0 436.79 356.86
  L 436.40 356.71
  A 0.42 0.42 0.0 0 0 435.83 357.10
  L 435.83 368.32
  A 0.36 0.36 0.0 0 1 435.47 368.68
  L 428.86 368.68
  A 0.29 0.28 -0.0 0 1 428.57 368.40
  L 428.57 339.42
  A 0.62 0.62 0.0 0 1 429.19 338.80
  Q 436.65 338.77 440.12 338.87
  C 444.09 338.97 446.54 340.53 447.44 344.49
  C 448.18 347.72 448.07 353.93 444.18 355.28
  A 0.45 0.44 70.0 0 0 443.92 355.86
  L 448.82 368.43
  Z
  M 435.86 344.75
  L 435.82 351.19
  A 0.67 0.67 0.0 0 0 436.48 351.87
  L 436.64 351.87
  A 3.75 3.73 -89.6 0 0 440.40 348.15
  L 440.40 347.87
  A 3.75 3.73 -89.6 0 0 436.70 344.09
  L 436.54 344.09
  A 0.67 0.67 0.0 0 0 435.86 344.75
  Z"
/>
<path fill="#fcd613" d="
  M 1536.00 344.02
  L 1536.00 380.21
  L 1467.71 380.18
  L 1463.79 380.19
  L 1329.98 380.20
  L 1324.31 380.21
  L 518.73 380.23
  A 0.78 0.76 11.5 0 0 518.02 380.69
  L 505.95 408.06
  L 490.37 442.43
  L 467.75 493.97
  A 1.52 1.52 0.0 0 1 466.36 494.88
  L 0.00 494.67
  L 0.00 462.82
  L 435.78 462.83
  A 1.49 1.48 -78.1 0 0 437.14 461.94
  L 445.81 441.95
  L 465.44 398.05
  L 488.35 345.16
  A 2.37 2.35 -78.1 0 1 490.51 343.74
  L 1536.00 344.02
  Z"
/>
<rect fill="#fcd613" x="-5.12" y="-3.27" transform="translate(180.20,359.70) rotate(0.4)" width="10.24" height="6.54" rx="0.47"/>
<rect fill="#fcd613" x="-5.10" y="-3.25" transform="translate(299.15,359.76) rotate(-0.5)" width="10.20" height="6.50" rx="0.26"/>
<path fill="#1b5b93" d="
  M 1329.98 380.20
  L 1324.31 380.21
  L 1329.98 380.20
  Z"
/>
<path fill="#1b5b93" d="
  M 1467.71 380.18
  L 1463.79 380.19
  L 1467.71 380.18
  Z"
/>
<path fill="#1b5b93" d="
  M 465.44 398.05
  L 445.81 441.95
  L 0.00 441.96
  L 0.00 398.06
  L 465.44 398.05
  Z"
/>
<path fill="#1b5b93" d="
  M 1536.00 408.07
  L 1536.00 442.82
  L 491.17 442.18
  A 0.94 0.19 -28.4 0 0 490.64 442.34
  Q 490.52 442.39 490.37 442.43
  L 505.95 408.06
  L 1536.00 408.07
  Z"
/>
</svg>
