<svg xmlns="http://www.w3.org/2000/svg" viewBox="0 0 6000 495.097"><path d="M-.004 495.094V0h6000.012v413.086H763.498l-49.32 81.358z" style="fill:#fff"/><g fill="none" stroke-width="2"><path stroke="#ffe880" d="m1536 277.447-748.52-.52a1.24 1.24 0 0 0-1.09.65q-1.86 3.5-3.84 6.78-42.84 70.95-43.61 72.15-.68 1.08-1.59 3.4a1.4 1.36-4.2 0 1-.61.69l-.43.23" vector-effect="non-scaling-stroke"/><path stroke="#84a2c9" d="M736.31 360.827 0 360.487M471.32 211.737l2.72 8.53a1.42 1.43-9 0 0 1.35.99h21.4a.85.85 0 0 0 .85-.85v-77.13a.46.45 0 0 0-.46-.45h-41.95a.61.61 0 0 0-.61.61v21.71a.57.58 0 0 0 .57.58h6.76a.5.49 0 0 1 .5.49q.03 5.81-.08 21.9c-.03 4.27-1.88 8.99-6.64 9.72-4.9.76-7.53-2.55-7.8-6.98-.63-10.4-.17-19.61-.18-30.67q-.07-43.86.09-53.1c.08-4.77 2.87-8.76 8.11-7.9q4.94.8 5.63 6.42.48 3.89.33 21.94a.57.57 0 0 0 .57.58h34.33a.64.65 1.4 0 0 .64-.62c.59-13.06.98-26.61-5.94-38.01-9.79-16.15-35.41-18.32-52.12-14.07q-16.46 4.18-23.31 17.68c-3.61 7.13-4.53 14.63-4.53 22.95q-.02 63.42-.03 67.5c-.01 18.53 6.33 34.75 25.98 39.21 12.71 2.89 25.62.18 32.86-11.16a.54.53-37.3 0 1 .96.13M1020.24 148.757q-.05 29.03-.11 33.55c-.33 27.42 15.05 41.68 42.18 41.73s42.56-14.15 42.33-41.57q-.04-4.52.02-33.55.05-29.04.11-33.56c.33-27.42-15.05-41.68-42.18-41.73s-42.56 14.15-42.33 41.57q.04 4.52-.02 33.56M135.7 157.397c6.78-.42 12.59 1.42 12.72 9.42q.39 22.82.19 40.49-.06 6.2 1.77 13.34a.78.79-7.1 0 0 .76.6h33.92a.5.5 0 0 0 .47-.66q-2-5.95-2.04-13.05-.11-21.28-.19-35.72c-.05-10.93-3.25-20.29-14.77-23.76q-1.07-.32-4.01-1.07a.44.44 0 0 1 .05-.87q15.68-2.13 17.94-17.8 1.32-9.2.51-21.82c-.54-8.33-2.99-15.55-8.25-21.17-7.42-7.92-21.29-9.43-31.52-9.47q-21.6-.07-43.3.07a.62.62 0 0 0-.61.62v144.37a.36.36 0 0 0 .36.36h34.51a.78.79 0 0 0 .78-.79v-62.34a.76.75-2 0 1 .71-.75M267.52 76.447a.62.62 0 0 0-.61-.53h-49.93a.62.62 0 0 0-.62.53l-20.41 144.12a.62.62 0 0 0 .61.71h34.82a.62.62 0 0 0 .61-.56l2.35-24.29a.62.62 0 0 1 .61-.56h15.58a.62.62 0 0 1 .61.55l2.82 24.29a.62.62 0 0 0 .61.55h34.6a.62.62 0 0 0 .61-.71l-22.26-144.1M336.42 144.717l23.28 75.77a1.09 1.1-8.7 0 0 1.04.77h33.21a.59.59 0 0 0 .59-.59V76.497a.6.6 0 0 0-.6-.6H363.1a.5.51 0 0 0-.5.51v71.5a.23.22 36.7 0 1-.44.06l-22.81-71.63a.65.66-9.3 0 0-.62-.45H304.7a.73.74 0 0 0-.73.74v143.97a.66.67 0 0 0 .66.67h30.54a.77.77 0 0 0 .77-.77v-75.71a.25.24 36.6 0 1 .48-.07M515.65 76.587v144.36a.29.29 0 0 0 .29.29h65.73a.61.61 0 0 0 .61-.61v-26.84a.54.53.6 0 0-.53-.53q-10.58-.04-25.5.07-3.16.02-4.1-.38a.84.82-79 0 1-.51-.77v-33.89a.24.25 0 0 1 .24-.25h23.25a.59.59 0 0 0 .59-.59v-24.83a.49.49 0 0 0-.49-.49h-22.39a1.21 1.21 0 0 1-1.21-1.21v-26.6a.54.54 0 0 1 .54-.54h28.7a.67.67 0 0 0 .67-.67v-26.74a.47.46 0 0 0-.47-.46h-64.74a.68.68 0 0 0-.68.68M633.67 157.397c6.77-.41 12.57 1.44 12.69 9.43q.37 22.79.15 40.45-.06 6.19 1.76 13.32a.78.79-7.1 0 0 .76.6l33.88.04a.5.5 0 0 0 .47-.66q-1.99-5.95-2.02-13.04-.09-21.26-.16-35.68c-.04-10.92-3.23-20.28-14.73-23.75q-1.07-.32-4-1.08a.44.44 0 0 1 .05-.87q15.66-2.11 17.93-17.76 1.33-9.19.53-21.8c-.53-8.32-2.97-15.53-8.22-21.15-7.4-7.92-21.26-9.44-31.47-9.49q-21.58-.09-43.26.03a.62.62 0 0 0-.61.61l-.14 144.22a.36.36 0 0 0 .36.36l34.48.04a.78.79.1 0 0 .78-.79l.06-62.28a.76.75-2 0 1 .71-.75M824.65 220.967q-1.12-10.37-2.45-17.62c-1.13-6.15-1.97-15.94-3.33-23.44-2.24-12.28-3.76-26.41-5.78-39.18q-5.87-37.1-9.79-64.48a.41.42-4 0 0-.41-.36l-50.66.01a.28.27 3.4 0 0-.28.24l-20.48 144.57a.52.51 4.3 0 0 .51.59h34.92a.85.85 0 0 0 .85-.77l2.32-24.06a.74.74 0 0 1 .74-.67h15.54a.45.45 0 0 1 .45.39l2.85 24.59a.56.56 0 0 0 .56.5h34.16a.28.27-3.6 0 0 .28-.31M877.96 223.887c11.68 0 24.46-2.56 32.76-11.09 7.6-7.81 9.56-18.11 9.56-28.49q-.03-58.79.02-108.04a.38.38 0 0 0-.38-.38h-35.14a.39.4 0 0 0-.39.4q-.08 82.9-.03 105.77 0 3.45-.2 9.23c-.13 3.75-2.28 6.71-6.2 6.71-3.91 0-6.06-2.96-6.19-6.72q-.2-5.77-.2-9.22.05-22.87-.01-105.77a.39.4 0 0 0-.39-.4l-35.14-.01a.38.38 0 0 0-.38.38q.04 49.25 0 108.04c0 10.38 1.96 20.68 9.56 28.5 8.29 8.53 21.08 11.09 32.75 11.09M972.03 221.207q8.67.01 17.66.11a.58.57.3 0 0 .59-.57v-116.56a.32.32 0 0 1 .32-.32h21.08a.51.51 0 0 0 .51-.51v-27.07a.3.29.4 0 0-.3-.29q-19.14-.09-39.68-.12-20.55-.02-39.69.02a.3.29-.3 0 0-.3.29l-.07 27.07a.51.51 0 0 0 .51.51l21.08.06a.32.32 0 0 1 .32.32l-.28 116.56a.58.57-.2 0 0 .58.57q9-.08 17.67-.07" vector-effect="non-scaling-stroke"/><path stroke="#ffe880" d="M288.94 290.577q.16 7.68.84 9.69c2.96 8.74 13.63 9.62 21.22 7.8q9.33-2.24 9.53-11.73c.13-6.25-.54-11.57-5.46-15.35q-5.64-4.35-11.58-8.55a2.63 2.76-.9 0 1-.68-.69c-1.29-1.88-2.3-6.32.08-7.82q1.33-.84 2.92.04a2.07 2.06-75.4 0 1 1.05 1.8v4.64a1.1 1.1 0 0 0 1.1 1.1h10.72a.99 1 2.2 0 0 .99-.92q.96-13.08-10.07-15.77c-2.95-.72-8.39-.55-11.2.34-8.57 2.72-9.52 8.65-9.23 16.44.31 8.19 8.22 12.28 14.5 16.38q4.54 2.97 4.02 8.79c-.35 3.93-5.65 4.11-5.94-.11q-.23-3.43-.12-5.94a.9.91 1.2 0 0-.9-.95h-11a.79.79 0 0 0-.79.81M99.32 255.807v51.25a.97.97 0 0 0 1.02.97q8.92-.43 15.56-.26c9.18.25 16.68-1.43 16.4-11.86-.19-7.19.37-14.68-7.96-15.44a.4.4 0 0 1-.11-.77c3.65-1.43 6.38-2.24 6.86-6.9q.31-3.08.04-7.21c-.5-7.5-7.28-10-13.88-10.15q-3.83-.08-17.63.06a.31.31 0 0 0-.3.31M158.4 308.777c7.65 0 14.96-2.85 15.88-11.48q.53-4.98.49-6.5-.53-22.16-.02-34.81a.57.57 0 0 0-.57-.59H162a.85.85 0 0 0-.85.85v40.54a2.15 2.12-34.5 0 1-.15.79q-.81 2-2.59 2-1.79 0-2.59-2a2.15 2.12 34.6 0 1-.16-.79l.06-40.54a.85.85 0 0 0-.85-.86l-12.18-.01a.57.57 0 0 0-.57.59q.49 12.65-.07 34.81-.04 1.52.48 6.5c.91 8.63 8.22 11.49 15.87 11.5M199.59 307.877q5.05 0 5.46-.01a.95.95 0 0 0 .92-.95v-17.97a5.73 5.57 54.7 0 1 .27-1.73l9.96-31.3a.34.34 0 0 0-.32-.44h-12.05a.5.5 0 0 0-.49.42q-.45 2.78-3.56 17.22-.06.29-.2.29t-.21-.29q-3.11-14.44-3.56-17.22a.5.5 0 0 0-.49-.42l-12.05.01a.34.34 0 0 0-.32.44l9.98 31.29a5.73 5.57-54.7 0 1 .27 1.73l.01 17.97a.95.95 0 0 0 .92.95q.41.01 5.46.01M343.94 275.907a.72.72 0 0 1-.72-.72v-9.17a.72.72 0 0 1 .72-.72h9.46a.72.72 0 0 0 .72-.72v-8.43a.72.72 0 0 0-.72-.72h-22.48a.72.72 0 0 0-.72.72v50.94a.72.72 0 0 0 .72.72h23.12a.72.72 0 0 0 .72-.72v-8.76a.72.72 0 0 0-.72-.72h-9.94a.72.72 0 0 1-.72-.72v-10.31a.72.72 0 0 1 .72-.72h8.19a.72.72 0 0 0 .72-.72v-8.51a.72.72 0 0 0-.72-.72h-8.35M395.73 307.067a.73.73 0 0 0 .73.73h20.94a.73.73 0 0 0 .73-.73v-8.65a.73.73 0 0 0-.73-.73h-7.82a.73.73 0 0 1-.73-.73v-40.77a.73.73 0 0 0-.73-.73h-11.66a.73.73 0 0 0-.73.73v50.88M514.6 281.307a.33.33 0 0 1 .03-.65c6.35-.68 7.01-7.03 7.09-12.37.15-10.17-6.91-12.64-15.48-12.91q-1.39-.05-15.38.14a.66.66 0 0 0-.65.66v51a.82.82 0 0 0 .82.82h11.41a.8.81 0 0 0 .8-.81v-21.16a1.77 1.76 15.7 0 1 2.69-1.5l.87.53a4.29 4.27-74.4 0 1 2.05 3.66v17.49a1.73 1.73 0 0 0 1.73 1.73h11.26a.63.64-5.9 0 0 .62-.77c-.3-1.46-.66-3.1-.62-4.77q.18-6.81-.7-14-.72-5.84-6.54-7.09M545.27 297.217v-10.4a1.05 1.05 0 0 1 1.05-1.05h8.2a.4.4 0 0 0 .4-.4v-8.92a.49.49 0 0 0-.49-.49h-8.18a.97.97 0 0 1-.97-.97v-8.81a.91.91 0 0 1 .91-.91h9.14a.73.73 0 0 0 .73-.73v-8.49a.6.6 0 0 0-.6-.6h-23.11a.63.63 0 0 0-.63.63c-.01 10.01.38 22.25-.17 34.32q-.22 4.71.05 8.36.42 5.83.3 8.37a.68.67 1.6 0 0 .68.71h23.68a.57.57 0 0 0 .57-.57v-8.63a.92.92 0 0 0-.92-.92h-10.14a.5.5 0 0 1-.5-.5M566.58 307.737h12.16a.54.55 0 0 0 .54-.55v-18.85a.67.66 3.1 0 1 .74-.66c7.97.92 16.79-1.24 17.09-10.99q.06-1.85-.01-10.01c-.06-7.94-7.02-11.08-14-11.23q-7.07-.15-16.96.05a.16.15-2 0 0-.15.15v51.5a.59.59 0 0 0 .59.59M620.81 255.507q-7.83.05-8.35.01a.65.65 0 0 0-.69.55l-8.29 50.89a.9.9 0 0 0 .89 1.04h11.43a1.12 1.13 2.8 0 0 1.12-1.02l.8-8.34a.86.86 0 0 1 .89-.78q.45.02 2.49.01 2.05-.02 2.5-.04a.86.86 0 0 1 .9.76l.91 8.33a1.12 1.13-3.6 0 0 1.14 1l11.43-.15a.9.9 0 0 0 .87-1.06l-9-50.77a.65.65 0 0 0-.7-.54q-.52.05-8.34.11M660.38 256.307a.87.87 0 0 0-.87-.87h-11.62a.87.87 0 0 0-.87.87v50.64a.87.87 0 0 0 .87.87h11.62a.87.87 0 0 0 .87-.87v-50.64M696.14 281.447a.56.55-41.9 0 1 .06-1.1c6.63-.47 6.74-6.71 6.77-12.79.05-8.29-4.53-11.25-11.93-11.9-6.26-.56-13.57-.11-19.11-.15a.55.55 0 0 0-.56.58q.46 9.44-.32 18.12c-.73 8.01-.18 15.19.26 22.85q.32 5.72-.15 9.77a.91.91 0 0 0 .9 1.02h11.82a.57.56 0 0 0 .57-.56v-21.49a1.6 1.6 0 0 1 2.08-1.53l1.24.39a3.59 3.58-78.7 0 1 2.48 3.73q-.85 9.94.41 18.62a1.08 1.07-4 0 0 1.07.92h11.62a.6.59-9.1 0 0 .57-.78q-.6-1.85-.73-3.58-.35-4.56-.44-14.01-.07-6.92-6.61-8.11M386.76 306.917l.05-8.33a.82.82 0 0 0-.81-.82l-7.62-.15a.91.9 1 0 1-.88-.91l.11-40.46a.76.76 0 0 0-.77-.75l-11.8.18a.6.6 0 0 0-.6.59l.06 51.06a.42.42 0 0 0 .42.4l20.96.05a.88.87 0 0 0 .88-.86M260.94 282.927a8.68 8.68 0 0 0-8.68-8.68 8.68 8.68 0 0 0-8.68 8.68 8.68 8.68 0 0 0 8.68 8.68 8.68 8.68 0 0 0 8.68-8.68M462.22 282.897a8.74 8.74 0 0 0-8.74-8.74 8.74 8.74 0 0 0-8.74 8.74 8.74 8.74 0 0 0 8.74 8.74 8.74 8.74 0 0 0 8.74-8.74" vector-effect="non-scaling-stroke"/><path stroke="#84a2c9" d="M1055.84 148.567q-.02 31.35.02 40.49c.02 4.28 1.23 9.03 6.49 9.04 5.27 0 6.48-4.75 6.5-9.04q.05-9.13.06-40.48.02-31.36-.02-40.49c-.02-4.29-1.22-9.04-6.49-9.04-5.26-.01-6.47 4.75-6.5 9.03q-.05 9.14-.06 40.49M134.99 101.727l.16 31.38a.68.68 0 0 0 .69.67l4.36-.02a8.6 8.79-.3 0 0 8.55-8.84l-.08-15.16a8.6 8.79-.3 0 0-8.65-8.74l-4.36.02a.68.68 0 0 0-.67.69M242.64 170.727q3.02 0 5.99-.09a.53.53 0 0 0 .51-.59q-3.33-33.36-6.25-63.01-.12-1.22-.44-1.22-.28.01-.4 1.22-2.76 29.67-5.91 63.05a.53.53 0 0 0 .52.58q2.97.07 5.98.06M632.67 101.527l.22 32.1a.26.26 0 0 0 .26.26l4.55-.04a8.99 8.83-.4 0 0 8.93-8.89l-.1-14.96a8.99 8.83-.4 0 0-9.05-8.77l-4.55.04a.26.26 0 0 0-.26.26M778.39 170.757q3.04 0 6.03-.09a.53.54-3.6 0 0 .52-.59q-3.31-33.62-6.22-63.5-.12-1.22-.44-1.22-.29 0-.4 1.22-2.82 29.89-6.03 63.52a.53.54 3.5 0 0 .51.59q2.99.07 6.03.07" vector-effect="non-scaling-stroke"/><path stroke="#ffe880" d="m112.87 264.777.02 11.36a.5.5 0 0 0 .5.5h1.41a3.67 3.35-.1 0 0 3.66-3.35v-5.66a3.67 3.35-.1 0 0-3.68-3.35h-1.41a.5.5 0 0 0-.5.5M112.77 284.517l.24 13.76a.32.32 0 0 0 .33.31l1.75-.03a3.75 3.56-1 0 0 3.68-3.62l-.12-7.28a3.75 3.56-1 0 0-3.82-3.49l-1.75.03a.32.32 0 0 0-.31.32M503.15 264.847l.27 11.1a.69.69 0 0 0 .7.67l1.59-.04a3.58 3.79-1.4 0 0 3.49-3.87l-.12-4.9a3.58 3.79-1.4 0 0-3.67-3.7l-1.59.04a.69.69 0 0 0-.67.7M579.12 264.967l.12 13.45a.67.67 0 0 0 .67.67l2.03-.02a3.06 3.04-.5 0 0 3.04-3.07l-.08-8.71a3.06 3.04-.5 0 0-3.08-3.02l-2.03.02a.67.67 0 0 0-.67.68M620.76 267.667a.3.3 0 0 0-.32.27l-1.96 20.38a.87.87 0 0 0 .97.95l2.74-.31a1.04 1.05-6 0 0 .91-1.13l-1.86-19.99a.14.14 0 0 0-.13-.13l-.35-.04M684.48 264.867l.26 11.24a.49.49 0 0 0 .5.48l1.19-.03a3.78 3.16-1.3 0 0 3.71-3.24l-.14-5.9a3.78 3.16-1.3 0 0-3.85-3.07l-1.19.02a.49.49 0 0 0-.48.5M1536 323.517l-717.45-.29a1.42 1.41 15.4 0 0-1.21.68l-20.81 34.72" vector-effect="non-scaling-stroke"/><path stroke="#848b4a" d="m796.53 358.627-32.84 54.52" vector-effect="non-scaling-stroke"/><path stroke="#ffe880" d="m763.69 413.147-48.06 80.12a1.7 1.69 15.2 0 1-1.46.83L0 494.057" vector-effect="non-scaling-stroke"/><path stroke="#ffe880" d="m0 448.227 682.92.03a1.35 1.33 15.4 0 0 1.15-.64l20.18-33.1a.32.28 57.2 0 0 .03-.2l-.07-.41" vector-effect="non-scaling-stroke"/><path stroke="#848b4a" d="M704.21 413.907q.69-.39.8-.58 15.51-26.1 31.25-52.05.04-.07.05-.45" vector-effect="non-scaling-stroke"/><path stroke="#84a2c9" d="m1536 358.647-739.47-.02M1536 413.147H763.69M704.21 413.907 0 413.887" vector-effect="non-scaling-stroke"/></g><path fill="#094593" d="M471.32 211.737c-.127-.432-.706-.51-.96-.13-7.24 11.34-20.15 14.05-32.86 11.16-19.65-4.46-25.99-20.68-25.98-39.21q.01-4.08.03-67.5c0-8.32.92-15.82 4.53-22.95q6.85-13.5 23.31-17.68c16.71-4.25 42.33-2.08 52.12 14.07 6.92 11.4 6.53 24.95 5.94 38.01a.645.645 0 0 1-.64.62h-34.33a.57.57 0 0 1-.57-.58q.15-18.05-.33-21.94-.69-5.62-5.63-6.42c-5.24-.86-8.03 3.13-8.11 7.9q-.159 9.24-.09 53.1c.01 11.06-.45 20.27.18 30.67.27 4.43 2.9 7.74 7.8 6.98 4.76-.73 6.61-5.45 6.64-9.72q.11-16.09.08-21.9c0-.27-.223-.49-.5-.49h-6.76a.575.575 0 0 1-.57-.58v-21.71a.61.61 0 0 1 .61-.61h41.95c.255 0 .46.201.46.45v77.13c0 .47-.38.85-.85.85h-21.4a1.43 1.43 0 0 1-1.35-.99zM1062.59 73.627c27.13.05 42.51 14.31 42.18 41.73q-.06 4.52-.11 33.56-.06 29.03-.02 33.55c.23 27.42-15.2 41.62-42.33 41.57s-42.51-14.31-42.18-41.73q.061-4.52.11-33.55.061-29.04.02-33.56c-.23-27.42 15.2-41.62 42.33-41.57m-6.75 74.94c-.012 20.9-.01 34.396.02 40.49.02 4.28 1.23 9.03 6.49 9.04 5.27 0 6.48-4.75 6.5-9.04q.051-9.13.06-40.48c.013-20.907.01-34.404-.02-40.49-.02-4.29-1.22-9.04-6.49-9.04-5.26-.01-6.47 4.75-6.5 9.03q-.05 9.14-.06 40.49M134.99 158.147v62.34c0 .436-.349.79-.78.79H99.7a.36.36 0 0 1-.36-.36V76.547a.62.62 0 0 1 .61-.62q21.7-.14 43.3-.07c10.23.04 24.1 1.55 31.52 9.47 5.26 5.62 7.71 12.84 8.25 21.17q.81 12.62-.51 21.82-2.259 15.67-17.94 17.8c-.508.042-.55.77-.05.87q2.94.75 4.01 1.07c11.52 3.47 14.72 12.83 14.77 23.76q.08 14.44.19 35.72.04 7.1 2.04 13.05a.5.5 0 0 1-.47.66h-33.92a.785.785 0 0 1-.76-.6q-1.83-7.14-1.77-13.34.2-17.67-.19-40.49c-.13-8-5.94-9.84-12.72-9.42a.755.755 0 0 0-.71.75m0-56.42.16 31.38a.68.68 0 0 0 .69.67l4.36-.02c4.75-.027 8.579-3.985 8.55-8.84l-.08-15.16c-.028-4.855-3.9-8.768-8.65-8.74l-4.36.02a.68.68 0 0 0-.67.69M267.52 76.447l22.26 144.1a.62.62 0 0 1-.61.71h-34.6a.62.62 0 0 1-.61-.55l-2.82-24.29a.62.62 0 0 0-.61-.55h-15.58a.62.62 0 0 0-.61.56l-2.35 24.29a.62.62 0 0 1-.61.56h-34.82a.62.62 0 0 1-.61-.71l20.41-144.12a.62.62 0 0 1 .62-.53h49.93a.62.62 0 0 1 .61.53m-24.88 94.28q3.02 0 5.99-.09a.53.53 0 0 0 .51-.59 47925 47925 0 0 1-6.25-63.01q-.12-1.22-.44-1.22-.28.01-.4 1.22-2.76 29.67-5.91 63.05a.53.53 0 0 0 .52.58q2.97.069 5.98.06M336.42 144.717c-.09-.272-.493-.213-.48.07v75.71a.77.77 0 0 1-.77.77h-30.54c-.364 0-.66-.3-.66-.67V76.627c0-.409.327-.74.73-.74h34.03c.28 0 .53.18.62.45l22.81 71.63c.086.242.445.193.44-.06v-71.5c0-.282.224-.51.5-.51h30.84a.6.6 0 0 1 .6.6v144.17a.59.59 0 0 1-.59.59h-33.21c-.475-.001-.896-.313-1.04-.77zM516.33 75.907h64.74c.26 0 .47.206.47.46v26.74c0 .37-.3.67-.67.67h-28.7a.54.54 0 0 0-.54.54v26.6c0 .668.542 1.21 1.21 1.21h22.39c.271 0 .49.22.49.49v24.83a.59.59 0 0 1-.59.59h-23.25a.245.245 0 0 0-.24.25v33.89c.001.34.203.644.51.77q.94.4 4.1.38 14.92-.11 25.5-.07c.295.005.53.24.53.53v26.84a.61.61 0 0 1-.61.61h-65.73a.29.29 0 0 1-.29-.29V76.587a.68.68 0 0 1 .68-.68M633.67 157.397a.755.755 0 0 0-.71.75l-.06 62.28c0 .436-.349.79-.78.79l-34.48-.04a.36.36 0 0 1-.36-.36l.14-144.22a.62.62 0 0 1 .61-.61q21.681-.12 43.26-.03c10.21.05 24.07 1.57 31.47 9.49 5.25 5.62 7.69 12.83 8.22 21.15q.8 12.61-.53 21.8-2.27 15.65-17.93 17.76c-.508.042-.55.77-.05.87q2.93.759 4 1.08c11.5 3.47 14.69 12.83 14.73 23.75q.07 14.42.16 35.68.03 7.09 2.02 13.04a.5.5 0 0 1-.47.66l-33.88-.04a.785.785 0 0 1-.76-.6q-1.82-7.131-1.76-13.32.22-17.66-.15-40.45c-.12-7.99-5.92-9.84-12.69-9.43m-1-55.87.22 32.1c0 .143.117.26.26.26l4.55-.04c4.965-.034 8.963-4.014 8.93-8.89l-.1-14.96c-.032-4.877-4.084-8.804-9.05-8.77l-4.55.04a.26.26 0 0 0-.26.26M824.65 220.967a.275.275 0 0 1-.28.31h-34.16a.56.56 0 0 1-.56-.5l-2.85-24.59a.45.45 0 0 0-.45-.39h-15.54a.74.74 0 0 0-.74.67l-2.32 24.06a.85.85 0 0 1-.85.77h-34.92a.515.515 0 0 1-.51-.59l20.48-144.57a.275.275 0 0 1 .28-.24l50.66-.01a.414.414 0 0 1 .41.36q3.92 27.38 9.79 64.48c2.02 12.77 3.54 26.9 5.78 39.18 1.36 7.5 2.2 17.29 3.33 23.44q1.33 7.25 2.45 17.62m-46.26-50.21q3.04 0 6.03-.09a.535.535 0 0 0 .52-.59q-3.31-33.62-6.22-63.5-.12-1.22-.44-1.22-.29 0-.4 1.22-2.82 29.89-6.03 63.52c-.029.31.205.58.51.59q2.991.07 6.03.07M877.96 197.997c3.92 0 6.07-2.96 6.2-6.71q.2-5.78.2-9.23-.05-22.87.03-105.77c0-.221.175-.4.39-.4h35.14c.21 0 .38.17.38.38q-.05 49.25-.02 108.04c0 10.38-1.96 20.68-9.56 28.49-8.3 8.53-21.08 11.09-32.76 11.09-11.67 0-24.46-2.56-32.75-11.09-7.6-7.82-9.56-18.12-9.56-28.5q.04-58.79 0-108.04c0-.21.17-.38.38-.38l35.14.01c.216 0 .39.179.39.4q.06 82.9.01 105.77 0 3.45.2 9.22c.13 3.76 2.28 6.72 6.19 6.72M972.21 75.877q20.54.03 39.68.12c.166 0 .3.13.3.29v27.07a.51.51 0 0 1-.51.51H990.6a.32.32 0 0 0-.32.32v116.56a.575.575 0 0 1-.59.57q-8.99-.1-17.66-.11t-17.67.07a.575.575 0 0 1-.58-.57l.28-116.56a.32.32 0 0 0-.32-.32l-21.08-.06a.51.51 0 0 1-.51-.51l.07-27.07c0-.16.135-.29.3-.29q19.14-.04 39.69-.02"/><path fill="#ffd000" d="M289.73 289.767h11c.514-.001.923.431.9.95q-.11 2.51.12 5.94c.29 4.22 5.59 4.04 5.94.11q.52-5.82-4.02-8.79c-6.28-4.1-14.19-8.19-14.5-16.38-.29-7.79.66-13.72 9.23-16.44 2.81-.89 8.25-1.06 11.2-.34q11.03 2.69 10.07 15.77a.995.995 0 0 1-.99.92h-10.72a1.1 1.1 0 0 1-1.1-1.1v-4.64c0-.747-.401-1.435-1.05-1.8q-1.59-.88-2.92-.04c-2.38 1.5-1.37 5.94-.08 7.82.186.27.416.505.68.69q5.94 4.2 11.58 8.55c4.92 3.78 5.59 9.1 5.46 15.35q-.2 9.489-9.53 11.73c-7.59 1.82-18.26.94-21.22-7.8q-.68-2.01-.84-9.69a.79.79 0 0 1 .79-.81M99.32 255.807a.31.31 0 0 1 .3-.31q13.8-.141 17.63-.06c6.6.15 13.38 2.65 13.88 10.15q.27 4.13-.04 7.21c-.48 4.66-3.21 5.47-6.86 6.9-.39.155-.308.73.11.77 8.33.76 7.77 8.25 7.96 15.44.28 10.43-7.22 12.11-16.4 11.86q-6.64-.17-15.56.26a.97.97 0 0 1-1.02-.97zm13.55 8.97.02 11.36a.5.5 0 0 0 .5.5h1.41c2.023-.006 3.66-1.504 3.66-3.35v-5.66c.001-1.854-1.648-3.356-3.68-3.35h-1.41a.5.5 0 0 0-.5.5m-.1 19.74.24 13.76a.32.32 0 0 0 .33.31l1.75-.03c2.066-.04 3.712-1.659 3.68-3.62l-.12-7.28c-.036-1.968-1.747-3.53-3.82-3.49l-1.75.03a.32.32 0 0 0-.31.32M158.41 299.577q1.78 0 2.59-2c.1-.252.151-.52.15-.79v-40.54c0-.47.381-.85.85-.85h12.18a.57.57 0 0 1 .57.59q-.51 12.65.02 34.81.04 1.52-.49 6.5c-.92 8.63-8.23 11.48-15.88 11.48-7.65-.01-14.96-2.87-15.87-11.5q-.519-4.98-.48-6.5.56-22.16.07-34.81a.57.57 0 0 1 .57-.59l12.18.01a.85.85 0 0 1 .85.86l-.06 40.54c.003.27.057.538.16.79q.8 2 2.59 2M199.58 273.407q.14 0 .2-.29 3.11-14.44 3.56-17.22a.5.5 0 0 1 .49-.42h12.05a.34.34 0 0 1 .32.44l-9.96 31.3a5.7 5.7 0 0 0-.27 1.73v17.97a.95.95 0 0 1-.92.95q-.41.01-5.46.01t-5.46-.01a.95.95 0 0 1-.92-.95l-.01-17.97c0-.59-.09-1.174-.27-1.73l-9.98-31.29a.34.34 0 0 1 .32-.44l12.05-.01a.5.5 0 0 1 .49.42q.45 2.78 3.56 17.22.07.29.21.29M343.94 275.907h8.35a.72.72 0 0 1 .72.72v8.51a.72.72 0 0 1-.72.72h-8.19a.72.72 0 0 0-.72.72v10.31c0 .397.323.72.72.72h9.94a.72.72 0 0 1 .72.72v8.76a.72.72 0 0 1-.72.72h-23.12a.72.72 0 0 1-.72-.72v-50.94a.72.72 0 0 1 .72-.72h22.48a.72.72 0 0 1 .72.72v8.43a.72.72 0 0 1-.72.72h-9.46a.72.72 0 0 0-.72.72v9.17c0 .397.323.72.72.72M395.73 307.067v-50.88a.73.73 0 0 1 .73-.73h11.66a.73.73 0 0 1 .73.73v40.77c0 .403.327.73.73.73h7.82a.73.73 0 0 1 .73.73v8.65a.73.73 0 0 1-.73.73h-20.94a.73.73 0 0 1-.73-.73M514.6 281.307q5.82 1.25 6.54 7.09.88 7.19.7 14c-.04 1.67.32 3.31.62 4.77a.635.635 0 0 1-.62.77h-11.26a1.73 1.73 0 0 1-1.73-1.73v-17.49a4.28 4.28 0 0 0-2.05-3.66l-.87-.53c-1.18-.72-2.693.124-2.69 1.5v21.16c0 .447-.358.81-.8.81h-11.41a.82.82 0 0 1-.82-.82v-51c0-.361.29-.655.65-.66q13.99-.19 15.38-.14c8.57.27 15.63 2.74 15.48 12.91-.08 5.34-.74 11.69-7.09 12.37-.368.045-.393.57-.03.65m-11.45-16.46.27 11.1a.69.69 0 0 0 .7.67l1.59-.04c1.976-.047 3.538-1.779 3.49-3.87l-.12-4.9c-.051-2.092-1.694-3.748-3.67-3.7l-1.59.04a.69.69 0 0 0-.67.7M545.27 297.217a.5.5 0 0 0 .5.5h10.14a.92.92 0 0 1 .92.92v8.63a.57.57 0 0 1-.57.57h-23.68a.675.675 0 0 1-.68-.71q.12-2.541-.3-8.37-.27-3.65-.05-8.36c.55-12.07.16-24.31.17-34.32a.63.63 0 0 1 .63-.63h23.11a.6.6 0 0 1 .6.6v8.49a.73.73 0 0 1-.73.73h-9.14a.91.91 0 0 0-.91.91v8.81c0 .535.435.97.97.97h8.18c.271 0 .49.22.49.49v8.92a.4.4 0 0 1-.4.4h-8.2c-.58 0-1.05.47-1.05 1.05zM566.58 307.737a.59.59 0 0 1-.59-.59v-51.5c0-.08.066-.145.15-.15q9.89-.2 16.96-.05c6.98.15 13.94 3.29 14 11.23q.07 8.16.01 10.01c-.3 9.75-9.12 11.91-17.09 10.99a.665.665 0 0 0-.74.66v18.85c0 .303-.241.55-.54.55zm12.54-42.77.12 13.45c0 .37.3.67.67.67l2.03-.02a3.05 3.05 0 0 0 3.04-3.07l-.08-8.71a3.05 3.05 0 0 0-3.08-3.02l-2.03.02a.67.67 0 0 0-.67.68M621.1 297.867q-2.04.01-2.49-.01a.86.86 0 0 0-.89.78l-.8 8.34a1.125 1.125 0 0 1-1.12 1.02h-11.43a.9.9 0 0 1-.89-1.04l8.29-50.89a.65.65 0 0 1 .69-.55q.52.04 8.35-.01 7.821-.06 8.34-.11a.65.65 0 0 1 .7.54l9 50.77a.9.9 0 0 1-.87 1.06l-11.43.15a1.125 1.125 0 0 1-1.14-1l-.91-8.33a.86.86 0 0 0-.9-.76q-.45.02-2.5.04m-.34-30.2a.3.3 0 0 0-.32.27l-1.96 20.38a.87.87 0 0 0 .97.95l2.74-.31c.556-.068.958-.567.91-1.13l-1.86-19.99a.14.14 0 0 0-.13-.13z"/><rect width="13.36" height="52.38" x="647.021" y="255.437" fill="#ffd000" rx=".87"/><path fill="#ffd000" d="M696.14 281.447q6.54 1.19 6.61 8.11.09 9.45.44 14.01.13 1.73.73 3.58a.595.595 0 0 1-.57.78h-11.62a1.075 1.075 0 0 1-1.07-.92q-1.26-8.68-.41-18.62a3.585 3.585 0 0 0-2.48-3.73l-1.24-.39a1.6 1.6 0 0 0-2.08 1.53v21.49c0 .309-.255.56-.57.56h-11.82a.91.91 0 0 1-.9-1.02q.471-4.05.15-9.77c-.44-7.66-.99-14.84-.26-22.85q.78-8.68.32-18.12a.55.55 0 0 1 .56-.58c5.54.04 12.85-.41 19.11.15 7.4.65 11.98 3.61 11.93 11.9-.03 6.08-.14 12.32-6.77 12.79-.654.055-.705.996-.06 1.1m-11.66-16.58.26 11.24a.49.49 0 0 0 .5.48l1.19-.03c2.086-.047 3.747-1.497 3.71-3.24l-.14-5.9c-.041-1.743-1.764-3.117-3.85-3.07l-1.19.02a.49.49 0 0 0-.48.5M386.76 306.917a.875.875 0 0 1-.88.86l-20.96-.05a.42.42 0 0 1-.42-.4l-.06-51.06a.6.6 0 0 1 .6-.59l11.8-.18a.76.76 0 0 1 .77.75l-.11 40.46a.905.905 0 0 0 .88.91l7.62.15a.82.82 0 0 1 .81.82z"/><circle cx="252.26" cy="282.927" r="8.68" fill="#ffd000"/><circle cx="453.48" cy="282.897" r="8.74" fill="#ffd000"/><path fill="#ffd000" d="m6000.155 276.916-.088 46.777-5181.516-.466c-.496 0-.955.258-1.21.68l-20.81 34.72-32.84 54.52-48.06 80.12c-.304.514-2.25 2.238-2.344 1.89l-713.286-.04v-46.89l682.92.03a1.34 1.34 0 0 0 1.15-.64l20.18-33.1a.3.3 0 0 0 .03-.2l-.07-.41q.69-.39.8-.58 15.51-26.1 31.25-52.05.04-.07.05-.45l.43-.23c.278-.156.493-.4.61-.69q.909-2.32 1.59-3.4.77-1.2 43.61-72.15a143 143 0 0 0 3.84-6.78c.216-.4.634-.65 1.09-.65z"/><path fill="#094593" d="m6000.163 358.69.167 54.457H763.69l32.84-54.52zM736.31 360.827q-.01.38-.05.45a6716 6716 0 0 0-31.25 52.05q-.11.19-.8.58L0 413.887v-53.4z"/></svg>