<svg xmlns="http://www.w3.org/2000/svg" viewBox="90 250 620 65" fill="none">
  <path
    fill="#ffd000"
    d="M289.73 289.767h11c.514-.001.923.431.9.95q-.11 2.51.12 5.94c.29 4.22 5.59 4.04 5.94.11q.52-5.82-4.02-8.79c-6.28-4.1-14.19-8.19-14.5-16.38-.29-7.79.66-13.72 9.23-16.44 2.81-.89 8.25-1.06 11.2-.34q11.03 2.69 10.07 15.77a.995.995 0 0 1-.99.92h-10.72a1.1 1.1 0 0 1-1.1-1.1v-4.64c0-.747-.401-1.435-1.05-1.8q-1.59-.88-2.92-.04c-2.38 1.5-1.37 5.94-.08 7.82.186.27.416.505.68.69q5.94 4.2 11.58 8.55c4.92 3.78 5.59 9.1 5.46 15.35q-.2 9.489-9.53 11.73c-7.59 1.82-18.26.94-21.22-7.8q-.68-2.01-.84-9.69a.79.79 0 0 1 .79-.81M99.32 255.807a.31.31 0 0 1 .3-.31q13.8-.141 17.63-.06c6.6.15 13.38 2.65 13.88 10.15q.27 4.13-.04 7.21c-.48 4.66-3.21 5.47-6.86 6.9-.39.155-.308.73.11.77 8.33.76 7.77 8.25 7.96 15.44.28 10.43-7.22 12.11-16.4 11.86q-6.64-.17-15.56.26a.97.97 0 0 1-1.02-.97zm13.55 8.97.02 11.36a.5.5 0 0 0 .5.5h1.41c2.023-.006 3.66-1.504 3.66-3.35v-5.66c.001-1.854-1.648-3.356-3.68-3.35h-1.41a.5.5 0 0 0-.5.5m-.1 19.74.24 13.76a.32.32 0 0 0 .33.31l1.75-.03c2.066-.04 3.712-1.659 3.68-3.62l-.12-7.28c-.036-1.968-1.747-3.53-3.82-3.49l-1.75.03a.32.32 0 0 0-.31.32M158.41 299.577q1.78 0 2.59-2c.1-.252.151-.52.15-.79v-40.54c0-.47.381-.85.85-.85h12.18a.57.57 0 0 1 .57.59q-.51 12.65.02 34.81.04 1.52-.49 6.5c-.92 8.63-8.23 11.48-15.88 11.48-7.65-.01-14.96-2.87-15.87-11.5q-.519-4.98-.48-6.5.56-22.16.07-34.81a.57.57 0 0 1 .57-.59l12.18.01a.85.85 0 0 1 .85.86l-.06 40.54c.003.27.057.538.16.79q.8 2 2.59 2M199.58 273.407q.14 0 .2-.29 3.11-14.44 3.56-17.22a.5.5 0 0 1 .49-.42h12.05a.34.34 0 0 1 .32.44l-9.96 31.3a5.7 5.7 0 0 0-.27 1.73v17.97a.95.95 0 0 1-.92.95q-.41.01-5.46.01t-5.46-.01a.95.95 0 0 1-.92-.95l-.01-17.97c0-.59-.09-1.174-.27-1.73l-9.98-31.29a.34.34 0 0 1 .32-.44l12.05-.01a.5.5 0 0 1 .49.42q.45 2.78 3.56 17.22.07.29.21.29M343.94 275.907h8.35a.72.72 0 0 1 .72.72v8.51a.72.72 0 0 1-.72.72h-8.19a.72.72 0 0 0-.72.72v10.31c0 .397.323.72.72.72h9.94a.72.72 0 0 1 .72.72v8.76a.72.72 0 0 1-.72.72h-23.12a.72.72 0 0 1-.72-.72v-50.94a.72.72 0 0 1 .72-.72h22.48a.72.72 0 0 1 .72.72v8.43a.72.72 0 0 1-.72.72h-9.46a.72.72 0 0 0-.72.72v9.17c0 .397.323.72.72.72M395.73 307.067v-50.88a.73.73 0 0 1 .73-.73h11.66a.73.73 0 0 1 .73.73v40.77c0 .403.327.73.73.73h7.82a.73.73 0 0 1 .73.73v8.65a.73.73 0 0 1-.73.73h-20.94a.73.73 0 0 1-.73-.73M514.6 281.307q5.82 1.25 6.54 7.09.88 7.19.7 14c-.04 1.67.32 3.31.62 4.77a.635.635 0 0 1-.62.77h-11.26a1.73 1.73 0 0 1-1.73-1.73v-17.49a4.28 4.28 0 0 0-2.05-3.66l-.87-.53c-1.18-.72-2.693.124-2.69 1.5v21.16c0 .447-.358.81-.8.81h-11.41a.82.82 0 0 1-.82-.82v-51c0-.361.29-.655.65-.66q13.99-.19 15.38-.14c8.57.27 15.63 2.74 15.48 12.91-.08 5.34-.74 11.69-7.09 12.37-.368.045-.393.57-.03.65m-11.45-16.46.27 11.1a.69.69 0 0 0 .7.67l1.59-.04c1.976-.047 3.538-1.779 3.49-3.87l-.12-4.9c-.051-2.092-1.694-3.748-3.67-3.7l-1.59.04a.69.69 0 0 0-.67.7M545.27 297.217a.5.5 0 0 0 .5.5h10.14a.92.92 0 0 1 .92.92v8.63a.57.57 0 0 1-.57.57h-23.68a.675.675 0 0 1-.68-.71q.12-2.541-.3-8.37-.27-3.65-.05-8.36c.55-12.07.16-24.31.17-34.32a.63.63 0 0 1 .63-.63h23.11a.6.6 0 0 1 .6.6v8.49a.73.73 0 0 1-.73.73h-9.14a.91.91 0 0 0-.91.91v8.81c0 .535.435.97.97.97h8.18c.271 0 .49.22.49.49v8.92a.4.4 0 0 1-.4.4h-8.2c-.58 0-1.05.47-1.05 1.05zM566.58 307.737a.59.59 0 0 1-.59-.59v-51.5c0-.08.066-.145.15-.15q9.89-.2 16.96-.05c6.98.15 13.94 3.29 14 11.23q.07 8.16.01 10.01c-.3 9.75-9.12 11.91-17.09 10.99a.665.665 0 0 0-.74.66v18.85c0 .303-.241.55-.54.55zm12.54-42.77.12 13.45c0 .37.3.67.67.67l2.03-.02a3.05 3.05 0 0 0 3.04-3.07l-.08-8.71a3.05 3.05 0 0 0-3.08-3.02l-2.03.02a.67.67 0 0 0-.67.68M621.1 297.867q-2.04.01-2.49-.01a.86.86 0 0 0-.89.78l-.8 8.34a1.125 1.125 0 0 1-1.12 1.02h-11.43a.9.9 0 0 1-.89-1.04l8.29-50.89a.65.65 0 0 1 .69-.55q.52.04 8.35-.01 7.821-.06 8.34-.11a.65.65 0 0 1 .7.54l9 50.77a.9.9 0 0 1-.87 1.06l-11.43.15a1.125 1.125 0 0 1-1.14-1l-.91-8.33a.86.86 0 0 0-.9-.76q-.45.02-2.5.04m-.34-30.2a.3.3 0 0 0-.32.27l-1.96 20.38a.87.87 0 0 0 .97.95l2.74-.31c.556-.068.958-.567.91-1.13l-1.86-19.99a.14.14 0 0 0-.13-.13z"
  />
  <rect width="13.36" height="52.38" x="647.021" y="255.437" fill="#ffd000" rx=".87" />
  <path
    fill="#ffd000"
    d="M696.14 281.447q6.54 1.19 6.61 8.11.09 9.45.44 14.01.13 1.73.73 3.58a.595.595 0 0 1-.57.78h-11.62a1.075 1.075 0 0 1-1.07-.92q-1.26-8.68-.41-18.62a3.585 3.585 0 0 0-2.48-3.73l-1.24-.39a1.6 1.6 0 0 0-2.08 1.53v21.49c0 .309-.255.56-.57.56h-11.82a.91.91 0 0 1-.9-1.02q.471-4.05.15-9.77c-.44-7.66-.99-14.84-.26-22.85q.78-8.68.32-18.12a.55.55 0 0 1 .56-.58c5.54.04 12.85-.41 19.11.15 7.4.65 11.98 3.61 11.93 11.9-.03 6.08-.14 12.32-6.77 12.79-.654.055-.705.996-.06 1.1m-11.66-16.58.26 11.24a.49.49 0 0 0 .5.48l1.19-.03c2.086-.047 3.747-1.497 3.71-3.24l-.14-5.9c-.041-1.743-1.764-3.117-3.85-3.07l-1.19.02a.49.49 0 0 0-.48.5M386.76 306.917a.875.875 0 0 1-.88.86l-20.96-.05a.42.42 0 0 1-.42-.4l-.06-51.06a.6.6 0 0 1 .6-.59l11.8-.18a.76.76 0 0 1 .77.75l-.11 40.46a.905.905 0 0 0 .88.91l7.62.15a.82.82 0 0 1 .81.82z"
  />
  <circle cx="252.26" cy="282.927" r="8.68" fill="#ffd000" />
  <circle cx="453.48" cy="282.897" r="8.74" fill="#ffd000" />
</svg>
