<?xml version="1.0" encoding="UTF-8" standalone="no"?>
<svg
   viewBox="88 96 1285 170"
   shape-rendering="geometricPrecision"
   text-rendering="geometricPrecision"
   version="1.1"
   id="svg6"
   sodipodi:docname="ranger-auto-logo-for-animation.svg"
   inkscape:version="1.4.4 (dcaf3e7, 2026-05-05)"
   xmlns:inkscape="http://www.inkscape.org/namespaces/inkscape"
   xmlns:sodipodi="http://sodipodi.sourceforge.net/DTD/sodipodi-0.dtd"
   xmlns="http://www.w3.org/2000/svg"
   xmlns:svg="http://www.w3.org/2000/svg">
  <defs
     id="defs6" />
  <sodipodi:namedview
     id="namedview6"
     pagecolor="#ffffff"
     bordercolor="#000000"
     borderopacity="0.25"
     inkscape:showpageshadow="2"
     inkscape:pageopacity="0.0"
     inkscape:pagecheckerboard="true"
     inkscape:deskcolor="#d1d1d1"
     showgrid="false"
     inkscape:zoom="0.664"
     inkscape:cx="631.0241"
     inkscape:cy="178.46386"
     inkscape:window-width="2560"
     inkscape:window-height="1494"
     inkscape:window-x="1069"
     inkscape:window-y="1429"
     inkscape:window-maximized="1"
     inkscape:current-layer="svg6" />
  <path
     fill="#094593"
     d="m 472.75,245.947 c -0.127,-0.432 -0.706,-0.51 -0.96,-0.13 -7.24,11.34 -20.15,14.05 -32.86,11.16 -19.65,-4.46 -25.99,-20.68 -25.98,-39.21 q 0.01,-4.08 0.03,-67.5 c 0,-8.32 0.92,-15.82 4.53,-22.95 q 6.85,-13.5 23.31,-17.68 c 16.71,-4.25 42.33,-2.08 52.12,14.07 6.92,11.4 6.53,24.95 5.94,38.01 a 0.645,0.645 0 0 1 -0.64,0.62 h -34.33 a 0.57,0.57 0 0 1 -0.57,-0.58 q 0.15,-18.05 -0.33,-21.94 -0.69,-5.62 -5.63,-6.42 c -5.24,-0.86 -8.03,3.13 -8.11,7.9 q -0.159,9.24 -0.09,53.1 c 0.01,11.06 -0.45,20.27 0.18,30.67 0.27,4.43 2.9,7.74 7.8,6.98 4.76,-0.73 6.61,-5.45 6.64,-9.72 q 0.11,-16.09 0.08,-21.9 c 0,-0.27 -0.223,-0.49 -0.5,-0.49 h -6.76 a 0.575,0.575 0 0 1 -0.57,-0.58 v -21.71 a 0.61,0.61 0 0 1 0.61,-0.61 h 41.95 c 0.255,0 0.46,0.201 0.46,0.45 v 77.13 c 0,0.47 -0.38,0.85 -0.85,0.85 h -21.4 a 1.43,1.43 0 0 1 -1.35,-0.99 z m 591.27,-138.11 c 27.13,0.05 42.51,14.31 42.18,41.73 q -0.06,4.52 -0.11,33.56 -0.06,29.03 -0.02,33.55 c 0.23,27.42 -15.2,41.62 -42.33,41.57 -27.13,-0.05 -42.51,-14.31 -42.18,-41.73 q 0.061,-4.52 0.11,-33.55 0.061,-29.04 0.02,-33.56 c -0.23,-27.42 15.2,-41.62 42.33,-41.57 m -6.75,74.94 c -0.012,20.9 -0.01,34.396 0.02,40.49 0.02,4.28 1.23,9.03 6.49,9.04 5.27,0 6.48,-4.75 6.5,-9.04 q 0.051,-9.13 0.06,-40.48 c 0.013,-20.907 0.01,-34.404 -0.02,-40.49 -0.02,-4.29 -1.22,-9.04 -6.49,-9.04 -5.26,-0.01 -6.47,4.75 -6.5,9.03 q -0.05,9.14 -0.06,40.49 m -920.85,9.58 v 62.34 c 0,0.436 -0.349,0.79 -0.78,0.79 h -34.51 a 0.36,0.36 0 0 1 -0.36,-0.36 v -144.37 a 0.62,0.62 0 0 1 0.61,-0.62 q 21.7,-0.14 43.3,-0.07 c 10.23,0.04 24.1,1.55 31.52,9.47 5.26,5.62 7.71,12.84 8.25,21.17 q 0.81,12.62 -0.51,21.82 -2.259,15.67 -17.94,17.8 c -0.508,0.042 -0.55,0.77 -0.05,0.87 q 2.94,0.75 4.01,1.07 c 11.52,3.47 14.72,12.83 14.77,23.76 q 0.08,14.44 0.19,35.72 0.04,7.1 2.04,13.05 a 0.5,0.5 0 0 1 -0.47,0.66 h -33.92 a 0.785,0.785 0 0 1 -0.76,-0.6 q -1.83,-7.14 -1.77,-13.34 0.2,-17.67 -0.19,-40.49 c -0.13,-8 -5.94,-9.84 -12.72,-9.42 a 0.755,0.755 0 0 0 -0.71,0.75 m 0,-56.42 0.16,31.38 a 0.68,0.68 0 0 0 0.69,0.67 l 4.36,-0.02 c 4.75,-0.027 8.579,-3.985 8.55,-8.84 l -0.08,-15.16 c -0.028,-4.855 -3.9,-8.768 -8.65,-8.74 l -4.36,0.02 a 0.68,0.68 0 0 0 -0.67,0.69 m 132.53,-25.28 22.26,144.1 a 0.62,0.62 0 0 1 -0.61,0.71 H 256 a 0.62,0.62 0 0 1 -0.61,-0.55 l -2.82,-24.29 a 0.62,0.62 0 0 0 -0.61,-0.55 h -15.58 a 0.62,0.62 0 0 0 -0.61,0.56 l -2.35,24.29 a 0.62,0.62 0 0 1 -0.61,0.56 h -34.82 a 0.62,0.62 0 0 1 -0.61,-0.71 l 20.41,-144.12 a 0.62,0.62 0 0 1 0.62,-0.53 h 49.93 a 0.62,0.62 0 0 1 0.61,0.53 m -24.88,94.28 q 3.02,0 5.99,-0.09 a 0.53,0.53 0 0 0 0.51,-0.59 47925,47925 0 0 1 -6.25,-63.01 q -0.12,-1.22 -0.44,-1.22 -0.28,0.01 -0.4,1.22 -2.76,29.67 -5.91,63.05 a 0.53,0.53 0 0 0 0.52,0.58 q 2.97,0.069 5.98,0.06 m 93.78,-26.01 c -0.09,-0.272 -0.493,-0.213 -0.48,0.07 v 75.71 a 0.77,0.77 0 0 1 -0.77,0.77 h -30.54 c -0.364,0 -0.66,-0.3 -0.66,-0.67 v -143.97 c 0,-0.409 0.327,-0.74 0.73,-0.74 h 34.03 c 0.28,0 0.53,0.18 0.62,0.45 l 22.81,71.63 c 0.086,0.242 0.445,0.193 0.44,-0.06 v -71.5 c 0,-0.282 0.224,-0.51 0.5,-0.51 h 30.84 a 0.6,0.6 0 0 1 0.6,0.6 v 144.17 a 0.59,0.59 0 0 1 -0.59,0.59 h -33.21 c -0.475,-0.001 -0.896,-0.313 -1.04,-0.77 z m 179.91,-68.81 h 64.74 c 0.26,0 0.47,0.206 0.47,0.46 v 26.74 c 0,0.37 -0.3,0.67 -0.67,0.67 h -28.7 a 0.54,0.54 0 0 0 -0.54,0.54 v 26.6 c 0,0.668 0.542,1.21 1.21,1.21 h 22.39 c 0.271,0 0.49,0.22 0.49,0.49 v 24.83 a 0.59,0.59 0 0 1 -0.59,0.59 h -23.25 a 0.245,0.245 0 0 0 -0.24,0.25 v 33.89 c 10e-4,0.34 0.203,0.644 0.51,0.77 q 0.94,0.4 4.1,0.38 14.92,-0.11 25.5,-0.07 c 0.295,0.005 0.53,0.24 0.53,0.53 v 26.84 a 0.61,0.61 0 0 1 -0.61,0.61 h -65.73 a 0.29,0.29 0 0 1 -0.29,-0.29 v -144.36 a 0.68,0.68 0 0 1 0.68,-0.68 m 117.34,81.49 a 0.755,0.755 0 0 0 -0.71,0.75 l -0.06,62.28 c 0,0.436 -0.349,0.79 -0.78,0.79 l -34.48,-0.04 a 0.36,0.36 0 0 1 -0.36,-0.36 l 0.14,-144.22 a 0.62,0.62 0 0 1 0.61,-0.61 q 21.681,-0.12 43.26,-0.03 c 10.21,0.05 24.07,1.57 31.47,9.49 5.25,5.62 7.69,12.83 8.22,21.15 q 0.8,12.61 -0.53,21.8 -2.27,15.65 -17.93,17.76 c -0.508,0.042 -0.55,0.77 -0.05,0.87 q 2.93,0.759 4,1.08 c 11.5,3.47 14.69,12.83 14.73,23.75 q 0.07,14.42 0.16,35.68 0.03,7.09 2.02,13.04 a 0.5,0.5 0 0 1 -0.47,0.66 l -33.88,-0.04 a 0.785,0.785 0 0 1 -0.76,-0.6 q -1.82,-7.131 -1.76,-13.32 0.22,-17.66 -0.15,-40.45 c -0.12,-7.99 -5.92,-9.84 -12.69,-9.43 m -1,-55.87 0.22,32.1 c 0,0.143 0.117,0.26 0.26,0.26 l 4.55,-0.04 c 4.965,-0.034 8.963,-4.014 8.93,-8.89 l -0.1,-14.96 c -0.032,-4.877 -4.084,-8.804 -9.05,-8.77 l -4.55,0.04 a 0.26,0.26 0 0 0 -0.26,0.26 m 191.98,119.44 a 0.275,0.275 0 0 1 -0.28,0.31 h -34.16 a 0.56,0.56 0 0 1 -0.56,-0.5 l -2.85,-24.59 a 0.45,0.45 0 0 0 -0.45,-0.39 h -15.54 a 0.74,0.74 0 0 0 -0.74,0.67 l -2.32,24.06 a 0.85,0.85 0 0 1 -0.85,0.77 h -34.92 a 0.515,0.515 0 0 1 -0.51,-0.59 l 20.48,-144.57 a 0.275,0.275 0 0 1 0.28,-0.24 l 50.66,-0.01 a 0.414,0.414 0 0 1 0.41,0.36 q 3.92,27.38 9.79,64.48 c 2.02,12.77 3.54,26.9 5.78,39.18 1.36,7.5 2.2,17.29 3.33,23.44 q 1.33,7.25 2.45,17.62 m -46.26,-50.21 q 3.04,0 6.03,-0.09 a 0.535,0.535 0 0 0 0.52,-0.59 q -3.31,-33.62 -6.22,-63.5 -0.12,-1.22 -0.44,-1.22 -0.29,0 -0.4,1.22 -2.82,29.89 -6.03,63.52 c -0.029,0.31 0.205,0.58 0.51,0.59 q 2.991,0.07 6.03,0.07 m 99.57,27.24 c 3.92,0 6.07,-2.96 6.2,-6.71 q 0.2,-5.78 0.2,-9.23 -0.05,-22.87 0.03,-105.77 c 0,-0.221 0.175,-0.4 0.39,-0.4 h 35.14 c 0.21,0 0.38,0.17 0.38,0.38 q -0.05,49.25 -0.02,108.04 c 0,10.38 -1.96,20.68 -9.56,28.49 -8.3,8.53 -21.08,11.09 -32.76,11.09 -11.67,0 -24.46,-2.56 -32.75,-11.09 -7.6,-7.82 -9.56,-18.12 -9.56,-28.5 q 0.04,-58.79 0,-108.04 c 0,-0.21 0.17,-0.38 0.38,-0.38 l 35.14,0.01 c 0.216,0 0.39,0.179 0.39,0.4 q 0.06,82.9 0.01,105.77 0,3.45 0.2,9.22 c 0.13,3.76 2.28,6.72 6.19,6.72 m 94.25,-122.12 q 20.54,0.03 39.68,0.12 c 0.166,0 0.3,0.13 0.3,0.29 v 27.07 a 0.51,0.51 0 0 1 -0.51,0.51 h -21.08 a 0.32,0.32 0 0 0 -0.32,0.32 v 116.56 a 0.575,0.575 0 0 1 -0.59,0.57 q -8.99,-0.1 -17.66,-0.11 -8.67,-0.01 -17.67,0.07 a 0.575,0.575 0 0 1 -0.58,-0.57 l 0.28,-116.56 a 0.32,0.32 0 0 0 -0.32,-0.32 l -21.08,-0.06 a 0.51,0.51 0 0 1 -0.51,-0.51 l 0.07,-27.07 c 0,-0.16 0.135,-0.29 0.3,-0.29 q 19.14,-0.04 39.69,-0.02"
     id="path2" />
</svg>
