<svg xmlns="http://www.w3.org/2000/svg" viewBox="0 0 6000 495.097" shape-rendering="geometricPrecision" text-rendering="geometricPrecision"><path fill="#094593" d="M471.32 211.737c-.127-.432-.706-.51-.96-.13-7.24 11.34-20.15 14.05-32.86 11.16-19.65-4.46-25.99-20.68-25.98-39.21q.01-4.08.03-67.5c0-8.32.92-15.82 4.53-22.95q6.85-13.5 23.31-17.68c16.71-4.25 42.33-2.08 52.12 14.07 6.92 11.4 6.53 24.95 5.94 38.01a.645.645 0 0 1-.64.62h-34.33a.57.57 0 0 1-.57-.58q.15-18.05-.33-21.94-.69-5.62-5.63-6.42c-5.24-.86-8.03 3.13-8.11 7.9q-.159 9.24-.09 53.1c.01 11.06-.45 20.27.18 30.67.27 4.43 2.9 7.74 7.8 6.98 4.76-.73 6.61-5.45 6.64-9.72q.11-16.09.08-21.9c0-.27-.223-.49-.5-.49h-6.76a.575.575 0 0 1-.57-.58v-21.71a.61.61 0 0 1 .61-.61h41.95c.255 0 .46.201.46.45v77.13c0 .47-.38.85-.85.85h-21.4a1.43 1.43 0 0 1-1.35-.99zM1062.59 73.627c27.13.05 42.51 14.31 42.18 41.73q-.06 4.52-.11 33.56-.06 29.03-.02 33.55c.23 27.42-15.2 41.62-42.33 41.57s-42.51-14.31-42.18-41.73q.061-4.52.11-33.55.061-29.04.02-33.56c-.23-27.42 15.2-41.62 42.33-41.57m-6.75 74.94c-.012 20.9-.01 34.396.02 40.49.02 4.28 1.23 9.03 6.49 9.04 5.27 0 6.48-4.75 6.5-9.04q.051-9.13.06-40.48c.013-20.907.01-34.404-.02-40.49-.02-4.29-1.22-9.04-6.49-9.04-5.26-.01-6.47 4.75-6.5 9.03q-.05 9.14-.06 40.49M134.99 158.147v62.34c0 .436-.349.79-.78.79H99.7a.36.36 0 0 1-.36-.36V76.547a.62.62 0 0 1 .61-.62q21.7-.14 43.3-.07c10.23.04 24.1 1.55 31.52 9.47 5.26 5.62 7.71 12.84 8.25 21.17q.81 12.62-.51 21.82-2.259 15.67-17.94 17.8c-.508.042-.55.77-.05.87q2.94.75 4.01 1.07c11.52 3.47 14.72 12.83 14.77 23.76q.08 14.44.19 35.72.04 7.1 2.04 13.05a.5.5 0 0 1-.47.66h-33.92a.785.785 0 0 1-.76-.6q-1.83-7.14-1.77-13.34.2-17.67-.19-40.49c-.13-8-5.94-9.84-12.72-9.42a.755.755 0 0 0-.71.75m0-56.42.16 31.38a.68.68 0 0 0 .69.67l4.36-.02c4.75-.027 8.579-3.985 8.55-8.84l-.08-15.16c-.028-4.855-3.9-8.768-8.65-8.74l-4.36.02a.68.68 0 0 0-.67.69M267.52 76.447l22.26 144.1a.62.62 0 0 1-.61.71h-34.6a.62.62 0 0 1-.61-.55l-2.82-24.29a.62.62 0 0 0-.61-.55h-15.58a.62.62 0 0 0-.61.56l-2.35 24.29a.62.62 0 0 1-.61.56h-34.82a.62.62 0 0 1-.61-.71l20.41-144.12a.62.62 0 0 1 .62-.53h49.93a.62.62 0 0 1 .61.53m-24.88 94.28q3.02 0 5.99-.09a.53.53 0 0 0 .51-.59 47925 47925 0 0 1-6.25-63.01q-.12-1.22-.44-1.22-.28.01-.4 1.22-2.76 29.67-5.91 63.05a.53.53 0 0 0 .52.58q2.97.069 5.98.06M336.42 144.717c-.09-.272-.493-.213-.48.07v75.71a.77.77 0 0 1-.77.77h-30.54c-.364 0-.66-.3-.66-.67V76.627c0-.409.327-.74.73-.74h34.03c.28 0 .53.18.62.45l22.81 71.63c.086.242.445.193.44-.06v-71.5c0-.282.224-.51.5-.51h30.84a.6.6 0 0 1 .6.6v144.17a.59.59 0 0 1-.59.59h-33.21c-.475-.001-.896-.313-1.04-.77zM516.33 75.907h64.74c.26 0 .47.206.47.46v26.74c0 .37-.3.67-.67.67h-28.7a.54.54 0 0 0-.54.54v26.6c0 .668.542 1.21 1.21 1.21h22.39c.271 0 .49.22.49.49v24.83a.59.59 0 0 1-.59.59h-23.25a.245.245 0 0 0-.24.25v33.89c.001.34.203.644.51.77q.94.4 4.1.38 14.92-.11 25.5-.07c.295.005.53.24.53.53v26.84a.61.61 0 0 1-.61.61h-65.73a.29.29 0 0 1-.29-.29V76.587a.68.68 0 0 1 .68-.68M633.67 157.397a.755.755 0 0 0-.71.75l-.06 62.28c0 .436-.349.79-.78.79l-34.48-.04a.36.36 0 0 1-.36-.36l.14-144.22a.62.62 0 0 1 .61-.61q21.681-.12 43.26-.03c10.21.05 24.07 1.57 31.47 9.49 5.25 5.62 7.69 12.83 8.22 21.15q.8 12.61-.53 21.8-2.27 15.65-17.93 17.76c-.508.042-.55.77-.05.87q2.93.759 4 1.08c11.5 3.47 14.69 12.83 14.73 23.75q.07 14.42.16 35.68.03 7.09 2.02 13.04a.5.5 0 0 1-.47.66l-33.88-.04a.785.785 0 0 1-.76-.6q-1.82-7.131-1.76-13.32.22-17.66-.15-40.45c-.12-7.99-5.92-9.84-12.69-9.43m-1-55.87.22 32.1c0 .143.117.26.26.26l4.55-.04c4.965-.034 8.963-4.014 8.93-8.89l-.1-14.96c-.032-4.877-4.084-8.804-9.05-8.77l-4.55.04a.26.26 0 0 0-.26.26M824.65 220.967a.275.275 0 0 1-.28.31h-34.16a.56.56 0 0 1-.56-.5l-2.85-24.59a.45.45 0 0 0-.45-.39h-15.54a.74.74 0 0 0-.74.67l-2.32 24.06a.85.85 0 0 1-.85.77h-34.92a.515.515 0 0 1-.51-.59l20.48-144.57a.275.275 0 0 1 .28-.24l50.66-.01a.414.414 0 0 1 .41.36q3.92 27.38 9.79 64.48c2.02 12.77 3.54 26.9 5.78 39.18 1.36 7.5 2.2 17.29 3.33 23.44q1.33 7.25 2.45 17.62m-46.26-50.21q3.04 0 6.03-.09a.535.535 0 0 0 .52-.59q-3.31-33.62-6.22-63.5-.12-1.22-.44-1.22-.29 0-.4 1.22-2.82 29.89-6.03 63.52c-.029.31.205.58.51.59q2.991.07 6.03.07M877.96 197.997c3.92 0 6.07-2.96 6.2-6.71q.2-5.78.2-9.23-.05-22.87.03-105.77c0-.221.175-.4.39-.4h35.14c.21 0 .38.17.38.38q-.05 49.25-.02 108.04c0 10.38-1.96 20.68-9.56 28.49-8.3 8.53-21.08 11.09-32.76 11.09-11.67 0-24.46-2.56-32.75-11.09-7.6-7.82-9.56-18.12-9.56-28.5q.04-58.79 0-108.04c0-.21.17-.38.38-.38l35.14.01c.216 0 .39.179.39.4q.06 82.9.01 105.77 0 3.45.2 9.22c.13 3.76 2.28 6.72 6.19 6.72M972.21 75.877q20.54.03 39.68.12c.166 0 .3.13.3.29v27.07a.51.51 0 0 1-.51.51H990.6a.32.32 0 0 0-.32.32v116.56a.575.575 0 0 1-.59.57q-8.99-.1-17.66-.11t-17.67.07a.575.575 0 0 1-.58-.57l.28-116.56a.32.32 0 0 0-.32-.32l-21.08-.06a.51.51 0 0 1-.51-.51l.07-27.07c0-.16.135-.29.3-.29q19.14-.04 39.69-.02"/><path fill="#ffd000" d="M289.73 289.767h11c.514-.001.923.431.9.95q-.11 2.51.12 5.94c.29 4.22 5.59 4.04 5.94.11q.52-5.82-4.02-8.79c-6.28-4.1-14.19-8.19-14.5-16.38-.29-7.79.66-13.72 9.23-16.44 2.81-.89 8.25-1.06 11.2-.34q11.03 2.69 10.07 15.77a.995.995 0 0 1-.99.92h-10.72a1.1 1.1 0 0 1-1.1-1.1v-4.64c0-.747-.401-1.435-1.05-1.8q-1.59-.88-2.92-.04c-2.38 1.5-1.37 5.94-.08 7.82.186.27.416.505.68.69q5.94 4.2 11.58 8.55c4.92 3.78 5.59 9.1 5.46 15.35q-.2 9.489-9.53 11.73c-7.59 1.82-18.26.94-21.22-7.8q-.68-2.01-.84-9.69a.79.79 0 0 1 .79-.81M99.32 255.807a.31.31 0 0 1 .3-.31q13.8-.141 17.63-.06c6.6.15 13.38 2.65 13.88 10.15q.27 4.13-.04 7.21c-.48 4.66-3.21 5.47-6.86 6.9-.39.155-.308.73.11.77 8.33.76 7.77 8.25 7.96 15.44.28 10.43-7.22 12.11-16.4 11.86q-6.64-.17-15.56.26a.97.97 0 0 1-1.02-.97zm13.55 8.97.02 11.36a.5.5 0 0 0 .5.5h1.41c2.023-.006 3.66-1.504 3.66-3.35v-5.66c.001-1.854-1.648-3.356-3.68-3.35h-1.41a.5.5 0 0 0-.5.5m-.1 19.74.24 13.76a.32.32 0 0 0 .33.31l1.75-.03c2.066-.04 3.712-1.659 3.68-3.62l-.12-7.28c-.036-1.968-1.747-3.53-3.82-3.49l-1.75.03a.32.32 0 0 0-.31.32M158.41 299.577q1.78 0 2.59-2c.1-.252.151-.52.15-.79v-40.54c0-.47.381-.85.85-.85h12.18a.57.57 0 0 1 .57.59q-.51 12.65.02 34.81.04 1.52-.49 6.5c-.92 8.63-8.23 11.48-15.88 11.48-7.65-.01-14.96-2.87-15.87-11.5q-.519-4.98-.48-6.5.56-22.16.07-34.81a.57.57 0 0 1 .57-.59l12.18.01a.85.85 0 0 1 .85.86l-.06 40.54c.003.27.057.538.16.79q.8 2 2.59 2M199.58 273.407q.14 0 .2-.29 3.11-14.44 3.56-17.22a.5.5 0 0 1 .49-.42h12.05a.34.34 0 0 1 .32.44l-9.96 31.3a5.7 5.7 0 0 0-.27 1.73v17.97a.95.95 0 0 1-.92.95q-.41.01-5.46.01t-5.46-.01a.95.95 0 0 1-.92-.95l-.01-17.97c0-.59-.09-1.174-.27-1.73l-9.98-31.29a.34.34 0 0 1 .32-.44l12.05-.01a.5.5 0 0 1 .49.42q.45 2.78 3.56 17.22.07.29.21.29M343.94 275.907h8.35a.72.72 0 0 1 .72.72v8.51a.72.72 0 0 1-.72.72h-8.19a.72.72 0 0 0-.72.72v10.31c0 .397.323.72.72.72h9.94a.72.72 0 0 1 .72.72v8.76a.72.72 0 0 1-.72.72h-23.12a.72.72 0 0 1-.72-.72v-50.94a.72.72 0 0 1 .72-.72h22.48a.72.72 0 0 1 .72.72v8.43a.72.72 0 0 1-.72.72h-9.46a.72.72 0 0 0-.72.72v9.17c0 .397.323.72.72.72M395.73 307.067v-50.88a.73.73 0 0 1 .73-.73h11.66a.73.73 0 0 1 .73.73v40.77c0 .403.327.73.73.73h7.82a.73.73 0 0 1 .73.73v8.65a.73.73 0 0 1-.73.73h-20.94a.73.73 0 0 1-.73-.73M514.6 281.307q5.82 1.25 6.54 7.09.88 7.19.7 14c-.04 1.67.32 3.31.62 4.77a.635.635 0 0 1-.62.77h-11.26a1.73 1.73 0 0 1-1.73-1.73v-17.49a4.28 4.28 0 0 0-2.05-3.66l-.87-.53c-1.18-.72-2.693.124-2.69 1.5v21.16c0 .447-.358.81-.8.81h-11.41a.82.82 0 0 1-.82-.82v-51c0-.361.29-.655.65-.66q13.99-.19 15.38-.14c8.57.27 15.63 2.74 15.48 12.91-.08 5.34-.74 11.69-7.09 12.37-.368.045-.393.57-.03.65m-11.45-16.46.27 11.1a.69.69 0 0 0 .7.67l1.59-.04c1.976-.047 3.538-1.779 3.49-3.87l-.12-4.9c-.051-2.092-1.694-3.748-3.67-3.7l-1.59.04a.69.69 0 0 0-.67.7M545.27 297.217a.5.5 0 0 0 .5.5h10.14a.92.92 0 0 1 .92.92v8.63a.57.57 0 0 1-.57.57h-23.68a.675.675 0 0 1-.68-.71q.12-2.541-.3-8.37-.27-3.65-.05-8.36c.55-12.07.16-24.31.17-34.32a.63.63 0 0 1 .63-.63h23.11a.6.6 0 0 1 .6.6v8.49a.73.73 0 0 1-.73.73h-9.14a.91.91 0 0 0-.91.91v8.81c0 .535.435.97.97.97h8.18c.271 0 .49.22.49.49v8.92a.4.4 0 0 1-.4.4h-8.2c-.58 0-1.05.47-1.05 1.05zM566.58 307.737a.59.59 0 0 1-.59-.59v-51.5c0-.08.066-.145.15-.15q9.89-.2 16.96-.05c6.98.15 13.94 3.29 14 11.23q.07 8.16.01 10.01c-.3 9.75-9.12 11.91-17.09 10.99a.665.665 0 0 0-.74.66v18.85c0 .303-.241.55-.54.55zm12.54-42.77.12 13.45c0 .37.3.67.67.67l2.03-.02a3.05 3.05 0 0 0 3.04-3.07l-.08-8.71a3.05 3.05 0 0 0-3.08-3.02l-2.03.02a.67.67 0 0 0-.67.68M621.1 297.867q-2.04.01-2.49-.01a.86.86 0 0 0-.89.78l-.8 8.34a1.125 1.125 0 0 1-1.12 1.02h-11.43a.9.9 0 0 1-.89-1.04l8.29-50.89a.65.65 0 0 1 .69-.55q.52.04 8.35-.01 7.821-.06 8.34-.11a.65.65 0 0 1 .7.54l9 50.77a.9.9 0 0 1-.87 1.06l-11.43.15a1.125 1.125 0 0 1-1.14-1l-.91-8.33a.86.86 0 0 0-.9-.76q-.45.02-2.5.04m-.34-30.2a.3.3 0 0 0-.32.27l-1.96 20.38a.87.87 0 0 0 .97.95l2.74-.31c.556-.068.958-.567.91-1.13l-1.86-19.99a.14.14 0 0 0-.13-.13z"/><rect width="13.36" height="52.38" x="647.021" y="255.437" fill="#ffd000" rx=".87"/><path fill="#ffd000" d="M696.14 281.447q6.54 1.19 6.61 8.11.09 9.45.44 14.01.13 1.73.73 3.58a.595.595 0 0 1-.57.78h-11.62a1.075 1.075 0 0 1-1.07-.92q-1.26-8.68-.41-18.62a3.585 3.585 0 0 0-2.48-3.73l-1.24-.39a1.6 1.6 0 0 0-2.08 1.53v21.49c0 .309-.255.56-.57.56h-11.82a.91.91 0 0 1-.9-1.02q.471-4.05.15-9.77c-.44-7.66-.99-14.84-.26-22.85q.78-8.68.32-18.12a.55.55 0 0 1 .56-.58c5.54.04 12.85-.41 19.11.15 7.4.65 11.98 3.61 11.93 11.9-.03 6.08-.14 12.32-6.77 12.79-.654.055-.705.996-.06 1.1m-11.66-16.58.26 11.24a.49.49 0 0 0 .5.48l1.19-.03c2.086-.047 3.747-1.497 3.71-3.24l-.14-5.9c-.041-1.743-1.764-3.117-3.85-3.07l-1.19.02a.49.49 0 0 0-.48.5M386.76 306.917a.875.875 0 0 1-.88.86l-20.96-.05a.42.42 0 0 1-.42-.4l-.06-51.06a.6.6 0 0 1 .6-.59l11.8-.18a.76.76 0 0 1 .77.75l-.11 40.46a.905.905 0 0 0 .88.91l7.62.15a.82.82 0 0 1 .81.82z"/><circle cx="252.26" cy="282.927" r="8.68" fill="#ffd000"/><circle cx="453.48" cy="282.897" r="8.74" fill="#ffd000"/><path fill="#ffd000" d="m6000.155 276.916-.088 46.777-5181.516-.466c-.496 0-.955.258-1.21.68l-20.81 34.72-32.84 54.52-48.06 80.12c-.304.514-2.25 2.238-2.344 1.89l-713.286-.04v-46.89l682.92.03a1.34 1.34 0 0 0 1.15-.64l20.18-33.1a.3.3 0 0 0 .03-.2l-.07-.41q.69-.39.8-.58 15.51-26.1 31.25-52.05.04-.07.05-.45l.43-.23c.278-.156.493-.4.61-.69q.909-2.32 1.59-3.4.77-1.2 43.61-72.15a143 143 0 0 0 3.84-6.78c.216-.4.634-.65 1.09-.65z"/><path fill="#094593" d="m6000.163 358.69.167 54.457H763.69l32.84-54.52zM736.31 360.827q-.01.38-.05.45a6716 6716 0 0 0-31.25 52.05q-.11.19-.8.58L0 413.887v-53.4z"/></svg>