<?xml version="1.0" encoding="UTF-8" standalone="no"?>
<svg
   viewBox="0 0 6000 495.097"
   shape-rendering="geometricPrecision"
   text-rendering="geometricPrecision"
   version="1.1"
   id="svg6"
   sodipodi:docname="yellow-and-blue-stripes-for-animation.svg"
   inkscape:version="1.4.4 (dcaf3e7, 2026-05-05)"
   xmlns:inkscape="http://www.inkscape.org/namespaces/inkscape"
   xmlns:sodipodi="http://sodipodi.sourceforge.net/DTD/sodipodi-0.dtd"
   xmlns="http://www.w3.org/2000/svg"
   xmlns:svg="http://www.w3.org/2000/svg">
  <defs
     id="defs6" />
  <sodipodi:namedview
     id="namedview6"
     pagecolor="#ffffff"
     bordercolor="#000000"
     borderopacity="0.25"
     inkscape:showpageshadow="2"
     inkscape:pageopacity="0.0"
     inkscape:pagecheckerboard="true"
     inkscape:deskcolor="#d1d1d1"
     showgrid="false"
     inkscape:zoom="0.332"
     inkscape:cx="3039.1566"
     inkscape:cy="134.03614"
     inkscape:window-width="2560"
     inkscape:window-height="1494"
     inkscape:window-x="1069"
     inkscape:window-y="1429"
     inkscape:window-maximized="1"
     inkscape:current-layer="svg6" />
  <path
     fill="#ffd000"
     d="m6000.155 276.916-.088 46.777-5181.516-.466c-.496 0-.955.258-1.21.68l-20.81 34.72-32.84 54.52-48.06 80.12c-.304.514-2.25 2.238-2.344 1.89l-713.286-.04v-46.89l682.92.03a1.34 1.34 0 0 0 1.15-.64l20.18-33.1a.3.3 0 0 0 .03-.2l-.07-.41q.69-.39.8-.58 15.51-26.1 31.25-52.05.04-.07.05-.45l.43-.23c.278-.156.493-.4.61-.69q.909-2.32 1.59-3.4.77-1.2 43.61-72.15a143 143 0 0 0 3.84-6.78c.216-.4.634-.65 1.09-.65z"
     id="path5" />
  <path
     fill="#094593"
     d="m6000.163 358.69.167 54.457H763.69l32.84-54.52zM736.31 360.827q-.01.38-.05.45a6716 6716 0 0 0-31.25 52.05q-.11.19-.8.58L0 413.887v-53.4z"
     id="path6" />
</svg>
