<svg xmlns="http://www.w3.org/2000/svg" viewBox="0 0 64 64" role="img" aria-labelledby="title">
  <title>Ranger Auto favicon</title>
  <rect width="64" height="64" rx="8" fill="#ffffff"/>
  <path d="M6 36h19.5l6-7h26.5v4H33.3l-6 7H6z" fill="#f2be1a"/>
  <path d="M6 43h24l6-7h22v3.5H37.5l-6 7H6z" fill="#15559f"/>
  <path d="M11 16h8.8c5.2 0 8.1 2.4 8.1 6.9 0 3-1.4 5-4 6l4.2 7.1h-7.2l-3.4-6h-1.8v6H11zm7.9 9.3c1.7 0 2.7-.8 2.7-2.2s-1-2.1-2.7-2.1h-2.5v4.3z" fill="#15559f"/>
  <path d="M32.4 16h7.4l7.7 20h-6.6l-1-2.9h-8l-1 2.9h-6.2zm6 12.5-2.1-6.2-2.2 6.2z" fill="#15559f"/>
  <rect x="6" y="6" width="52" height="52" rx="8" fill="none" stroke="#e5e7eb" stroke-width="1"/>
</svg>
